M48
; DRILL file {KiCad (5.1.6)-1} date 09/23/20 00:55:50
; FORMAT={-:-/ absolute / inch / decimal}
; #@! TF.CreationDate,2020-09-23T00:55:50+02:00
; #@! TF.GenerationSoftware,Kicad,Pcbnew,(5.1.6)-1
; #@! TF.FileFunction,Plated,1,2,PTH
FMAT,2
INCH
T1C0.0157
T2C0.0315
T3C0.0394
T4C0.0433
%
G90
G05
T1
X4.0Y-5.8
X4.425Y-5.35
X4.425Y-5.425
X4.6Y-5.35
X4.6Y-5.425
X4.6Y-5.5
X4.75Y-4.0
X4.85Y-3.95
X4.975Y-5.4
X5.0Y-3.95
X5.0Y-4.45
X5.1Y-4.45
X5.175Y-5.175
X5.2Y-4.45
X5.2Y-5.5
X5.25Y-3.3
X5.25Y-5.1
X5.3Y-4.45
X5.5Y-3.9
X5.5Y-3.9
X5.75Y-6.25
X5.8Y-6.2
X5.85Y-6.15
X5.9Y-6.1
X6.1Y-5.0
X6.2Y-4.8
X6.7969Y-2.7531
X7.025Y-5.175
X7.1Y-5.6
X7.1Y-5.8
X7.1Y-5.9
X7.1Y-5.975
X7.275Y-5.225
X7.275Y-5.275
X7.3969Y-2.7531
X7.725Y-5.7
X7.725Y-5.7
X8.025Y-5.9
X8.35Y-2.9
X8.4Y-5.7
X8.45Y-2.45
X9.3Y-2.45
X9.325Y-5.575
X9.325Y-5.625
X9.45Y-5.525
X9.61Y-4.46
T2
X6.4031Y-3.2
X6.6Y-3.2
X6.55Y-2.7531
X6.55Y-2.95
X6.0Y-3.1
X6.4Y-3.1
X5.4Y-3.2
X5.5969Y-3.2
X6.7Y-5.1
X7.1Y-5.1
X5.4031Y-3.8
X5.6Y-3.8
X5.4Y-2.7
X5.4Y-3.1
X7.0Y-4.7031
X7.0Y-4.9
X5.4Y-4.4
X5.8Y-4.4
X6.4031Y-3.8
X6.6Y-3.8
X4.4Y-2.7
X4.4Y-3.1
X4.4031Y-5.1
X4.6Y-5.1
X6.4Y-4.5
X6.5969Y-4.5
X4.4Y-4.4
X4.8Y-4.4
X4.2Y-3.9
X4.6Y-3.9
X3.9Y-3.2
X3.9Y-3.6
X6.4031Y-5.1
X6.6Y-5.1
X4.0Y-4.7031
X4.0Y-4.9
X3.9Y-4.5
X3.9Y-4.9
X5.2Y-3.9
X5.6Y-3.9
X4.4Y-4.5
X4.5969Y-4.5
X5.4031Y-5.1
X5.6Y-5.1
X5.4Y-4.5
X5.5969Y-4.5
X7.1Y-4.3
X7.1Y-4.7
X4.4Y-3.2
X4.5969Y-3.2
X6.4Y-4.4
X6.8Y-4.4
X5.8Y-4.7
X5.8Y-5.1
X5.85Y-3.9
X6.25Y-3.9
X4.4031Y-3.8
X4.6Y-3.8
X4.8Y-4.7
X4.8Y-5.1
X4.0Y-3.4
X4.0Y-3.5969
X6.0Y-2.95
X6.4Y-2.95
T3
X9.075Y-2.05
X9.075Y-2.15
X9.5Y-2.05
X9.5Y-2.15
X9.5Y-2.25
X9.5Y-2.35
X9.5Y-2.45
X7.7Y-4.78
X7.7Y-4.88
X7.7Y-4.98
X7.7Y-5.08
X7.7Y-5.18
X7.7Y-5.28
X7.7Y-5.38
X7.7Y-5.48
X7.9Y-3.7
X7.9Y-3.8
X7.9Y-3.9
X7.9Y-4.0
X7.9Y-4.1
X7.9Y-4.2
X7.9Y-4.3
X7.9Y-4.4
X7.9Y-4.5
X7.9Y-4.6
X6.85Y-2.05
X6.95Y-2.05
X7.05Y-2.05
X7.15Y-2.05
X9.8Y-4.98
X9.8Y-5.08
X9.8Y-5.18
X9.8Y-5.28
X9.8Y-5.38
X9.8Y-5.48
X7.7Y-3.7
X7.7Y-3.8
X7.7Y-3.9
X7.7Y-4.0
X7.7Y-4.1
X7.7Y-4.2
X7.7Y-4.3
X7.7Y-4.4
X7.7Y-4.5
X7.7Y-4.6
X6.2Y-2.35
X6.3Y-2.35
X6.4Y-2.35
X6.5Y-2.35
X8.85Y-2.05
X8.85Y-2.15
X7.4Y-2.35
X7.5Y-2.35
X7.6Y-2.35
X7.7Y-2.35
X10.0Y-4.06
X10.0Y-4.16
X10.0Y-4.26
X10.0Y-4.36
X10.0Y-4.46
X10.0Y-4.56
X10.0Y-4.66
X10.0Y-4.76
X7.95Y-2.45
X7.95Y-2.55
X7.95Y-2.65
X7.95Y-2.75
X7.95Y-2.85
X10.0Y-4.98
X10.0Y-5.08
X10.0Y-5.18
X10.0Y-5.28
X10.0Y-5.38
X10.0Y-5.48
X5.65Y-2.35
X5.75Y-2.35
X5.85Y-2.35
X5.95Y-2.35
X9.8Y-4.06
X9.8Y-4.16
X9.8Y-4.26
X9.8Y-4.36
X9.8Y-4.46
X9.8Y-4.56
X9.8Y-4.66
X9.8Y-4.76
X6.2Y-2.05
X6.3Y-2.05
X6.4Y-2.05
X6.5Y-2.05
X7.4Y-2.05
X7.5Y-2.05
X7.6Y-2.05
X7.7Y-2.05
X6.85Y-2.35
X6.95Y-2.35
X7.05Y-2.35
X7.15Y-2.35
X6.7Y-5.6
X6.7Y-5.7
X6.7Y-5.8
X4.6Y-5.65
X4.7Y-5.65
X4.8Y-5.65
X4.9Y-5.65
X5.0Y-5.65
X5.1Y-5.65
X5.2Y-5.65
X5.3Y-5.65
X5.4Y-5.65
X5.5Y-5.65
X5.6Y-5.65
X5.7Y-5.65
X5.8Y-5.65
X5.9Y-5.65
X6.0Y-5.65
X6.1Y-5.65
X6.2Y-5.65
X6.3Y-5.65
X6.4Y-5.65
X6.5Y-5.65
X9.3Y-2.05
X9.3Y-2.15
X9.3Y-2.25
X9.3Y-2.35
X9.3Y-2.45
X7.9Y-4.78
X7.9Y-4.88
X7.9Y-4.98
X7.9Y-5.08
X7.9Y-5.18
X7.9Y-5.28
X7.9Y-5.38
X7.9Y-5.48
X5.65Y-2.05
X5.75Y-2.05
X5.85Y-2.05
X5.95Y-2.05
X4.6Y-5.8
X4.7Y-5.8
X4.8Y-5.8
X4.9Y-5.8
X5.0Y-5.8
X5.1Y-5.8
X5.2Y-5.8
X5.3Y-5.8
X5.4Y-5.8
X5.5Y-5.8
X5.6Y-5.8
X5.7Y-5.8
X5.8Y-5.8
X5.9Y-5.8
X6.0Y-5.8
X6.1Y-5.8
X6.2Y-5.8
X6.3Y-5.8
X6.4Y-5.8
X6.5Y-5.8
T4
X4.4Y-4.9
X4.5Y-4.9
X4.6Y-4.9
X6.4Y-3.6
X6.5Y-3.6
X6.6Y-3.6
X4.4Y-4.7
X4.5Y-4.7
X4.6Y-4.7
X6.4Y-4.9
X6.5Y-4.9
X6.6Y-4.9
X4.2Y-4.7
X4.2Y-4.8
X4.2Y-4.9
X5.4Y-3.6
X5.5Y-3.6
X5.6Y-3.6
X6.8Y-4.7
X6.8Y-4.8
X6.8Y-4.9
X6.8Y-3.4
X6.8Y-3.5
X6.8Y-3.6
X4.4Y-3.6
X4.5Y-3.6
X4.6Y-3.6
X6.4Y-4.7
X6.5Y-4.7
X6.6Y-4.7
X4.4Y-3.4
X4.5Y-3.4
X4.6Y-3.4
X6.4Y-3.4
X6.5Y-3.4
X6.6Y-3.4
X5.4Y-3.4
X5.5Y-3.4
X5.6Y-3.4
X5.4Y-4.9
X5.5Y-4.9
X5.6Y-4.9
X4.2Y-3.4
X4.2Y-3.5
X4.2Y-3.6
X5.4Y-4.7
X5.5Y-4.7
X5.6Y-4.7
T0
M30
