%TF.GenerationSoftware,KiCad,Pcbnew,(5.1.6)-1*%
%TF.CreationDate,2020-09-23T12:19:09+02:00*%
%TF.ProjectId,ExtendedBoardCopy,45787465-6e64-4656-9442-6f617264436f,rev?*%
%TF.SameCoordinates,Original*%
%TF.FileFunction,Legend,Top*%
%TF.FilePolarity,Positive*%
%FSLAX46Y46*%
G04 Gerber Fmt 4.6, Leading zero omitted, Abs format (unit mm)*
G04 Created by KiCad (PCBNEW (5.1.6)-1) date 2020-09-23 12:19:09*
%MOMM*%
%LPD*%
G01*
G04 APERTURE LIST*
%ADD10C,0.120000*%
%ADD11C,0.150000*%
G04 APERTURE END LIST*
D10*
%TO.C,Q5*%
X170910000Y-93940000D02*
X170910000Y-104180000D01*
X166269000Y-93940000D02*
X166269000Y-104180000D01*
X170910000Y-93940000D02*
X166269000Y-93940000D01*
X170910000Y-104180000D02*
X166269000Y-104180000D01*
X169400000Y-93940000D02*
X169400000Y-104180000D01*
X170910000Y-97210000D02*
X169400000Y-97210000D01*
X170910000Y-100911000D02*
X169400000Y-100911000D01*
%TO.C,R4*%
X165830000Y-90270000D02*
X165830000Y-87530000D01*
X165830000Y-87530000D02*
X159290000Y-87530000D01*
X159290000Y-87530000D02*
X159290000Y-90270000D01*
X159290000Y-90270000D02*
X165830000Y-90270000D01*
X166600000Y-88900000D02*
X165830000Y-88900000D01*
X158520000Y-88900000D02*
X159290000Y-88900000D01*
%TO.C,R6*%
X154210000Y-107850000D02*
X154210000Y-110590000D01*
X154210000Y-110590000D02*
X160750000Y-110590000D01*
X160750000Y-110590000D02*
X160750000Y-107850000D01*
X160750000Y-107850000D02*
X154210000Y-107850000D01*
X153440000Y-109220000D02*
X154210000Y-109220000D01*
X161520000Y-109220000D02*
X160750000Y-109220000D01*
%TO.C,C1*%
X97575000Y-96750000D02*
X97590000Y-96750000D01*
X95450000Y-96750000D02*
X95465000Y-96750000D01*
X97575000Y-101290000D02*
X97590000Y-101290000D01*
X95450000Y-101290000D02*
X95465000Y-101290000D01*
X97590000Y-101290000D02*
X97590000Y-96750000D01*
X95450000Y-101290000D02*
X95450000Y-96750000D01*
%TO.C,C2*%
X106910000Y-90370000D02*
X111450000Y-90370000D01*
X106910000Y-92510000D02*
X111450000Y-92510000D01*
X106910000Y-90370000D02*
X106910000Y-90385000D01*
X106910000Y-92495000D02*
X106910000Y-92510000D01*
X111450000Y-90370000D02*
X111450000Y-90385000D01*
X111450000Y-92495000D02*
X111450000Y-92510000D01*
%TO.C,C3*%
X132310000Y-90370000D02*
X136850000Y-90370000D01*
X132310000Y-92510000D02*
X136850000Y-92510000D01*
X132310000Y-90370000D02*
X132310000Y-90385000D01*
X132310000Y-92495000D02*
X132310000Y-92510000D01*
X136850000Y-90370000D02*
X136850000Y-90385000D01*
X136850000Y-92495000D02*
X136850000Y-92510000D01*
%TO.C,C4*%
X162330000Y-92495000D02*
X162330000Y-92510000D01*
X162330000Y-90370000D02*
X162330000Y-90385000D01*
X157790000Y-92495000D02*
X157790000Y-92510000D01*
X157790000Y-90370000D02*
X157790000Y-90385000D01*
X157790000Y-92510000D02*
X162330000Y-92510000D01*
X157790000Y-90370000D02*
X162330000Y-90370000D01*
%TO.C,C5*%
X171665000Y-101290000D02*
X171650000Y-101290000D01*
X173790000Y-101290000D02*
X173775000Y-101290000D01*
X171665000Y-96750000D02*
X171650000Y-96750000D01*
X173790000Y-96750000D02*
X173775000Y-96750000D01*
X171650000Y-96750000D02*
X171650000Y-101290000D01*
X173790000Y-96750000D02*
X173790000Y-101290000D01*
%TO.C,C6*%
X157790000Y-105625000D02*
X157790000Y-105610000D01*
X157790000Y-107750000D02*
X157790000Y-107735000D01*
X162330000Y-105625000D02*
X162330000Y-105610000D01*
X162330000Y-107750000D02*
X162330000Y-107735000D01*
X162330000Y-105610000D02*
X157790000Y-105610000D01*
X162330000Y-107750000D02*
X157790000Y-107750000D01*
%TO.C,C7*%
X136930000Y-107750000D02*
X132390000Y-107750000D01*
X136930000Y-105610000D02*
X132390000Y-105610000D01*
X136930000Y-107750000D02*
X136930000Y-107735000D01*
X136930000Y-105625000D02*
X136930000Y-105610000D01*
X132390000Y-107750000D02*
X132390000Y-107735000D01*
X132390000Y-105625000D02*
X132390000Y-105610000D01*
%TO.C,C8*%
X111530000Y-107750000D02*
X106990000Y-107750000D01*
X111530000Y-105610000D02*
X106990000Y-105610000D01*
X111530000Y-107750000D02*
X111530000Y-107735000D01*
X111530000Y-105625000D02*
X111530000Y-105610000D01*
X106990000Y-107750000D02*
X106990000Y-107735000D01*
X106990000Y-105625000D02*
X106990000Y-105610000D01*
%TO.C,C9*%
X95450000Y-131850000D02*
X95450000Y-127310000D01*
X97590000Y-131850000D02*
X97590000Y-127310000D01*
X95450000Y-131850000D02*
X95465000Y-131850000D01*
X97575000Y-131850000D02*
X97590000Y-131850000D01*
X95450000Y-127310000D02*
X95465000Y-127310000D01*
X97575000Y-127310000D02*
X97590000Y-127310000D01*
%TO.C,C10*%
X111450000Y-122975000D02*
X111450000Y-122990000D01*
X111450000Y-120850000D02*
X111450000Y-120865000D01*
X106910000Y-122975000D02*
X106910000Y-122990000D01*
X106910000Y-120850000D02*
X106910000Y-120865000D01*
X106910000Y-122990000D02*
X111450000Y-122990000D01*
X106910000Y-120850000D02*
X111450000Y-120850000D01*
%TO.C,C11*%
X106990000Y-136105000D02*
X106990000Y-136090000D01*
X106990000Y-138230000D02*
X106990000Y-138215000D01*
X111530000Y-136105000D02*
X111530000Y-136090000D01*
X111530000Y-138230000D02*
X111530000Y-138215000D01*
X111530000Y-136090000D02*
X106990000Y-136090000D01*
X111530000Y-138230000D02*
X106990000Y-138230000D01*
%TO.C,C12*%
X132310000Y-120850000D02*
X136850000Y-120850000D01*
X132310000Y-122990000D02*
X136850000Y-122990000D01*
X132310000Y-120850000D02*
X132310000Y-120865000D01*
X132310000Y-122975000D02*
X132310000Y-122990000D01*
X136850000Y-120850000D02*
X136850000Y-120865000D01*
X136850000Y-122975000D02*
X136850000Y-122990000D01*
%TO.C,C13*%
X136930000Y-138230000D02*
X132390000Y-138230000D01*
X136930000Y-136090000D02*
X132390000Y-136090000D01*
X136930000Y-138230000D02*
X136930000Y-138215000D01*
X136930000Y-136105000D02*
X136930000Y-136090000D01*
X132390000Y-138230000D02*
X132390000Y-138215000D01*
X132390000Y-136105000D02*
X132390000Y-136090000D01*
%TO.C,C14*%
X157710000Y-120850000D02*
X162250000Y-120850000D01*
X157710000Y-122990000D02*
X162250000Y-122990000D01*
X157710000Y-120850000D02*
X157710000Y-120865000D01*
X157710000Y-122975000D02*
X157710000Y-122990000D01*
X162250000Y-120850000D02*
X162250000Y-120865000D01*
X162250000Y-122975000D02*
X162250000Y-122990000D01*
%TO.C,C15*%
X171665000Y-131850000D02*
X171650000Y-131850000D01*
X173790000Y-131850000D02*
X173775000Y-131850000D01*
X171665000Y-127310000D02*
X171650000Y-127310000D01*
X173790000Y-127310000D02*
X173775000Y-127310000D01*
X171650000Y-127310000D02*
X171650000Y-131850000D01*
X173790000Y-127310000D02*
X173790000Y-131850000D01*
%TO.C,C16*%
X157790000Y-136105000D02*
X157790000Y-136090000D01*
X157790000Y-138230000D02*
X157790000Y-138215000D01*
X162330000Y-136105000D02*
X162330000Y-136090000D01*
X162330000Y-138230000D02*
X162330000Y-138215000D01*
X162330000Y-136090000D02*
X157790000Y-136090000D01*
X162330000Y-138230000D02*
X157790000Y-138230000D01*
%TO.C,J5*%
X185360000Y-118170000D02*
X188020000Y-118170000D01*
X185360000Y-95250000D02*
X185360000Y-118170000D01*
X188020000Y-95250000D02*
X188020000Y-118170000D01*
X185360000Y-95250000D02*
X188020000Y-95250000D01*
X185360000Y-93980000D02*
X185360000Y-92650000D01*
X185360000Y-92650000D02*
X186690000Y-92650000D01*
%TO.C,J6*%
X180280000Y-140522000D02*
X182940000Y-140522000D01*
X180280000Y-122682000D02*
X180280000Y-140522000D01*
X182940000Y-122682000D02*
X182940000Y-140522000D01*
X180280000Y-122682000D02*
X182940000Y-122682000D01*
X180280000Y-121412000D02*
X180280000Y-120082000D01*
X180280000Y-120082000D02*
X181610000Y-120082000D01*
%TO.C,J7*%
X180280000Y-92650000D02*
X181610000Y-92650000D01*
X180280000Y-93980000D02*
X180280000Y-92650000D01*
X180280000Y-95250000D02*
X182940000Y-95250000D01*
X182940000Y-95250000D02*
X182940000Y-118170000D01*
X180280000Y-95250000D02*
X180280000Y-118170000D01*
X180280000Y-118170000D02*
X182940000Y-118170000D01*
%TO.C,J8*%
X185360000Y-120082000D02*
X186690000Y-120082000D01*
X185360000Y-121412000D02*
X185360000Y-120082000D01*
X185360000Y-122682000D02*
X188020000Y-122682000D01*
X188020000Y-122682000D02*
X188020000Y-140522000D01*
X185360000Y-122682000D02*
X185360000Y-140522000D01*
X185360000Y-140522000D02*
X188020000Y-140522000D01*
%TO.C,J9*%
X185360000Y-67250000D02*
X186690000Y-67250000D01*
X185360000Y-68580000D02*
X185360000Y-67250000D01*
X185360000Y-69850000D02*
X188020000Y-69850000D01*
X188020000Y-69850000D02*
X188020000Y-80070000D01*
X185360000Y-69850000D02*
X185360000Y-80070000D01*
X185360000Y-80070000D02*
X188020000Y-80070000D01*
%TO.C,J11*%
X158690000Y-147260000D02*
X160020000Y-147260000D01*
X158690000Y-148590000D02*
X158690000Y-147260000D01*
X158690000Y-149860000D02*
X161350000Y-149860000D01*
X161350000Y-149860000D02*
X161350000Y-155000000D01*
X158690000Y-149860000D02*
X158690000Y-155000000D01*
X158690000Y-155000000D02*
X161350000Y-155000000D01*
%TO.C,J17*%
X126940000Y-67370000D02*
X126940000Y-66040000D01*
X128270000Y-67370000D02*
X126940000Y-67370000D01*
X129540000Y-67370000D02*
X129540000Y-64710000D01*
X129540000Y-64710000D02*
X137220000Y-64710000D01*
X129540000Y-67370000D02*
X137220000Y-67370000D01*
X137220000Y-67370000D02*
X137220000Y-64710000D01*
%TO.C,J18*%
X151190000Y-67370000D02*
X151190000Y-64710000D01*
X143510000Y-67370000D02*
X151190000Y-67370000D01*
X143510000Y-64710000D02*
X151190000Y-64710000D01*
X143510000Y-67370000D02*
X143510000Y-64710000D01*
X142240000Y-67370000D02*
X140910000Y-67370000D01*
X140910000Y-67370000D02*
X140910000Y-66040000D01*
%TO.C,J19*%
X167700000Y-67370000D02*
X167700000Y-64710000D01*
X160020000Y-67370000D02*
X167700000Y-67370000D01*
X160020000Y-64710000D02*
X167700000Y-64710000D01*
X160020000Y-67370000D02*
X160020000Y-64710000D01*
X158750000Y-67370000D02*
X157420000Y-67370000D01*
X157420000Y-67370000D02*
X157420000Y-66040000D01*
%TO.C,J20*%
X171390000Y-67370000D02*
X171390000Y-66040000D01*
X172720000Y-67370000D02*
X171390000Y-67370000D01*
X173990000Y-67370000D02*
X173990000Y-64710000D01*
X173990000Y-64710000D02*
X181670000Y-64710000D01*
X173990000Y-67370000D02*
X181670000Y-67370000D01*
X181670000Y-67370000D02*
X181670000Y-64710000D01*
%TO.C,Q1*%
X98330000Y-97209000D02*
X99840000Y-97209000D01*
X98330000Y-100910000D02*
X99840000Y-100910000D01*
X99840000Y-104180000D02*
X99840000Y-93940000D01*
X98330000Y-93940000D02*
X102971000Y-93940000D01*
X98330000Y-104180000D02*
X102971000Y-104180000D01*
X102971000Y-104180000D02*
X102971000Y-93940000D01*
X98330000Y-104180000D02*
X98330000Y-93940000D01*
%TO.C,Q2*%
X111071000Y-93250000D02*
X111071000Y-94760000D01*
X107370000Y-93250000D02*
X107370000Y-94760000D01*
X104100000Y-94760000D02*
X114340000Y-94760000D01*
X114340000Y-93250000D02*
X114340000Y-97891000D01*
X104100000Y-93250000D02*
X104100000Y-97891000D01*
X104100000Y-97891000D02*
X114340000Y-97891000D01*
X104100000Y-93250000D02*
X114340000Y-93250000D01*
%TO.C,Q3*%
X129500000Y-93250000D02*
X139740000Y-93250000D01*
X129500000Y-97891000D02*
X139740000Y-97891000D01*
X129500000Y-93250000D02*
X129500000Y-97891000D01*
X139740000Y-93250000D02*
X139740000Y-97891000D01*
X129500000Y-94760000D02*
X139740000Y-94760000D01*
X132770000Y-93250000D02*
X132770000Y-94760000D01*
X136471000Y-93250000D02*
X136471000Y-94760000D01*
%TO.C,Q4*%
X154900000Y-93250000D02*
X165140000Y-93250000D01*
X154900000Y-97891000D02*
X165140000Y-97891000D01*
X154900000Y-93250000D02*
X154900000Y-97891000D01*
X165140000Y-93250000D02*
X165140000Y-97891000D01*
X154900000Y-94760000D02*
X165140000Y-94760000D01*
X158170000Y-93250000D02*
X158170000Y-94760000D01*
X161871000Y-93250000D02*
X161871000Y-94760000D01*
%TO.C,Q6*%
X158169000Y-104870000D02*
X158169000Y-103360000D01*
X161870000Y-104870000D02*
X161870000Y-103360000D01*
X165140000Y-103360000D02*
X154900000Y-103360000D01*
X154900000Y-104870000D02*
X154900000Y-100229000D01*
X165140000Y-104870000D02*
X165140000Y-100229000D01*
X165140000Y-100229000D02*
X154900000Y-100229000D01*
X165140000Y-104870000D02*
X154900000Y-104870000D01*
%TO.C,Q7*%
X132769000Y-104870000D02*
X132769000Y-103360000D01*
X136470000Y-104870000D02*
X136470000Y-103360000D01*
X139740000Y-103360000D02*
X129500000Y-103360000D01*
X129500000Y-104870000D02*
X129500000Y-100229000D01*
X139740000Y-104870000D02*
X139740000Y-100229000D01*
X139740000Y-100229000D02*
X129500000Y-100229000D01*
X139740000Y-104870000D02*
X129500000Y-104870000D01*
%TO.C,Q8*%
X114340000Y-104870000D02*
X104100000Y-104870000D01*
X114340000Y-100229000D02*
X104100000Y-100229000D01*
X114340000Y-104870000D02*
X114340000Y-100229000D01*
X104100000Y-104870000D02*
X104100000Y-100229000D01*
X114340000Y-103360000D02*
X104100000Y-103360000D01*
X111070000Y-104870000D02*
X111070000Y-103360000D01*
X107369000Y-104870000D02*
X107369000Y-103360000D01*
%TO.C,Q9*%
X98330000Y-134660000D02*
X98330000Y-124420000D01*
X102971000Y-134660000D02*
X102971000Y-124420000D01*
X98330000Y-134660000D02*
X102971000Y-134660000D01*
X98330000Y-124420000D02*
X102971000Y-124420000D01*
X99840000Y-134660000D02*
X99840000Y-124420000D01*
X98330000Y-131390000D02*
X99840000Y-131390000D01*
X98330000Y-127689000D02*
X99840000Y-127689000D01*
%TO.C,Q10*%
X104100000Y-123730000D02*
X114340000Y-123730000D01*
X104100000Y-128371000D02*
X114340000Y-128371000D01*
X104100000Y-123730000D02*
X104100000Y-128371000D01*
X114340000Y-123730000D02*
X114340000Y-128371000D01*
X104100000Y-125240000D02*
X114340000Y-125240000D01*
X107370000Y-123730000D02*
X107370000Y-125240000D01*
X111071000Y-123730000D02*
X111071000Y-125240000D01*
%TO.C,Q11*%
X107369000Y-135350000D02*
X107369000Y-133840000D01*
X111070000Y-135350000D02*
X111070000Y-133840000D01*
X114340000Y-133840000D02*
X104100000Y-133840000D01*
X104100000Y-135350000D02*
X104100000Y-130709000D01*
X114340000Y-135350000D02*
X114340000Y-130709000D01*
X114340000Y-130709000D02*
X104100000Y-130709000D01*
X114340000Y-135350000D02*
X104100000Y-135350000D01*
%TO.C,Q12*%
X129500000Y-123730000D02*
X139740000Y-123730000D01*
X129500000Y-128371000D02*
X139740000Y-128371000D01*
X129500000Y-123730000D02*
X129500000Y-128371000D01*
X139740000Y-123730000D02*
X139740000Y-128371000D01*
X129500000Y-125240000D02*
X139740000Y-125240000D01*
X132770000Y-123730000D02*
X132770000Y-125240000D01*
X136471000Y-123730000D02*
X136471000Y-125240000D01*
%TO.C,Q13*%
X132769000Y-135350000D02*
X132769000Y-133840000D01*
X136470000Y-135350000D02*
X136470000Y-133840000D01*
X139740000Y-133840000D02*
X129500000Y-133840000D01*
X129500000Y-135350000D02*
X129500000Y-130709000D01*
X139740000Y-135350000D02*
X139740000Y-130709000D01*
X139740000Y-130709000D02*
X129500000Y-130709000D01*
X139740000Y-135350000D02*
X129500000Y-135350000D01*
%TO.C,Q14*%
X161871000Y-123730000D02*
X161871000Y-125240000D01*
X158170000Y-123730000D02*
X158170000Y-125240000D01*
X154900000Y-125240000D02*
X165140000Y-125240000D01*
X165140000Y-123730000D02*
X165140000Y-128371000D01*
X154900000Y-123730000D02*
X154900000Y-128371000D01*
X154900000Y-128371000D02*
X165140000Y-128371000D01*
X154900000Y-123730000D02*
X165140000Y-123730000D01*
%TO.C,Q15*%
X170910000Y-131391000D02*
X169400000Y-131391000D01*
X170910000Y-127690000D02*
X169400000Y-127690000D01*
X169400000Y-124420000D02*
X169400000Y-134660000D01*
X170910000Y-134660000D02*
X166269000Y-134660000D01*
X170910000Y-124420000D02*
X166269000Y-124420000D01*
X166269000Y-124420000D02*
X166269000Y-134660000D01*
X170910000Y-124420000D02*
X170910000Y-134660000D01*
%TO.C,Q16*%
X165140000Y-135350000D02*
X154900000Y-135350000D01*
X165140000Y-130709000D02*
X154900000Y-130709000D01*
X165140000Y-135350000D02*
X165140000Y-130709000D01*
X154900000Y-135350000D02*
X154900000Y-130709000D01*
X165140000Y-133840000D02*
X154900000Y-133840000D01*
X161870000Y-135350000D02*
X161870000Y-133840000D01*
X158169000Y-135350000D02*
X158169000Y-133840000D01*
%TO.C,R1*%
X93980000Y-100560000D02*
X93980000Y-99790000D01*
X93980000Y-92480000D02*
X93980000Y-93250000D01*
X95350000Y-99790000D02*
X95350000Y-93250000D01*
X92610000Y-99790000D02*
X95350000Y-99790000D01*
X92610000Y-93250000D02*
X92610000Y-99790000D01*
X95350000Y-93250000D02*
X92610000Y-93250000D01*
%TO.C,R2*%
X115030000Y-90270000D02*
X115030000Y-87530000D01*
X115030000Y-87530000D02*
X108490000Y-87530000D01*
X108490000Y-87530000D02*
X108490000Y-90270000D01*
X108490000Y-90270000D02*
X115030000Y-90270000D01*
X115800000Y-88900000D02*
X115030000Y-88900000D01*
X107720000Y-88900000D02*
X108490000Y-88900000D01*
%TO.C,R3*%
X133120000Y-88900000D02*
X133890000Y-88900000D01*
X141200000Y-88900000D02*
X140430000Y-88900000D01*
X133890000Y-90270000D02*
X140430000Y-90270000D01*
X133890000Y-87530000D02*
X133890000Y-90270000D01*
X140430000Y-87530000D02*
X133890000Y-87530000D01*
X140430000Y-90270000D02*
X140430000Y-87530000D01*
%TO.C,R5*%
X176530000Y-97560000D02*
X176530000Y-98330000D01*
X176530000Y-105640000D02*
X176530000Y-104870000D01*
X175160000Y-98330000D02*
X175160000Y-104870000D01*
X177900000Y-98330000D02*
X175160000Y-98330000D01*
X177900000Y-104870000D02*
X177900000Y-98330000D01*
X175160000Y-104870000D02*
X177900000Y-104870000D01*
%TO.C,R7*%
X136120000Y-109220000D02*
X135350000Y-109220000D01*
X128040000Y-109220000D02*
X128810000Y-109220000D01*
X135350000Y-107850000D02*
X128810000Y-107850000D01*
X135350000Y-110590000D02*
X135350000Y-107850000D01*
X128810000Y-110590000D02*
X135350000Y-110590000D01*
X128810000Y-107850000D02*
X128810000Y-110590000D01*
%TO.C,R8*%
X103410000Y-107850000D02*
X103410000Y-110590000D01*
X103410000Y-110590000D02*
X109950000Y-110590000D01*
X109950000Y-110590000D02*
X109950000Y-107850000D01*
X109950000Y-107850000D02*
X103410000Y-107850000D01*
X102640000Y-109220000D02*
X103410000Y-109220000D01*
X110720000Y-109220000D02*
X109950000Y-109220000D01*
%TO.C,R9*%
X95350000Y-123730000D02*
X92610000Y-123730000D01*
X92610000Y-123730000D02*
X92610000Y-130270000D01*
X92610000Y-130270000D02*
X95350000Y-130270000D01*
X95350000Y-130270000D02*
X95350000Y-123730000D01*
X93980000Y-122960000D02*
X93980000Y-123730000D01*
X93980000Y-131040000D02*
X93980000Y-130270000D01*
%TO.C,R10*%
X115030000Y-120750000D02*
X115030000Y-118010000D01*
X115030000Y-118010000D02*
X108490000Y-118010000D01*
X108490000Y-118010000D02*
X108490000Y-120750000D01*
X108490000Y-120750000D02*
X115030000Y-120750000D01*
X115800000Y-119380000D02*
X115030000Y-119380000D01*
X107720000Y-119380000D02*
X108490000Y-119380000D01*
%TO.C,R11*%
X116840000Y-136120000D02*
X116840000Y-135350000D01*
X116840000Y-128040000D02*
X116840000Y-128810000D01*
X118210000Y-135350000D02*
X118210000Y-128810000D01*
X115470000Y-135350000D02*
X118210000Y-135350000D01*
X115470000Y-128810000D02*
X115470000Y-135350000D01*
X118210000Y-128810000D02*
X115470000Y-128810000D01*
%TO.C,R12*%
X140430000Y-120750000D02*
X140430000Y-118010000D01*
X140430000Y-118010000D02*
X133890000Y-118010000D01*
X133890000Y-118010000D02*
X133890000Y-120750000D01*
X133890000Y-120750000D02*
X140430000Y-120750000D01*
X141200000Y-119380000D02*
X140430000Y-119380000D01*
X133120000Y-119380000D02*
X133890000Y-119380000D01*
%TO.C,R13*%
X142240000Y-136120000D02*
X142240000Y-135350000D01*
X142240000Y-128040000D02*
X142240000Y-128810000D01*
X143610000Y-135350000D02*
X143610000Y-128810000D01*
X140870000Y-135350000D02*
X143610000Y-135350000D01*
X140870000Y-128810000D02*
X140870000Y-135350000D01*
X143610000Y-128810000D02*
X140870000Y-128810000D01*
%TO.C,R14*%
X158520000Y-119380000D02*
X159290000Y-119380000D01*
X166600000Y-119380000D02*
X165830000Y-119380000D01*
X159290000Y-120750000D02*
X165830000Y-120750000D01*
X159290000Y-118010000D02*
X159290000Y-120750000D01*
X165830000Y-118010000D02*
X159290000Y-118010000D01*
X165830000Y-120750000D02*
X165830000Y-118010000D01*
%TO.C,R15*%
X175260000Y-125960000D02*
X175260000Y-125190000D01*
X175260000Y-117880000D02*
X175260000Y-118650000D01*
X176630000Y-125190000D02*
X176630000Y-118650000D01*
X173890000Y-125190000D02*
X176630000Y-125190000D01*
X173890000Y-118650000D02*
X173890000Y-125190000D01*
X176630000Y-118650000D02*
X173890000Y-118650000D01*
%TO.C,R16*%
X173450000Y-138530000D02*
X173450000Y-135790000D01*
X173450000Y-135790000D02*
X166910000Y-135790000D01*
X166910000Y-135790000D02*
X166910000Y-138530000D01*
X166910000Y-138530000D02*
X173450000Y-138530000D01*
X174220000Y-137160000D02*
X173450000Y-137160000D01*
X166140000Y-137160000D02*
X166910000Y-137160000D01*
%TO.C,J21*%
X120590000Y-69790000D02*
X121920000Y-69790000D01*
X120590000Y-71120000D02*
X120590000Y-69790000D01*
X120590000Y-72390000D02*
X123250000Y-72390000D01*
X123250000Y-72390000D02*
X123250000Y-82610000D01*
X120590000Y-72390000D02*
X120590000Y-82610000D01*
X120590000Y-82610000D02*
X123250000Y-82610000D01*
%TO.C,J22*%
X114875000Y-74990000D02*
X117535000Y-74990000D01*
X114875000Y-72390000D02*
X114875000Y-74990000D01*
X117535000Y-72390000D02*
X117535000Y-74990000D01*
X114875000Y-72390000D02*
X117535000Y-72390000D01*
X114875000Y-71120000D02*
X114875000Y-69790000D01*
X114875000Y-69790000D02*
X116205000Y-69790000D01*
%TO.C,J23*%
X125670000Y-82610000D02*
X128330000Y-82610000D01*
X125670000Y-72390000D02*
X125670000Y-82610000D01*
X128330000Y-72390000D02*
X128330000Y-82610000D01*
X125670000Y-72390000D02*
X128330000Y-72390000D01*
X125670000Y-71120000D02*
X125670000Y-69790000D01*
X125670000Y-69790000D02*
X127000000Y-69790000D01*
%TO.C,J24*%
X109160000Y-69790000D02*
X110490000Y-69790000D01*
X109160000Y-71120000D02*
X109160000Y-69790000D01*
X109160000Y-72390000D02*
X111820000Y-72390000D01*
X111820000Y-72390000D02*
X111820000Y-74990000D01*
X109160000Y-72390000D02*
X109160000Y-74990000D01*
X109160000Y-74990000D02*
X111820000Y-74990000D01*
%TO.C,J10*%
X120590000Y-156270000D02*
X120590000Y-154940000D01*
X121920000Y-156270000D02*
X120590000Y-156270000D01*
X123190000Y-156270000D02*
X123190000Y-153610000D01*
X123190000Y-153610000D02*
X138490000Y-153610000D01*
X123190000Y-156270000D02*
X138490000Y-156270000D01*
X138490000Y-156270000D02*
X138490000Y-153610000D01*
%TO.C,J16*%
X139760000Y-147260000D02*
X139760000Y-148590000D01*
X138430000Y-147260000D02*
X139760000Y-147260000D01*
X137160000Y-147260000D02*
X137160000Y-149920000D01*
X137160000Y-149920000D02*
X114240000Y-149920000D01*
X137160000Y-147260000D02*
X114240000Y-147260000D01*
X114240000Y-147260000D02*
X114240000Y-149920000D01*
%TO.C,J25*%
X167580000Y-152460000D02*
X167580000Y-151130000D01*
X168910000Y-152460000D02*
X167580000Y-152460000D01*
X167580000Y-149860000D02*
X167580000Y-147260000D01*
X170180000Y-149860000D02*
X167580000Y-149860000D01*
X170180000Y-152460000D02*
X170180000Y-149860000D01*
X167580000Y-147260000D02*
X175320000Y-147260000D01*
X170180000Y-152460000D02*
X175320000Y-152460000D01*
X175320000Y-152460000D02*
X175320000Y-147260000D01*
%TO.C,J1*%
X180400000Y-157540000D02*
X179070000Y-157540000D01*
X180400000Y-156210000D02*
X180400000Y-157540000D01*
X180400000Y-154940000D02*
X177740000Y-154940000D01*
X177740000Y-154940000D02*
X177740000Y-152340000D01*
X180400000Y-154940000D02*
X180400000Y-152340000D01*
X180400000Y-152340000D02*
X177740000Y-152340000D01*
%TO.C,DH3*%
D11*
X97798095Y-146282380D02*
X97798095Y-145282380D01*
X98036190Y-145282380D01*
X98179047Y-145330000D01*
X98274285Y-145425238D01*
X98321904Y-145520476D01*
X98369523Y-145710952D01*
X98369523Y-145853809D01*
X98321904Y-146044285D01*
X98274285Y-146139523D01*
X98179047Y-146234761D01*
X98036190Y-146282380D01*
X97798095Y-146282380D01*
X98798095Y-146282380D02*
X98798095Y-145282380D01*
X98798095Y-145758571D02*
X99369523Y-145758571D01*
X99369523Y-146282380D02*
X99369523Y-145282380D01*
X99750476Y-145282380D02*
X100369523Y-145282380D01*
X100036190Y-145663333D01*
X100179047Y-145663333D01*
X100274285Y-145710952D01*
X100321904Y-145758571D01*
X100369523Y-145853809D01*
X100369523Y-146091904D01*
X100321904Y-146187142D01*
X100274285Y-146234761D01*
X100179047Y-146282380D01*
X99893333Y-146282380D01*
X99798095Y-146234761D01*
X99750476Y-146187142D01*
%TO.C,DH1*%
X97798095Y-63732380D02*
X97798095Y-62732380D01*
X98036190Y-62732380D01*
X98179047Y-62780000D01*
X98274285Y-62875238D01*
X98321904Y-62970476D01*
X98369523Y-63160952D01*
X98369523Y-63303809D01*
X98321904Y-63494285D01*
X98274285Y-63589523D01*
X98179047Y-63684761D01*
X98036190Y-63732380D01*
X97798095Y-63732380D01*
X98798095Y-63732380D02*
X98798095Y-62732380D01*
X98798095Y-63208571D02*
X99369523Y-63208571D01*
X99369523Y-63732380D02*
X99369523Y-62732380D01*
X100369523Y-63732380D02*
X99798095Y-63732380D01*
X100083809Y-63732380D02*
X100083809Y-62732380D01*
X99988571Y-62875238D01*
X99893333Y-62970476D01*
X99798095Y-63018095D01*
%TO.C,Q5*%
X170727619Y-106775238D02*
X170680000Y-106870476D01*
X170584761Y-106965714D01*
X170441904Y-107108571D01*
X170394285Y-107203809D01*
X170394285Y-107299047D01*
X170632380Y-107251428D02*
X170584761Y-107346666D01*
X170489523Y-107441904D01*
X170299047Y-107489523D01*
X169965714Y-107489523D01*
X169775238Y-107441904D01*
X169680000Y-107346666D01*
X169632380Y-107251428D01*
X169632380Y-107060952D01*
X169680000Y-106965714D01*
X169775238Y-106870476D01*
X169965714Y-106822857D01*
X170299047Y-106822857D01*
X170489523Y-106870476D01*
X170584761Y-106965714D01*
X170632380Y-107060952D01*
X170632380Y-107251428D01*
X169632380Y-105918095D02*
X169632380Y-106394285D01*
X170108571Y-106441904D01*
X170060952Y-106394285D01*
X170013333Y-106299047D01*
X170013333Y-106060952D01*
X170060952Y-105965714D01*
X170108571Y-105918095D01*
X170203809Y-105870476D01*
X170441904Y-105870476D01*
X170537142Y-105918095D01*
X170584761Y-105965714D01*
X170632380Y-106060952D01*
X170632380Y-106299047D01*
X170584761Y-106394285D01*
X170537142Y-106441904D01*
%TO.C,R4*%
X164933333Y-86812380D02*
X164600000Y-86336190D01*
X164361904Y-86812380D02*
X164361904Y-85812380D01*
X164742857Y-85812380D01*
X164838095Y-85860000D01*
X164885714Y-85907619D01*
X164933333Y-86002857D01*
X164933333Y-86145714D01*
X164885714Y-86240952D01*
X164838095Y-86288571D01*
X164742857Y-86336190D01*
X164361904Y-86336190D01*
X165790476Y-86145714D02*
X165790476Y-86812380D01*
X165552380Y-85764761D02*
X165314285Y-86479047D01*
X165933333Y-86479047D01*
%TO.C,R6*%
X154773333Y-112212380D02*
X154440000Y-111736190D01*
X154201904Y-112212380D02*
X154201904Y-111212380D01*
X154582857Y-111212380D01*
X154678095Y-111260000D01*
X154725714Y-111307619D01*
X154773333Y-111402857D01*
X154773333Y-111545714D01*
X154725714Y-111640952D01*
X154678095Y-111688571D01*
X154582857Y-111736190D01*
X154201904Y-111736190D01*
X155630476Y-111212380D02*
X155440000Y-111212380D01*
X155344761Y-111260000D01*
X155297142Y-111307619D01*
X155201904Y-111450476D01*
X155154285Y-111640952D01*
X155154285Y-112021904D01*
X155201904Y-112117142D01*
X155249523Y-112164761D01*
X155344761Y-112212380D01*
X155535238Y-112212380D01*
X155630476Y-112164761D01*
X155678095Y-112117142D01*
X155725714Y-112021904D01*
X155725714Y-111783809D01*
X155678095Y-111688571D01*
X155630476Y-111640952D01*
X155535238Y-111593333D01*
X155344761Y-111593333D01*
X155249523Y-111640952D01*
X155201904Y-111688571D01*
X155154285Y-111783809D01*
%TO.C,C1*%
X96877142Y-91606666D02*
X96924761Y-91654285D01*
X96972380Y-91797142D01*
X96972380Y-91892380D01*
X96924761Y-92035238D01*
X96829523Y-92130476D01*
X96734285Y-92178095D01*
X96543809Y-92225714D01*
X96400952Y-92225714D01*
X96210476Y-92178095D01*
X96115238Y-92130476D01*
X96020000Y-92035238D01*
X95972380Y-91892380D01*
X95972380Y-91797142D01*
X96020000Y-91654285D01*
X96067619Y-91606666D01*
X96972380Y-90654285D02*
X96972380Y-91225714D01*
X96972380Y-90940000D02*
X95972380Y-90940000D01*
X96115238Y-91035238D01*
X96210476Y-91130476D01*
X96258095Y-91225714D01*
%TO.C,C2*%
X116673333Y-91797142D02*
X116625714Y-91844761D01*
X116482857Y-91892380D01*
X116387619Y-91892380D01*
X116244761Y-91844761D01*
X116149523Y-91749523D01*
X116101904Y-91654285D01*
X116054285Y-91463809D01*
X116054285Y-91320952D01*
X116101904Y-91130476D01*
X116149523Y-91035238D01*
X116244761Y-90940000D01*
X116387619Y-90892380D01*
X116482857Y-90892380D01*
X116625714Y-90940000D01*
X116673333Y-90987619D01*
X117054285Y-90987619D02*
X117101904Y-90940000D01*
X117197142Y-90892380D01*
X117435238Y-90892380D01*
X117530476Y-90940000D01*
X117578095Y-90987619D01*
X117625714Y-91082857D01*
X117625714Y-91178095D01*
X117578095Y-91320952D01*
X117006666Y-91892380D01*
X117625714Y-91892380D01*
%TO.C,C3*%
X126833333Y-91797142D02*
X126785714Y-91844761D01*
X126642857Y-91892380D01*
X126547619Y-91892380D01*
X126404761Y-91844761D01*
X126309523Y-91749523D01*
X126261904Y-91654285D01*
X126214285Y-91463809D01*
X126214285Y-91320952D01*
X126261904Y-91130476D01*
X126309523Y-91035238D01*
X126404761Y-90940000D01*
X126547619Y-90892380D01*
X126642857Y-90892380D01*
X126785714Y-90940000D01*
X126833333Y-90987619D01*
X127166666Y-90892380D02*
X127785714Y-90892380D01*
X127452380Y-91273333D01*
X127595238Y-91273333D01*
X127690476Y-91320952D01*
X127738095Y-91368571D01*
X127785714Y-91463809D01*
X127785714Y-91701904D01*
X127738095Y-91797142D01*
X127690476Y-91844761D01*
X127595238Y-91892380D01*
X127309523Y-91892380D01*
X127214285Y-91844761D01*
X127166666Y-91797142D01*
%TO.C,C4*%
X153503333Y-91797142D02*
X153455714Y-91844761D01*
X153312857Y-91892380D01*
X153217619Y-91892380D01*
X153074761Y-91844761D01*
X152979523Y-91749523D01*
X152931904Y-91654285D01*
X152884285Y-91463809D01*
X152884285Y-91320952D01*
X152931904Y-91130476D01*
X152979523Y-91035238D01*
X153074761Y-90940000D01*
X153217619Y-90892380D01*
X153312857Y-90892380D01*
X153455714Y-90940000D01*
X153503333Y-90987619D01*
X154360476Y-91225714D02*
X154360476Y-91892380D01*
X154122380Y-90844761D02*
X153884285Y-91559047D01*
X154503333Y-91559047D01*
%TO.C,C5*%
X170791142Y-99226666D02*
X170838761Y-99274285D01*
X170886380Y-99417142D01*
X170886380Y-99512380D01*
X170838761Y-99655238D01*
X170743523Y-99750476D01*
X170648285Y-99798095D01*
X170457809Y-99845714D01*
X170314952Y-99845714D01*
X170124476Y-99798095D01*
X170029238Y-99750476D01*
X169934000Y-99655238D01*
X169886380Y-99512380D01*
X169886380Y-99417142D01*
X169934000Y-99274285D01*
X169981619Y-99226666D01*
X169886380Y-98321904D02*
X169886380Y-98798095D01*
X170362571Y-98845714D01*
X170314952Y-98798095D01*
X170267333Y-98702857D01*
X170267333Y-98464761D01*
X170314952Y-98369523D01*
X170362571Y-98321904D01*
X170457809Y-98274285D01*
X170695904Y-98274285D01*
X170791142Y-98321904D01*
X170838761Y-98369523D01*
X170886380Y-98464761D01*
X170886380Y-98702857D01*
X170838761Y-98798095D01*
X170791142Y-98845714D01*
%TO.C,C6*%
X153503333Y-107037142D02*
X153455714Y-107084761D01*
X153312857Y-107132380D01*
X153217619Y-107132380D01*
X153074761Y-107084761D01*
X152979523Y-106989523D01*
X152931904Y-106894285D01*
X152884285Y-106703809D01*
X152884285Y-106560952D01*
X152931904Y-106370476D01*
X152979523Y-106275238D01*
X153074761Y-106180000D01*
X153217619Y-106132380D01*
X153312857Y-106132380D01*
X153455714Y-106180000D01*
X153503333Y-106227619D01*
X154360476Y-106132380D02*
X154170000Y-106132380D01*
X154074761Y-106180000D01*
X154027142Y-106227619D01*
X153931904Y-106370476D01*
X153884285Y-106560952D01*
X153884285Y-106941904D01*
X153931904Y-107037142D01*
X153979523Y-107084761D01*
X154074761Y-107132380D01*
X154265238Y-107132380D01*
X154360476Y-107084761D01*
X154408095Y-107037142D01*
X154455714Y-106941904D01*
X154455714Y-106703809D01*
X154408095Y-106608571D01*
X154360476Y-106560952D01*
X154265238Y-106513333D01*
X154074761Y-106513333D01*
X153979523Y-106560952D01*
X153931904Y-106608571D01*
X153884285Y-106703809D01*
%TO.C,C7*%
X126833333Y-107037142D02*
X126785714Y-107084761D01*
X126642857Y-107132380D01*
X126547619Y-107132380D01*
X126404761Y-107084761D01*
X126309523Y-106989523D01*
X126261904Y-106894285D01*
X126214285Y-106703809D01*
X126214285Y-106560952D01*
X126261904Y-106370476D01*
X126309523Y-106275238D01*
X126404761Y-106180000D01*
X126547619Y-106132380D01*
X126642857Y-106132380D01*
X126785714Y-106180000D01*
X126833333Y-106227619D01*
X127166666Y-106132380D02*
X127833333Y-106132380D01*
X127404761Y-107132380D01*
%TO.C,C8*%
X116673333Y-107037142D02*
X116625714Y-107084761D01*
X116482857Y-107132380D01*
X116387619Y-107132380D01*
X116244761Y-107084761D01*
X116149523Y-106989523D01*
X116101904Y-106894285D01*
X116054285Y-106703809D01*
X116054285Y-106560952D01*
X116101904Y-106370476D01*
X116149523Y-106275238D01*
X116244761Y-106180000D01*
X116387619Y-106132380D01*
X116482857Y-106132380D01*
X116625714Y-106180000D01*
X116673333Y-106227619D01*
X117244761Y-106560952D02*
X117149523Y-106513333D01*
X117101904Y-106465714D01*
X117054285Y-106370476D01*
X117054285Y-106322857D01*
X117101904Y-106227619D01*
X117149523Y-106180000D01*
X117244761Y-106132380D01*
X117435238Y-106132380D01*
X117530476Y-106180000D01*
X117578095Y-106227619D01*
X117625714Y-106322857D01*
X117625714Y-106370476D01*
X117578095Y-106465714D01*
X117530476Y-106513333D01*
X117435238Y-106560952D01*
X117244761Y-106560952D01*
X117149523Y-106608571D01*
X117101904Y-106656190D01*
X117054285Y-106751428D01*
X117054285Y-106941904D01*
X117101904Y-107037142D01*
X117149523Y-107084761D01*
X117244761Y-107132380D01*
X117435238Y-107132380D01*
X117530476Y-107084761D01*
X117578095Y-107037142D01*
X117625714Y-106941904D01*
X117625714Y-106751428D01*
X117578095Y-106656190D01*
X117530476Y-106608571D01*
X117435238Y-106560952D01*
%TO.C,C9*%
X96877142Y-122086666D02*
X96924761Y-122134285D01*
X96972380Y-122277142D01*
X96972380Y-122372380D01*
X96924761Y-122515238D01*
X96829523Y-122610476D01*
X96734285Y-122658095D01*
X96543809Y-122705714D01*
X96400952Y-122705714D01*
X96210476Y-122658095D01*
X96115238Y-122610476D01*
X96020000Y-122515238D01*
X95972380Y-122372380D01*
X95972380Y-122277142D01*
X96020000Y-122134285D01*
X96067619Y-122086666D01*
X96972380Y-121610476D02*
X96972380Y-121420000D01*
X96924761Y-121324761D01*
X96877142Y-121277142D01*
X96734285Y-121181904D01*
X96543809Y-121134285D01*
X96162857Y-121134285D01*
X96067619Y-121181904D01*
X96020000Y-121229523D01*
X95972380Y-121324761D01*
X95972380Y-121515238D01*
X96020000Y-121610476D01*
X96067619Y-121658095D01*
X96162857Y-121705714D01*
X96400952Y-121705714D01*
X96496190Y-121658095D01*
X96543809Y-121610476D01*
X96591428Y-121515238D01*
X96591428Y-121324761D01*
X96543809Y-121229523D01*
X96496190Y-121181904D01*
X96400952Y-121134285D01*
%TO.C,C10*%
X116197142Y-122277142D02*
X116149523Y-122324761D01*
X116006666Y-122372380D01*
X115911428Y-122372380D01*
X115768571Y-122324761D01*
X115673333Y-122229523D01*
X115625714Y-122134285D01*
X115578095Y-121943809D01*
X115578095Y-121800952D01*
X115625714Y-121610476D01*
X115673333Y-121515238D01*
X115768571Y-121420000D01*
X115911428Y-121372380D01*
X116006666Y-121372380D01*
X116149523Y-121420000D01*
X116197142Y-121467619D01*
X117149523Y-122372380D02*
X116578095Y-122372380D01*
X116863809Y-122372380D02*
X116863809Y-121372380D01*
X116768571Y-121515238D01*
X116673333Y-121610476D01*
X116578095Y-121658095D01*
X117768571Y-121372380D02*
X117863809Y-121372380D01*
X117959047Y-121420000D01*
X118006666Y-121467619D01*
X118054285Y-121562857D01*
X118101904Y-121753333D01*
X118101904Y-121991428D01*
X118054285Y-122181904D01*
X118006666Y-122277142D01*
X117959047Y-122324761D01*
X117863809Y-122372380D01*
X117768571Y-122372380D01*
X117673333Y-122324761D01*
X117625714Y-122277142D01*
X117578095Y-122181904D01*
X117530476Y-121991428D01*
X117530476Y-121753333D01*
X117578095Y-121562857D01*
X117625714Y-121467619D01*
X117673333Y-121420000D01*
X117768571Y-121372380D01*
%TO.C,C11*%
X116197142Y-137517142D02*
X116149523Y-137564761D01*
X116006666Y-137612380D01*
X115911428Y-137612380D01*
X115768571Y-137564761D01*
X115673333Y-137469523D01*
X115625714Y-137374285D01*
X115578095Y-137183809D01*
X115578095Y-137040952D01*
X115625714Y-136850476D01*
X115673333Y-136755238D01*
X115768571Y-136660000D01*
X115911428Y-136612380D01*
X116006666Y-136612380D01*
X116149523Y-136660000D01*
X116197142Y-136707619D01*
X117149523Y-137612380D02*
X116578095Y-137612380D01*
X116863809Y-137612380D02*
X116863809Y-136612380D01*
X116768571Y-136755238D01*
X116673333Y-136850476D01*
X116578095Y-136898095D01*
X118101904Y-137612380D02*
X117530476Y-137612380D01*
X117816190Y-137612380D02*
X117816190Y-136612380D01*
X117720952Y-136755238D01*
X117625714Y-136850476D01*
X117530476Y-136898095D01*
%TO.C,C12*%
X141597142Y-122277142D02*
X141549523Y-122324761D01*
X141406666Y-122372380D01*
X141311428Y-122372380D01*
X141168571Y-122324761D01*
X141073333Y-122229523D01*
X141025714Y-122134285D01*
X140978095Y-121943809D01*
X140978095Y-121800952D01*
X141025714Y-121610476D01*
X141073333Y-121515238D01*
X141168571Y-121420000D01*
X141311428Y-121372380D01*
X141406666Y-121372380D01*
X141549523Y-121420000D01*
X141597142Y-121467619D01*
X142549523Y-122372380D02*
X141978095Y-122372380D01*
X142263809Y-122372380D02*
X142263809Y-121372380D01*
X142168571Y-121515238D01*
X142073333Y-121610476D01*
X141978095Y-121658095D01*
X142930476Y-121467619D02*
X142978095Y-121420000D01*
X143073333Y-121372380D01*
X143311428Y-121372380D01*
X143406666Y-121420000D01*
X143454285Y-121467619D01*
X143501904Y-121562857D01*
X143501904Y-121658095D01*
X143454285Y-121800952D01*
X142882857Y-122372380D01*
X143501904Y-122372380D01*
%TO.C,C13*%
X126357142Y-137517142D02*
X126309523Y-137564761D01*
X126166666Y-137612380D01*
X126071428Y-137612380D01*
X125928571Y-137564761D01*
X125833333Y-137469523D01*
X125785714Y-137374285D01*
X125738095Y-137183809D01*
X125738095Y-137040952D01*
X125785714Y-136850476D01*
X125833333Y-136755238D01*
X125928571Y-136660000D01*
X126071428Y-136612380D01*
X126166666Y-136612380D01*
X126309523Y-136660000D01*
X126357142Y-136707619D01*
X127309523Y-137612380D02*
X126738095Y-137612380D01*
X127023809Y-137612380D02*
X127023809Y-136612380D01*
X126928571Y-136755238D01*
X126833333Y-136850476D01*
X126738095Y-136898095D01*
X127642857Y-136612380D02*
X128261904Y-136612380D01*
X127928571Y-136993333D01*
X128071428Y-136993333D01*
X128166666Y-137040952D01*
X128214285Y-137088571D01*
X128261904Y-137183809D01*
X128261904Y-137421904D01*
X128214285Y-137517142D01*
X128166666Y-137564761D01*
X128071428Y-137612380D01*
X127785714Y-137612380D01*
X127690476Y-137564761D01*
X127642857Y-137517142D01*
%TO.C,C14*%
X151757142Y-122277142D02*
X151709523Y-122324761D01*
X151566666Y-122372380D01*
X151471428Y-122372380D01*
X151328571Y-122324761D01*
X151233333Y-122229523D01*
X151185714Y-122134285D01*
X151138095Y-121943809D01*
X151138095Y-121800952D01*
X151185714Y-121610476D01*
X151233333Y-121515238D01*
X151328571Y-121420000D01*
X151471428Y-121372380D01*
X151566666Y-121372380D01*
X151709523Y-121420000D01*
X151757142Y-121467619D01*
X152709523Y-122372380D02*
X152138095Y-122372380D01*
X152423809Y-122372380D02*
X152423809Y-121372380D01*
X152328571Y-121515238D01*
X152233333Y-121610476D01*
X152138095Y-121658095D01*
X153566666Y-121705714D02*
X153566666Y-122372380D01*
X153328571Y-121324761D02*
X153090476Y-122039047D01*
X153709523Y-122039047D01*
%TO.C,C15*%
X173077142Y-122562857D02*
X173124761Y-122610476D01*
X173172380Y-122753333D01*
X173172380Y-122848571D01*
X173124761Y-122991428D01*
X173029523Y-123086666D01*
X172934285Y-123134285D01*
X172743809Y-123181904D01*
X172600952Y-123181904D01*
X172410476Y-123134285D01*
X172315238Y-123086666D01*
X172220000Y-122991428D01*
X172172380Y-122848571D01*
X172172380Y-122753333D01*
X172220000Y-122610476D01*
X172267619Y-122562857D01*
X173172380Y-121610476D02*
X173172380Y-122181904D01*
X173172380Y-121896190D02*
X172172380Y-121896190D01*
X172315238Y-121991428D01*
X172410476Y-122086666D01*
X172458095Y-122181904D01*
X172172380Y-120705714D02*
X172172380Y-121181904D01*
X172648571Y-121229523D01*
X172600952Y-121181904D01*
X172553333Y-121086666D01*
X172553333Y-120848571D01*
X172600952Y-120753333D01*
X172648571Y-120705714D01*
X172743809Y-120658095D01*
X172981904Y-120658095D01*
X173077142Y-120705714D01*
X173124761Y-120753333D01*
X173172380Y-120848571D01*
X173172380Y-121086666D01*
X173124761Y-121181904D01*
X173077142Y-121229523D01*
%TO.C,C16*%
X151757142Y-137517142D02*
X151709523Y-137564761D01*
X151566666Y-137612380D01*
X151471428Y-137612380D01*
X151328571Y-137564761D01*
X151233333Y-137469523D01*
X151185714Y-137374285D01*
X151138095Y-137183809D01*
X151138095Y-137040952D01*
X151185714Y-136850476D01*
X151233333Y-136755238D01*
X151328571Y-136660000D01*
X151471428Y-136612380D01*
X151566666Y-136612380D01*
X151709523Y-136660000D01*
X151757142Y-136707619D01*
X152709523Y-137612380D02*
X152138095Y-137612380D01*
X152423809Y-137612380D02*
X152423809Y-136612380D01*
X152328571Y-136755238D01*
X152233333Y-136850476D01*
X152138095Y-136898095D01*
X153566666Y-136612380D02*
X153376190Y-136612380D01*
X153280952Y-136660000D01*
X153233333Y-136707619D01*
X153138095Y-136850476D01*
X153090476Y-137040952D01*
X153090476Y-137421904D01*
X153138095Y-137517142D01*
X153185714Y-137564761D01*
X153280952Y-137612380D01*
X153471428Y-137612380D01*
X153566666Y-137564761D01*
X153614285Y-137517142D01*
X153661904Y-137421904D01*
X153661904Y-137183809D01*
X153614285Y-137088571D01*
X153566666Y-137040952D01*
X153471428Y-136993333D01*
X153280952Y-136993333D01*
X153185714Y-137040952D01*
X153138095Y-137088571D01*
X153090476Y-137183809D01*
%TO.C,J5*%
X186356666Y-90892380D02*
X186356666Y-91606666D01*
X186309047Y-91749523D01*
X186213809Y-91844761D01*
X186070952Y-91892380D01*
X185975714Y-91892380D01*
X187309047Y-90892380D02*
X186832857Y-90892380D01*
X186785238Y-91368571D01*
X186832857Y-91320952D01*
X186928095Y-91273333D01*
X187166190Y-91273333D01*
X187261428Y-91320952D01*
X187309047Y-91368571D01*
X187356666Y-91463809D01*
X187356666Y-91701904D01*
X187309047Y-91797142D01*
X187261428Y-91844761D01*
X187166190Y-91892380D01*
X186928095Y-91892380D01*
X186832857Y-91844761D01*
X186785238Y-91797142D01*
%TO.C,J6*%
X181276666Y-118832380D02*
X181276666Y-119546666D01*
X181229047Y-119689523D01*
X181133809Y-119784761D01*
X180990952Y-119832380D01*
X180895714Y-119832380D01*
X182181428Y-118832380D02*
X181990952Y-118832380D01*
X181895714Y-118880000D01*
X181848095Y-118927619D01*
X181752857Y-119070476D01*
X181705238Y-119260952D01*
X181705238Y-119641904D01*
X181752857Y-119737142D01*
X181800476Y-119784761D01*
X181895714Y-119832380D01*
X182086190Y-119832380D01*
X182181428Y-119784761D01*
X182229047Y-119737142D01*
X182276666Y-119641904D01*
X182276666Y-119403809D01*
X182229047Y-119308571D01*
X182181428Y-119260952D01*
X182086190Y-119213333D01*
X181895714Y-119213333D01*
X181800476Y-119260952D01*
X181752857Y-119308571D01*
X181705238Y-119403809D01*
%TO.C,J7*%
X181276666Y-90892380D02*
X181276666Y-91606666D01*
X181229047Y-91749523D01*
X181133809Y-91844761D01*
X180990952Y-91892380D01*
X180895714Y-91892380D01*
X181657619Y-90892380D02*
X182324285Y-90892380D01*
X181895714Y-91892380D01*
%TO.C,J8*%
X186356666Y-118832380D02*
X186356666Y-119546666D01*
X186309047Y-119689523D01*
X186213809Y-119784761D01*
X186070952Y-119832380D01*
X185975714Y-119832380D01*
X186975714Y-119260952D02*
X186880476Y-119213333D01*
X186832857Y-119165714D01*
X186785238Y-119070476D01*
X186785238Y-119022857D01*
X186832857Y-118927619D01*
X186880476Y-118880000D01*
X186975714Y-118832380D01*
X187166190Y-118832380D01*
X187261428Y-118880000D01*
X187309047Y-118927619D01*
X187356666Y-119022857D01*
X187356666Y-119070476D01*
X187309047Y-119165714D01*
X187261428Y-119213333D01*
X187166190Y-119260952D01*
X186975714Y-119260952D01*
X186880476Y-119308571D01*
X186832857Y-119356190D01*
X186785238Y-119451428D01*
X186785238Y-119641904D01*
X186832857Y-119737142D01*
X186880476Y-119784761D01*
X186975714Y-119832380D01*
X187166190Y-119832380D01*
X187261428Y-119784761D01*
X187309047Y-119737142D01*
X187356666Y-119641904D01*
X187356666Y-119451428D01*
X187309047Y-119356190D01*
X187261428Y-119308571D01*
X187166190Y-119260952D01*
%TO.C,J9*%
X186356666Y-65702380D02*
X186356666Y-66416666D01*
X186309047Y-66559523D01*
X186213809Y-66654761D01*
X186070952Y-66702380D01*
X185975714Y-66702380D01*
X186880476Y-66702380D02*
X187070952Y-66702380D01*
X187166190Y-66654761D01*
X187213809Y-66607142D01*
X187309047Y-66464285D01*
X187356666Y-66273809D01*
X187356666Y-65892857D01*
X187309047Y-65797619D01*
X187261428Y-65750000D01*
X187166190Y-65702380D01*
X186975714Y-65702380D01*
X186880476Y-65750000D01*
X186832857Y-65797619D01*
X186785238Y-65892857D01*
X186785238Y-66130952D01*
X186832857Y-66226190D01*
X186880476Y-66273809D01*
X186975714Y-66321428D01*
X187166190Y-66321428D01*
X187261428Y-66273809D01*
X187309047Y-66226190D01*
X187356666Y-66130952D01*
%TO.C,J11*%
X159210476Y-145712380D02*
X159210476Y-146426666D01*
X159162857Y-146569523D01*
X159067619Y-146664761D01*
X158924761Y-146712380D01*
X158829523Y-146712380D01*
X160210476Y-146712380D02*
X159639047Y-146712380D01*
X159924761Y-146712380D02*
X159924761Y-145712380D01*
X159829523Y-145855238D01*
X159734285Y-145950476D01*
X159639047Y-145998095D01*
X161162857Y-146712380D02*
X160591428Y-146712380D01*
X160877142Y-146712380D02*
X160877142Y-145712380D01*
X160781904Y-145855238D01*
X160686666Y-145950476D01*
X160591428Y-145998095D01*
%TO.C,J17*%
X125392380Y-66849523D02*
X126106666Y-66849523D01*
X126249523Y-66897142D01*
X126344761Y-66992380D01*
X126392380Y-67135238D01*
X126392380Y-67230476D01*
X126392380Y-65849523D02*
X126392380Y-66420952D01*
X126392380Y-66135238D02*
X125392380Y-66135238D01*
X125535238Y-66230476D01*
X125630476Y-66325714D01*
X125678095Y-66420952D01*
X125392380Y-65516190D02*
X125392380Y-64849523D01*
X126392380Y-65278095D01*
%TO.C,J18*%
X139362380Y-66849523D02*
X140076666Y-66849523D01*
X140219523Y-66897142D01*
X140314761Y-66992380D01*
X140362380Y-67135238D01*
X140362380Y-67230476D01*
X140362380Y-65849523D02*
X140362380Y-66420952D01*
X140362380Y-66135238D02*
X139362380Y-66135238D01*
X139505238Y-66230476D01*
X139600476Y-66325714D01*
X139648095Y-66420952D01*
X139790952Y-65278095D02*
X139743333Y-65373333D01*
X139695714Y-65420952D01*
X139600476Y-65468571D01*
X139552857Y-65468571D01*
X139457619Y-65420952D01*
X139410000Y-65373333D01*
X139362380Y-65278095D01*
X139362380Y-65087619D01*
X139410000Y-64992380D01*
X139457619Y-64944761D01*
X139552857Y-64897142D01*
X139600476Y-64897142D01*
X139695714Y-64944761D01*
X139743333Y-64992380D01*
X139790952Y-65087619D01*
X139790952Y-65278095D01*
X139838571Y-65373333D01*
X139886190Y-65420952D01*
X139981428Y-65468571D01*
X140171904Y-65468571D01*
X140267142Y-65420952D01*
X140314761Y-65373333D01*
X140362380Y-65278095D01*
X140362380Y-65087619D01*
X140314761Y-64992380D01*
X140267142Y-64944761D01*
X140171904Y-64897142D01*
X139981428Y-64897142D01*
X139886190Y-64944761D01*
X139838571Y-64992380D01*
X139790952Y-65087619D01*
%TO.C,J19*%
X155872380Y-66849523D02*
X156586666Y-66849523D01*
X156729523Y-66897142D01*
X156824761Y-66992380D01*
X156872380Y-67135238D01*
X156872380Y-67230476D01*
X156872380Y-65849523D02*
X156872380Y-66420952D01*
X156872380Y-66135238D02*
X155872380Y-66135238D01*
X156015238Y-66230476D01*
X156110476Y-66325714D01*
X156158095Y-66420952D01*
X156872380Y-65373333D02*
X156872380Y-65182857D01*
X156824761Y-65087619D01*
X156777142Y-65040000D01*
X156634285Y-64944761D01*
X156443809Y-64897142D01*
X156062857Y-64897142D01*
X155967619Y-64944761D01*
X155920000Y-64992380D01*
X155872380Y-65087619D01*
X155872380Y-65278095D01*
X155920000Y-65373333D01*
X155967619Y-65420952D01*
X156062857Y-65468571D01*
X156300952Y-65468571D01*
X156396190Y-65420952D01*
X156443809Y-65373333D01*
X156491428Y-65278095D01*
X156491428Y-65087619D01*
X156443809Y-64992380D01*
X156396190Y-64944761D01*
X156300952Y-64897142D01*
%TO.C,J20*%
X169842380Y-66849523D02*
X170556666Y-66849523D01*
X170699523Y-66897142D01*
X170794761Y-66992380D01*
X170842380Y-67135238D01*
X170842380Y-67230476D01*
X169937619Y-66420952D02*
X169890000Y-66373333D01*
X169842380Y-66278095D01*
X169842380Y-66040000D01*
X169890000Y-65944761D01*
X169937619Y-65897142D01*
X170032857Y-65849523D01*
X170128095Y-65849523D01*
X170270952Y-65897142D01*
X170842380Y-66468571D01*
X170842380Y-65849523D01*
X169842380Y-65230476D02*
X169842380Y-65135238D01*
X169890000Y-65040000D01*
X169937619Y-64992380D01*
X170032857Y-64944761D01*
X170223333Y-64897142D01*
X170461428Y-64897142D01*
X170651904Y-64944761D01*
X170747142Y-64992380D01*
X170794761Y-65040000D01*
X170842380Y-65135238D01*
X170842380Y-65230476D01*
X170794761Y-65325714D01*
X170747142Y-65373333D01*
X170651904Y-65420952D01*
X170461428Y-65468571D01*
X170223333Y-65468571D01*
X170032857Y-65420952D01*
X169937619Y-65373333D01*
X169890000Y-65325714D01*
X169842380Y-65230476D01*
%TO.C,Q1*%
X99607619Y-91535238D02*
X99560000Y-91630476D01*
X99464761Y-91725714D01*
X99321904Y-91868571D01*
X99274285Y-91963809D01*
X99274285Y-92059047D01*
X99512380Y-92011428D02*
X99464761Y-92106666D01*
X99369523Y-92201904D01*
X99179047Y-92249523D01*
X98845714Y-92249523D01*
X98655238Y-92201904D01*
X98560000Y-92106666D01*
X98512380Y-92011428D01*
X98512380Y-91820952D01*
X98560000Y-91725714D01*
X98655238Y-91630476D01*
X98845714Y-91582857D01*
X99179047Y-91582857D01*
X99369523Y-91630476D01*
X99464761Y-91725714D01*
X99512380Y-91820952D01*
X99512380Y-92011428D01*
X99512380Y-90630476D02*
X99512380Y-91201904D01*
X99512380Y-90916190D02*
X98512380Y-90916190D01*
X98655238Y-91011428D01*
X98750476Y-91106666D01*
X98798095Y-91201904D01*
%TO.C,Q2*%
X116744761Y-94527619D02*
X116649523Y-94480000D01*
X116554285Y-94384761D01*
X116411428Y-94241904D01*
X116316190Y-94194285D01*
X116220952Y-94194285D01*
X116268571Y-94432380D02*
X116173333Y-94384761D01*
X116078095Y-94289523D01*
X116030476Y-94099047D01*
X116030476Y-93765714D01*
X116078095Y-93575238D01*
X116173333Y-93480000D01*
X116268571Y-93432380D01*
X116459047Y-93432380D01*
X116554285Y-93480000D01*
X116649523Y-93575238D01*
X116697142Y-93765714D01*
X116697142Y-94099047D01*
X116649523Y-94289523D01*
X116554285Y-94384761D01*
X116459047Y-94432380D01*
X116268571Y-94432380D01*
X117078095Y-93527619D02*
X117125714Y-93480000D01*
X117220952Y-93432380D01*
X117459047Y-93432380D01*
X117554285Y-93480000D01*
X117601904Y-93527619D01*
X117649523Y-93622857D01*
X117649523Y-93718095D01*
X117601904Y-93860952D01*
X117030476Y-94432380D01*
X117649523Y-94432380D01*
%TO.C,Q3*%
X126904761Y-94527619D02*
X126809523Y-94480000D01*
X126714285Y-94384761D01*
X126571428Y-94241904D01*
X126476190Y-94194285D01*
X126380952Y-94194285D01*
X126428571Y-94432380D02*
X126333333Y-94384761D01*
X126238095Y-94289523D01*
X126190476Y-94099047D01*
X126190476Y-93765714D01*
X126238095Y-93575238D01*
X126333333Y-93480000D01*
X126428571Y-93432380D01*
X126619047Y-93432380D01*
X126714285Y-93480000D01*
X126809523Y-93575238D01*
X126857142Y-93765714D01*
X126857142Y-94099047D01*
X126809523Y-94289523D01*
X126714285Y-94384761D01*
X126619047Y-94432380D01*
X126428571Y-94432380D01*
X127190476Y-93432380D02*
X127809523Y-93432380D01*
X127476190Y-93813333D01*
X127619047Y-93813333D01*
X127714285Y-93860952D01*
X127761904Y-93908571D01*
X127809523Y-94003809D01*
X127809523Y-94241904D01*
X127761904Y-94337142D01*
X127714285Y-94384761D01*
X127619047Y-94432380D01*
X127333333Y-94432380D01*
X127238095Y-94384761D01*
X127190476Y-94337142D01*
%TO.C,Q4*%
X153574761Y-94527619D02*
X153479523Y-94480000D01*
X153384285Y-94384761D01*
X153241428Y-94241904D01*
X153146190Y-94194285D01*
X153050952Y-94194285D01*
X153098571Y-94432380D02*
X153003333Y-94384761D01*
X152908095Y-94289523D01*
X152860476Y-94099047D01*
X152860476Y-93765714D01*
X152908095Y-93575238D01*
X153003333Y-93480000D01*
X153098571Y-93432380D01*
X153289047Y-93432380D01*
X153384285Y-93480000D01*
X153479523Y-93575238D01*
X153527142Y-93765714D01*
X153527142Y-94099047D01*
X153479523Y-94289523D01*
X153384285Y-94384761D01*
X153289047Y-94432380D01*
X153098571Y-94432380D01*
X154384285Y-93765714D02*
X154384285Y-94432380D01*
X154146190Y-93384761D02*
X153908095Y-94099047D01*
X154527142Y-94099047D01*
%TO.C,Q6*%
X153574761Y-104687619D02*
X153479523Y-104640000D01*
X153384285Y-104544761D01*
X153241428Y-104401904D01*
X153146190Y-104354285D01*
X153050952Y-104354285D01*
X153098571Y-104592380D02*
X153003333Y-104544761D01*
X152908095Y-104449523D01*
X152860476Y-104259047D01*
X152860476Y-103925714D01*
X152908095Y-103735238D01*
X153003333Y-103640000D01*
X153098571Y-103592380D01*
X153289047Y-103592380D01*
X153384285Y-103640000D01*
X153479523Y-103735238D01*
X153527142Y-103925714D01*
X153527142Y-104259047D01*
X153479523Y-104449523D01*
X153384285Y-104544761D01*
X153289047Y-104592380D01*
X153098571Y-104592380D01*
X154384285Y-103592380D02*
X154193809Y-103592380D01*
X154098571Y-103640000D01*
X154050952Y-103687619D01*
X153955714Y-103830476D01*
X153908095Y-104020952D01*
X153908095Y-104401904D01*
X153955714Y-104497142D01*
X154003333Y-104544761D01*
X154098571Y-104592380D01*
X154289047Y-104592380D01*
X154384285Y-104544761D01*
X154431904Y-104497142D01*
X154479523Y-104401904D01*
X154479523Y-104163809D01*
X154431904Y-104068571D01*
X154384285Y-104020952D01*
X154289047Y-103973333D01*
X154098571Y-103973333D01*
X154003333Y-104020952D01*
X153955714Y-104068571D01*
X153908095Y-104163809D01*
%TO.C,Q7*%
X126904761Y-104687619D02*
X126809523Y-104640000D01*
X126714285Y-104544761D01*
X126571428Y-104401904D01*
X126476190Y-104354285D01*
X126380952Y-104354285D01*
X126428571Y-104592380D02*
X126333333Y-104544761D01*
X126238095Y-104449523D01*
X126190476Y-104259047D01*
X126190476Y-103925714D01*
X126238095Y-103735238D01*
X126333333Y-103640000D01*
X126428571Y-103592380D01*
X126619047Y-103592380D01*
X126714285Y-103640000D01*
X126809523Y-103735238D01*
X126857142Y-103925714D01*
X126857142Y-104259047D01*
X126809523Y-104449523D01*
X126714285Y-104544761D01*
X126619047Y-104592380D01*
X126428571Y-104592380D01*
X127190476Y-103592380D02*
X127857142Y-103592380D01*
X127428571Y-104592380D01*
%TO.C,Q8*%
X116744761Y-104687619D02*
X116649523Y-104640000D01*
X116554285Y-104544761D01*
X116411428Y-104401904D01*
X116316190Y-104354285D01*
X116220952Y-104354285D01*
X116268571Y-104592380D02*
X116173333Y-104544761D01*
X116078095Y-104449523D01*
X116030476Y-104259047D01*
X116030476Y-103925714D01*
X116078095Y-103735238D01*
X116173333Y-103640000D01*
X116268571Y-103592380D01*
X116459047Y-103592380D01*
X116554285Y-103640000D01*
X116649523Y-103735238D01*
X116697142Y-103925714D01*
X116697142Y-104259047D01*
X116649523Y-104449523D01*
X116554285Y-104544761D01*
X116459047Y-104592380D01*
X116268571Y-104592380D01*
X117268571Y-104020952D02*
X117173333Y-103973333D01*
X117125714Y-103925714D01*
X117078095Y-103830476D01*
X117078095Y-103782857D01*
X117125714Y-103687619D01*
X117173333Y-103640000D01*
X117268571Y-103592380D01*
X117459047Y-103592380D01*
X117554285Y-103640000D01*
X117601904Y-103687619D01*
X117649523Y-103782857D01*
X117649523Y-103830476D01*
X117601904Y-103925714D01*
X117554285Y-103973333D01*
X117459047Y-104020952D01*
X117268571Y-104020952D01*
X117173333Y-104068571D01*
X117125714Y-104116190D01*
X117078095Y-104211428D01*
X117078095Y-104401904D01*
X117125714Y-104497142D01*
X117173333Y-104544761D01*
X117268571Y-104592380D01*
X117459047Y-104592380D01*
X117554285Y-104544761D01*
X117601904Y-104497142D01*
X117649523Y-104401904D01*
X117649523Y-104211428D01*
X117601904Y-104116190D01*
X117554285Y-104068571D01*
X117459047Y-104020952D01*
%TO.C,Q9*%
X99607619Y-122015238D02*
X99560000Y-122110476D01*
X99464761Y-122205714D01*
X99321904Y-122348571D01*
X99274285Y-122443809D01*
X99274285Y-122539047D01*
X99512380Y-122491428D02*
X99464761Y-122586666D01*
X99369523Y-122681904D01*
X99179047Y-122729523D01*
X98845714Y-122729523D01*
X98655238Y-122681904D01*
X98560000Y-122586666D01*
X98512380Y-122491428D01*
X98512380Y-122300952D01*
X98560000Y-122205714D01*
X98655238Y-122110476D01*
X98845714Y-122062857D01*
X99179047Y-122062857D01*
X99369523Y-122110476D01*
X99464761Y-122205714D01*
X99512380Y-122300952D01*
X99512380Y-122491428D01*
X99512380Y-121586666D02*
X99512380Y-121396190D01*
X99464761Y-121300952D01*
X99417142Y-121253333D01*
X99274285Y-121158095D01*
X99083809Y-121110476D01*
X98702857Y-121110476D01*
X98607619Y-121158095D01*
X98560000Y-121205714D01*
X98512380Y-121300952D01*
X98512380Y-121491428D01*
X98560000Y-121586666D01*
X98607619Y-121634285D01*
X98702857Y-121681904D01*
X98940952Y-121681904D01*
X99036190Y-121634285D01*
X99083809Y-121586666D01*
X99131428Y-121491428D01*
X99131428Y-121300952D01*
X99083809Y-121205714D01*
X99036190Y-121158095D01*
X98940952Y-121110476D01*
%TO.C,Q10*%
X116268571Y-125007619D02*
X116173333Y-124960000D01*
X116078095Y-124864761D01*
X115935238Y-124721904D01*
X115840000Y-124674285D01*
X115744761Y-124674285D01*
X115792380Y-124912380D02*
X115697142Y-124864761D01*
X115601904Y-124769523D01*
X115554285Y-124579047D01*
X115554285Y-124245714D01*
X115601904Y-124055238D01*
X115697142Y-123960000D01*
X115792380Y-123912380D01*
X115982857Y-123912380D01*
X116078095Y-123960000D01*
X116173333Y-124055238D01*
X116220952Y-124245714D01*
X116220952Y-124579047D01*
X116173333Y-124769523D01*
X116078095Y-124864761D01*
X115982857Y-124912380D01*
X115792380Y-124912380D01*
X117173333Y-124912380D02*
X116601904Y-124912380D01*
X116887619Y-124912380D02*
X116887619Y-123912380D01*
X116792380Y-124055238D01*
X116697142Y-124150476D01*
X116601904Y-124198095D01*
X117792380Y-123912380D02*
X117887619Y-123912380D01*
X117982857Y-123960000D01*
X118030476Y-124007619D01*
X118078095Y-124102857D01*
X118125714Y-124293333D01*
X118125714Y-124531428D01*
X118078095Y-124721904D01*
X118030476Y-124817142D01*
X117982857Y-124864761D01*
X117887619Y-124912380D01*
X117792380Y-124912380D01*
X117697142Y-124864761D01*
X117649523Y-124817142D01*
X117601904Y-124721904D01*
X117554285Y-124531428D01*
X117554285Y-124293333D01*
X117601904Y-124102857D01*
X117649523Y-124007619D01*
X117697142Y-123960000D01*
X117792380Y-123912380D01*
%TO.C,Q11*%
X116268571Y-135167619D02*
X116173333Y-135120000D01*
X116078095Y-135024761D01*
X115935238Y-134881904D01*
X115840000Y-134834285D01*
X115744761Y-134834285D01*
X115792380Y-135072380D02*
X115697142Y-135024761D01*
X115601904Y-134929523D01*
X115554285Y-134739047D01*
X115554285Y-134405714D01*
X115601904Y-134215238D01*
X115697142Y-134120000D01*
X115792380Y-134072380D01*
X115982857Y-134072380D01*
X116078095Y-134120000D01*
X116173333Y-134215238D01*
X116220952Y-134405714D01*
X116220952Y-134739047D01*
X116173333Y-134929523D01*
X116078095Y-135024761D01*
X115982857Y-135072380D01*
X115792380Y-135072380D01*
X117173333Y-135072380D02*
X116601904Y-135072380D01*
X116887619Y-135072380D02*
X116887619Y-134072380D01*
X116792380Y-134215238D01*
X116697142Y-134310476D01*
X116601904Y-134358095D01*
X118125714Y-135072380D02*
X117554285Y-135072380D01*
X117840000Y-135072380D02*
X117840000Y-134072380D01*
X117744761Y-134215238D01*
X117649523Y-134310476D01*
X117554285Y-134358095D01*
%TO.C,Q12*%
X141668571Y-125007619D02*
X141573333Y-124960000D01*
X141478095Y-124864761D01*
X141335238Y-124721904D01*
X141240000Y-124674285D01*
X141144761Y-124674285D01*
X141192380Y-124912380D02*
X141097142Y-124864761D01*
X141001904Y-124769523D01*
X140954285Y-124579047D01*
X140954285Y-124245714D01*
X141001904Y-124055238D01*
X141097142Y-123960000D01*
X141192380Y-123912380D01*
X141382857Y-123912380D01*
X141478095Y-123960000D01*
X141573333Y-124055238D01*
X141620952Y-124245714D01*
X141620952Y-124579047D01*
X141573333Y-124769523D01*
X141478095Y-124864761D01*
X141382857Y-124912380D01*
X141192380Y-124912380D01*
X142573333Y-124912380D02*
X142001904Y-124912380D01*
X142287619Y-124912380D02*
X142287619Y-123912380D01*
X142192380Y-124055238D01*
X142097142Y-124150476D01*
X142001904Y-124198095D01*
X142954285Y-124007619D02*
X143001904Y-123960000D01*
X143097142Y-123912380D01*
X143335238Y-123912380D01*
X143430476Y-123960000D01*
X143478095Y-124007619D01*
X143525714Y-124102857D01*
X143525714Y-124198095D01*
X143478095Y-124340952D01*
X142906666Y-124912380D01*
X143525714Y-124912380D01*
%TO.C,Q13*%
X126428571Y-135167619D02*
X126333333Y-135120000D01*
X126238095Y-135024761D01*
X126095238Y-134881904D01*
X126000000Y-134834285D01*
X125904761Y-134834285D01*
X125952380Y-135072380D02*
X125857142Y-135024761D01*
X125761904Y-134929523D01*
X125714285Y-134739047D01*
X125714285Y-134405714D01*
X125761904Y-134215238D01*
X125857142Y-134120000D01*
X125952380Y-134072380D01*
X126142857Y-134072380D01*
X126238095Y-134120000D01*
X126333333Y-134215238D01*
X126380952Y-134405714D01*
X126380952Y-134739047D01*
X126333333Y-134929523D01*
X126238095Y-135024761D01*
X126142857Y-135072380D01*
X125952380Y-135072380D01*
X127333333Y-135072380D02*
X126761904Y-135072380D01*
X127047619Y-135072380D02*
X127047619Y-134072380D01*
X126952380Y-134215238D01*
X126857142Y-134310476D01*
X126761904Y-134358095D01*
X127666666Y-134072380D02*
X128285714Y-134072380D01*
X127952380Y-134453333D01*
X128095238Y-134453333D01*
X128190476Y-134500952D01*
X128238095Y-134548571D01*
X128285714Y-134643809D01*
X128285714Y-134881904D01*
X128238095Y-134977142D01*
X128190476Y-135024761D01*
X128095238Y-135072380D01*
X127809523Y-135072380D01*
X127714285Y-135024761D01*
X127666666Y-134977142D01*
%TO.C,Q14*%
X151828571Y-125007619D02*
X151733333Y-124960000D01*
X151638095Y-124864761D01*
X151495238Y-124721904D01*
X151400000Y-124674285D01*
X151304761Y-124674285D01*
X151352380Y-124912380D02*
X151257142Y-124864761D01*
X151161904Y-124769523D01*
X151114285Y-124579047D01*
X151114285Y-124245714D01*
X151161904Y-124055238D01*
X151257142Y-123960000D01*
X151352380Y-123912380D01*
X151542857Y-123912380D01*
X151638095Y-123960000D01*
X151733333Y-124055238D01*
X151780952Y-124245714D01*
X151780952Y-124579047D01*
X151733333Y-124769523D01*
X151638095Y-124864761D01*
X151542857Y-124912380D01*
X151352380Y-124912380D01*
X152733333Y-124912380D02*
X152161904Y-124912380D01*
X152447619Y-124912380D02*
X152447619Y-123912380D01*
X152352380Y-124055238D01*
X152257142Y-124150476D01*
X152161904Y-124198095D01*
X153590476Y-124245714D02*
X153590476Y-124912380D01*
X153352380Y-123864761D02*
X153114285Y-124579047D01*
X153733333Y-124579047D01*
%TO.C,Q15*%
X170727619Y-122491428D02*
X170680000Y-122586666D01*
X170584761Y-122681904D01*
X170441904Y-122824761D01*
X170394285Y-122920000D01*
X170394285Y-123015238D01*
X170632380Y-122967619D02*
X170584761Y-123062857D01*
X170489523Y-123158095D01*
X170299047Y-123205714D01*
X169965714Y-123205714D01*
X169775238Y-123158095D01*
X169680000Y-123062857D01*
X169632380Y-122967619D01*
X169632380Y-122777142D01*
X169680000Y-122681904D01*
X169775238Y-122586666D01*
X169965714Y-122539047D01*
X170299047Y-122539047D01*
X170489523Y-122586666D01*
X170584761Y-122681904D01*
X170632380Y-122777142D01*
X170632380Y-122967619D01*
X170632380Y-121586666D02*
X170632380Y-122158095D01*
X170632380Y-121872380D02*
X169632380Y-121872380D01*
X169775238Y-121967619D01*
X169870476Y-122062857D01*
X169918095Y-122158095D01*
X169632380Y-120681904D02*
X169632380Y-121158095D01*
X170108571Y-121205714D01*
X170060952Y-121158095D01*
X170013333Y-121062857D01*
X170013333Y-120824761D01*
X170060952Y-120729523D01*
X170108571Y-120681904D01*
X170203809Y-120634285D01*
X170441904Y-120634285D01*
X170537142Y-120681904D01*
X170584761Y-120729523D01*
X170632380Y-120824761D01*
X170632380Y-121062857D01*
X170584761Y-121158095D01*
X170537142Y-121205714D01*
%TO.C,Q16*%
X151828571Y-135167619D02*
X151733333Y-135120000D01*
X151638095Y-135024761D01*
X151495238Y-134881904D01*
X151400000Y-134834285D01*
X151304761Y-134834285D01*
X151352380Y-135072380D02*
X151257142Y-135024761D01*
X151161904Y-134929523D01*
X151114285Y-134739047D01*
X151114285Y-134405714D01*
X151161904Y-134215238D01*
X151257142Y-134120000D01*
X151352380Y-134072380D01*
X151542857Y-134072380D01*
X151638095Y-134120000D01*
X151733333Y-134215238D01*
X151780952Y-134405714D01*
X151780952Y-134739047D01*
X151733333Y-134929523D01*
X151638095Y-135024761D01*
X151542857Y-135072380D01*
X151352380Y-135072380D01*
X152733333Y-135072380D02*
X152161904Y-135072380D01*
X152447619Y-135072380D02*
X152447619Y-134072380D01*
X152352380Y-134215238D01*
X152257142Y-134310476D01*
X152161904Y-134358095D01*
X153590476Y-134072380D02*
X153400000Y-134072380D01*
X153304761Y-134120000D01*
X153257142Y-134167619D01*
X153161904Y-134310476D01*
X153114285Y-134500952D01*
X153114285Y-134881904D01*
X153161904Y-134977142D01*
X153209523Y-135024761D01*
X153304761Y-135072380D01*
X153495238Y-135072380D01*
X153590476Y-135024761D01*
X153638095Y-134977142D01*
X153685714Y-134881904D01*
X153685714Y-134643809D01*
X153638095Y-134548571D01*
X153590476Y-134500952D01*
X153495238Y-134453333D01*
X153304761Y-134453333D01*
X153209523Y-134500952D01*
X153161904Y-134548571D01*
X153114285Y-134643809D01*
%TO.C,R1*%
X91892380Y-99226666D02*
X91416190Y-99560000D01*
X91892380Y-99798095D02*
X90892380Y-99798095D01*
X90892380Y-99417142D01*
X90940000Y-99321904D01*
X90987619Y-99274285D01*
X91082857Y-99226666D01*
X91225714Y-99226666D01*
X91320952Y-99274285D01*
X91368571Y-99321904D01*
X91416190Y-99417142D01*
X91416190Y-99798095D01*
X91892380Y-98274285D02*
X91892380Y-98845714D01*
X91892380Y-98560000D02*
X90892380Y-98560000D01*
X91035238Y-98655238D01*
X91130476Y-98750476D01*
X91178095Y-98845714D01*
%TO.C,R2*%
X111593333Y-91722380D02*
X111260000Y-91246190D01*
X111021904Y-91722380D02*
X111021904Y-90722380D01*
X111402857Y-90722380D01*
X111498095Y-90770000D01*
X111545714Y-90817619D01*
X111593333Y-90912857D01*
X111593333Y-91055714D01*
X111545714Y-91150952D01*
X111498095Y-91198571D01*
X111402857Y-91246190D01*
X111021904Y-91246190D01*
X111974285Y-90817619D02*
X112021904Y-90770000D01*
X112117142Y-90722380D01*
X112355238Y-90722380D01*
X112450476Y-90770000D01*
X112498095Y-90817619D01*
X112545714Y-90912857D01*
X112545714Y-91008095D01*
X112498095Y-91150952D01*
X111926666Y-91722380D01*
X112545714Y-91722380D01*
%TO.C,R3*%
X136993333Y-91722380D02*
X136660000Y-91246190D01*
X136421904Y-91722380D02*
X136421904Y-90722380D01*
X136802857Y-90722380D01*
X136898095Y-90770000D01*
X136945714Y-90817619D01*
X136993333Y-90912857D01*
X136993333Y-91055714D01*
X136945714Y-91150952D01*
X136898095Y-91198571D01*
X136802857Y-91246190D01*
X136421904Y-91246190D01*
X137326666Y-90722380D02*
X137945714Y-90722380D01*
X137612380Y-91103333D01*
X137755238Y-91103333D01*
X137850476Y-91150952D01*
X137898095Y-91198571D01*
X137945714Y-91293809D01*
X137945714Y-91531904D01*
X137898095Y-91627142D01*
X137850476Y-91674761D01*
X137755238Y-91722380D01*
X137469523Y-91722380D01*
X137374285Y-91674761D01*
X137326666Y-91627142D01*
%TO.C,R5*%
X174612380Y-104306666D02*
X174136190Y-104640000D01*
X174612380Y-104878095D02*
X173612380Y-104878095D01*
X173612380Y-104497142D01*
X173660000Y-104401904D01*
X173707619Y-104354285D01*
X173802857Y-104306666D01*
X173945714Y-104306666D01*
X174040952Y-104354285D01*
X174088571Y-104401904D01*
X174136190Y-104497142D01*
X174136190Y-104878095D01*
X173612380Y-103401904D02*
X173612380Y-103878095D01*
X174088571Y-103925714D01*
X174040952Y-103878095D01*
X173993333Y-103782857D01*
X173993333Y-103544761D01*
X174040952Y-103449523D01*
X174088571Y-103401904D01*
X174183809Y-103354285D01*
X174421904Y-103354285D01*
X174517142Y-103401904D01*
X174564761Y-103449523D01*
X174612380Y-103544761D01*
X174612380Y-103782857D01*
X174564761Y-103878095D01*
X174517142Y-103925714D01*
%TO.C,R7*%
X129373333Y-112212380D02*
X129040000Y-111736190D01*
X128801904Y-112212380D02*
X128801904Y-111212380D01*
X129182857Y-111212380D01*
X129278095Y-111260000D01*
X129325714Y-111307619D01*
X129373333Y-111402857D01*
X129373333Y-111545714D01*
X129325714Y-111640952D01*
X129278095Y-111688571D01*
X129182857Y-111736190D01*
X128801904Y-111736190D01*
X129706666Y-111212380D02*
X130373333Y-111212380D01*
X129944761Y-112212380D01*
%TO.C,R8*%
X103973333Y-112212380D02*
X103640000Y-111736190D01*
X103401904Y-112212380D02*
X103401904Y-111212380D01*
X103782857Y-111212380D01*
X103878095Y-111260000D01*
X103925714Y-111307619D01*
X103973333Y-111402857D01*
X103973333Y-111545714D01*
X103925714Y-111640952D01*
X103878095Y-111688571D01*
X103782857Y-111736190D01*
X103401904Y-111736190D01*
X104544761Y-111640952D02*
X104449523Y-111593333D01*
X104401904Y-111545714D01*
X104354285Y-111450476D01*
X104354285Y-111402857D01*
X104401904Y-111307619D01*
X104449523Y-111260000D01*
X104544761Y-111212380D01*
X104735238Y-111212380D01*
X104830476Y-111260000D01*
X104878095Y-111307619D01*
X104925714Y-111402857D01*
X104925714Y-111450476D01*
X104878095Y-111545714D01*
X104830476Y-111593333D01*
X104735238Y-111640952D01*
X104544761Y-111640952D01*
X104449523Y-111688571D01*
X104401904Y-111736190D01*
X104354285Y-111831428D01*
X104354285Y-112021904D01*
X104401904Y-112117142D01*
X104449523Y-112164761D01*
X104544761Y-112212380D01*
X104735238Y-112212380D01*
X104830476Y-112164761D01*
X104878095Y-112117142D01*
X104925714Y-112021904D01*
X104925714Y-111831428D01*
X104878095Y-111736190D01*
X104830476Y-111688571D01*
X104735238Y-111640952D01*
%TO.C,R9*%
X91892380Y-129706666D02*
X91416190Y-130040000D01*
X91892380Y-130278095D02*
X90892380Y-130278095D01*
X90892380Y-129897142D01*
X90940000Y-129801904D01*
X90987619Y-129754285D01*
X91082857Y-129706666D01*
X91225714Y-129706666D01*
X91320952Y-129754285D01*
X91368571Y-129801904D01*
X91416190Y-129897142D01*
X91416190Y-130278095D01*
X91892380Y-129230476D02*
X91892380Y-129040000D01*
X91844761Y-128944761D01*
X91797142Y-128897142D01*
X91654285Y-128801904D01*
X91463809Y-128754285D01*
X91082857Y-128754285D01*
X90987619Y-128801904D01*
X90940000Y-128849523D01*
X90892380Y-128944761D01*
X90892380Y-129135238D01*
X90940000Y-129230476D01*
X90987619Y-129278095D01*
X91082857Y-129325714D01*
X91320952Y-129325714D01*
X91416190Y-129278095D01*
X91463809Y-129230476D01*
X91511428Y-129135238D01*
X91511428Y-128944761D01*
X91463809Y-128849523D01*
X91416190Y-128801904D01*
X91320952Y-128754285D01*
%TO.C,R10*%
X108577142Y-117292380D02*
X108243809Y-116816190D01*
X108005714Y-117292380D02*
X108005714Y-116292380D01*
X108386666Y-116292380D01*
X108481904Y-116340000D01*
X108529523Y-116387619D01*
X108577142Y-116482857D01*
X108577142Y-116625714D01*
X108529523Y-116720952D01*
X108481904Y-116768571D01*
X108386666Y-116816190D01*
X108005714Y-116816190D01*
X109529523Y-117292380D02*
X108958095Y-117292380D01*
X109243809Y-117292380D02*
X109243809Y-116292380D01*
X109148571Y-116435238D01*
X109053333Y-116530476D01*
X108958095Y-116578095D01*
X110148571Y-116292380D02*
X110243809Y-116292380D01*
X110339047Y-116340000D01*
X110386666Y-116387619D01*
X110434285Y-116482857D01*
X110481904Y-116673333D01*
X110481904Y-116911428D01*
X110434285Y-117101904D01*
X110386666Y-117197142D01*
X110339047Y-117244761D01*
X110243809Y-117292380D01*
X110148571Y-117292380D01*
X110053333Y-117244761D01*
X110005714Y-117197142D01*
X109958095Y-117101904D01*
X109910476Y-116911428D01*
X109910476Y-116673333D01*
X109958095Y-116482857D01*
X110005714Y-116387619D01*
X110053333Y-116340000D01*
X110148571Y-116292380D01*
%TO.C,R11*%
X119662380Y-132722857D02*
X119186190Y-133056190D01*
X119662380Y-133294285D02*
X118662380Y-133294285D01*
X118662380Y-132913333D01*
X118710000Y-132818095D01*
X118757619Y-132770476D01*
X118852857Y-132722857D01*
X118995714Y-132722857D01*
X119090952Y-132770476D01*
X119138571Y-132818095D01*
X119186190Y-132913333D01*
X119186190Y-133294285D01*
X119662380Y-131770476D02*
X119662380Y-132341904D01*
X119662380Y-132056190D02*
X118662380Y-132056190D01*
X118805238Y-132151428D01*
X118900476Y-132246666D01*
X118948095Y-132341904D01*
X119662380Y-130818095D02*
X119662380Y-131389523D01*
X119662380Y-131103809D02*
X118662380Y-131103809D01*
X118805238Y-131199047D01*
X118900476Y-131294285D01*
X118948095Y-131389523D01*
%TO.C,R12*%
X133977142Y-117292380D02*
X133643809Y-116816190D01*
X133405714Y-117292380D02*
X133405714Y-116292380D01*
X133786666Y-116292380D01*
X133881904Y-116340000D01*
X133929523Y-116387619D01*
X133977142Y-116482857D01*
X133977142Y-116625714D01*
X133929523Y-116720952D01*
X133881904Y-116768571D01*
X133786666Y-116816190D01*
X133405714Y-116816190D01*
X134929523Y-117292380D02*
X134358095Y-117292380D01*
X134643809Y-117292380D02*
X134643809Y-116292380D01*
X134548571Y-116435238D01*
X134453333Y-116530476D01*
X134358095Y-116578095D01*
X135310476Y-116387619D02*
X135358095Y-116340000D01*
X135453333Y-116292380D01*
X135691428Y-116292380D01*
X135786666Y-116340000D01*
X135834285Y-116387619D01*
X135881904Y-116482857D01*
X135881904Y-116578095D01*
X135834285Y-116720952D01*
X135262857Y-117292380D01*
X135881904Y-117292380D01*
%TO.C,R13*%
X145062380Y-132722857D02*
X144586190Y-133056190D01*
X145062380Y-133294285D02*
X144062380Y-133294285D01*
X144062380Y-132913333D01*
X144110000Y-132818095D01*
X144157619Y-132770476D01*
X144252857Y-132722857D01*
X144395714Y-132722857D01*
X144490952Y-132770476D01*
X144538571Y-132818095D01*
X144586190Y-132913333D01*
X144586190Y-133294285D01*
X145062380Y-131770476D02*
X145062380Y-132341904D01*
X145062380Y-132056190D02*
X144062380Y-132056190D01*
X144205238Y-132151428D01*
X144300476Y-132246666D01*
X144348095Y-132341904D01*
X144062380Y-131437142D02*
X144062380Y-130818095D01*
X144443333Y-131151428D01*
X144443333Y-131008571D01*
X144490952Y-130913333D01*
X144538571Y-130865714D01*
X144633809Y-130818095D01*
X144871904Y-130818095D01*
X144967142Y-130865714D01*
X145014761Y-130913333D01*
X145062380Y-131008571D01*
X145062380Y-131294285D01*
X145014761Y-131389523D01*
X144967142Y-131437142D01*
%TO.C,R14*%
X159377142Y-117292380D02*
X159043809Y-116816190D01*
X158805714Y-117292380D02*
X158805714Y-116292380D01*
X159186666Y-116292380D01*
X159281904Y-116340000D01*
X159329523Y-116387619D01*
X159377142Y-116482857D01*
X159377142Y-116625714D01*
X159329523Y-116720952D01*
X159281904Y-116768571D01*
X159186666Y-116816190D01*
X158805714Y-116816190D01*
X160329523Y-117292380D02*
X159758095Y-117292380D01*
X160043809Y-117292380D02*
X160043809Y-116292380D01*
X159948571Y-116435238D01*
X159853333Y-116530476D01*
X159758095Y-116578095D01*
X161186666Y-116625714D02*
X161186666Y-117292380D01*
X160948571Y-116244761D02*
X160710476Y-116959047D01*
X161329523Y-116959047D01*
%TO.C,R15*%
X178082380Y-122562857D02*
X177606190Y-122896190D01*
X178082380Y-123134285D02*
X177082380Y-123134285D01*
X177082380Y-122753333D01*
X177130000Y-122658095D01*
X177177619Y-122610476D01*
X177272857Y-122562857D01*
X177415714Y-122562857D01*
X177510952Y-122610476D01*
X177558571Y-122658095D01*
X177606190Y-122753333D01*
X177606190Y-123134285D01*
X178082380Y-121610476D02*
X178082380Y-122181904D01*
X178082380Y-121896190D02*
X177082380Y-121896190D01*
X177225238Y-121991428D01*
X177320476Y-122086666D01*
X177368095Y-122181904D01*
X177082380Y-120705714D02*
X177082380Y-121181904D01*
X177558571Y-121229523D01*
X177510952Y-121181904D01*
X177463333Y-121086666D01*
X177463333Y-120848571D01*
X177510952Y-120753333D01*
X177558571Y-120705714D01*
X177653809Y-120658095D01*
X177891904Y-120658095D01*
X177987142Y-120705714D01*
X178034761Y-120753333D01*
X178082380Y-120848571D01*
X178082380Y-121086666D01*
X178034761Y-121181904D01*
X177987142Y-121229523D01*
%TO.C,R16*%
X169537142Y-139982380D02*
X169203809Y-139506190D01*
X168965714Y-139982380D02*
X168965714Y-138982380D01*
X169346666Y-138982380D01*
X169441904Y-139030000D01*
X169489523Y-139077619D01*
X169537142Y-139172857D01*
X169537142Y-139315714D01*
X169489523Y-139410952D01*
X169441904Y-139458571D01*
X169346666Y-139506190D01*
X168965714Y-139506190D01*
X170489523Y-139982380D02*
X169918095Y-139982380D01*
X170203809Y-139982380D02*
X170203809Y-138982380D01*
X170108571Y-139125238D01*
X170013333Y-139220476D01*
X169918095Y-139268095D01*
X171346666Y-138982380D02*
X171156190Y-138982380D01*
X171060952Y-139030000D01*
X171013333Y-139077619D01*
X170918095Y-139220476D01*
X170870476Y-139410952D01*
X170870476Y-139791904D01*
X170918095Y-139887142D01*
X170965714Y-139934761D01*
X171060952Y-139982380D01*
X171251428Y-139982380D01*
X171346666Y-139934761D01*
X171394285Y-139887142D01*
X171441904Y-139791904D01*
X171441904Y-139553809D01*
X171394285Y-139458571D01*
X171346666Y-139410952D01*
X171251428Y-139363333D01*
X171060952Y-139363333D01*
X170965714Y-139410952D01*
X170918095Y-139458571D01*
X170870476Y-139553809D01*
%TO.C,J21*%
X121110476Y-68242380D02*
X121110476Y-68956666D01*
X121062857Y-69099523D01*
X120967619Y-69194761D01*
X120824761Y-69242380D01*
X120729523Y-69242380D01*
X121539047Y-68337619D02*
X121586666Y-68290000D01*
X121681904Y-68242380D01*
X121920000Y-68242380D01*
X122015238Y-68290000D01*
X122062857Y-68337619D01*
X122110476Y-68432857D01*
X122110476Y-68528095D01*
X122062857Y-68670952D01*
X121491428Y-69242380D01*
X122110476Y-69242380D01*
X123062857Y-69242380D02*
X122491428Y-69242380D01*
X122777142Y-69242380D02*
X122777142Y-68242380D01*
X122681904Y-68385238D01*
X122586666Y-68480476D01*
X122491428Y-68528095D01*
%TO.C,J22*%
X115395476Y-68242380D02*
X115395476Y-68956666D01*
X115347857Y-69099523D01*
X115252619Y-69194761D01*
X115109761Y-69242380D01*
X115014523Y-69242380D01*
X115824047Y-68337619D02*
X115871666Y-68290000D01*
X115966904Y-68242380D01*
X116205000Y-68242380D01*
X116300238Y-68290000D01*
X116347857Y-68337619D01*
X116395476Y-68432857D01*
X116395476Y-68528095D01*
X116347857Y-68670952D01*
X115776428Y-69242380D01*
X116395476Y-69242380D01*
X116776428Y-68337619D02*
X116824047Y-68290000D01*
X116919285Y-68242380D01*
X117157380Y-68242380D01*
X117252619Y-68290000D01*
X117300238Y-68337619D01*
X117347857Y-68432857D01*
X117347857Y-68528095D01*
X117300238Y-68670952D01*
X116728809Y-69242380D01*
X117347857Y-69242380D01*
%TO.C,J23*%
X126190476Y-68242380D02*
X126190476Y-68956666D01*
X126142857Y-69099523D01*
X126047619Y-69194761D01*
X125904761Y-69242380D01*
X125809523Y-69242380D01*
X126619047Y-68337619D02*
X126666666Y-68290000D01*
X126761904Y-68242380D01*
X127000000Y-68242380D01*
X127095238Y-68290000D01*
X127142857Y-68337619D01*
X127190476Y-68432857D01*
X127190476Y-68528095D01*
X127142857Y-68670952D01*
X126571428Y-69242380D01*
X127190476Y-69242380D01*
X127523809Y-68242380D02*
X128142857Y-68242380D01*
X127809523Y-68623333D01*
X127952380Y-68623333D01*
X128047619Y-68670952D01*
X128095238Y-68718571D01*
X128142857Y-68813809D01*
X128142857Y-69051904D01*
X128095238Y-69147142D01*
X128047619Y-69194761D01*
X127952380Y-69242380D01*
X127666666Y-69242380D01*
X127571428Y-69194761D01*
X127523809Y-69147142D01*
%TO.C,J24*%
X109680476Y-68242380D02*
X109680476Y-68956666D01*
X109632857Y-69099523D01*
X109537619Y-69194761D01*
X109394761Y-69242380D01*
X109299523Y-69242380D01*
X110109047Y-68337619D02*
X110156666Y-68290000D01*
X110251904Y-68242380D01*
X110490000Y-68242380D01*
X110585238Y-68290000D01*
X110632857Y-68337619D01*
X110680476Y-68432857D01*
X110680476Y-68528095D01*
X110632857Y-68670952D01*
X110061428Y-69242380D01*
X110680476Y-69242380D01*
X111537619Y-68575714D02*
X111537619Y-69242380D01*
X111299523Y-68194761D02*
X111061428Y-68909047D01*
X111680476Y-68909047D01*
%TO.C,J10*%
X119042380Y-155749523D02*
X119756666Y-155749523D01*
X119899523Y-155797142D01*
X119994761Y-155892380D01*
X120042380Y-156035238D01*
X120042380Y-156130476D01*
X120042380Y-154749523D02*
X120042380Y-155320952D01*
X120042380Y-155035238D02*
X119042380Y-155035238D01*
X119185238Y-155130476D01*
X119280476Y-155225714D01*
X119328095Y-155320952D01*
X119042380Y-154130476D02*
X119042380Y-154035238D01*
X119090000Y-153940000D01*
X119137619Y-153892380D01*
X119232857Y-153844761D01*
X119423333Y-153797142D01*
X119661428Y-153797142D01*
X119851904Y-153844761D01*
X119947142Y-153892380D01*
X119994761Y-153940000D01*
X120042380Y-154035238D01*
X120042380Y-154130476D01*
X119994761Y-154225714D01*
X119947142Y-154273333D01*
X119851904Y-154320952D01*
X119661428Y-154368571D01*
X119423333Y-154368571D01*
X119232857Y-154320952D01*
X119137619Y-154273333D01*
X119090000Y-154225714D01*
X119042380Y-154130476D01*
%TO.C,J16*%
X140212380Y-149399523D02*
X140926666Y-149399523D01*
X141069523Y-149447142D01*
X141164761Y-149542380D01*
X141212380Y-149685238D01*
X141212380Y-149780476D01*
X141212380Y-148399523D02*
X141212380Y-148970952D01*
X141212380Y-148685238D02*
X140212380Y-148685238D01*
X140355238Y-148780476D01*
X140450476Y-148875714D01*
X140498095Y-148970952D01*
X140212380Y-147542380D02*
X140212380Y-147732857D01*
X140260000Y-147828095D01*
X140307619Y-147875714D01*
X140450476Y-147970952D01*
X140640952Y-148018571D01*
X141021904Y-148018571D01*
X141117142Y-147970952D01*
X141164761Y-147923333D01*
X141212380Y-147828095D01*
X141212380Y-147637619D01*
X141164761Y-147542380D01*
X141117142Y-147494761D01*
X141021904Y-147447142D01*
X140783809Y-147447142D01*
X140688571Y-147494761D01*
X140640952Y-147542380D01*
X140593333Y-147637619D01*
X140593333Y-147828095D01*
X140640952Y-147923333D01*
X140688571Y-147970952D01*
X140783809Y-148018571D01*
%TO.C,J25*%
X166032380Y-150669523D02*
X166746666Y-150669523D01*
X166889523Y-150717142D01*
X166984761Y-150812380D01*
X167032380Y-150955238D01*
X167032380Y-151050476D01*
X166127619Y-150240952D02*
X166080000Y-150193333D01*
X166032380Y-150098095D01*
X166032380Y-149860000D01*
X166080000Y-149764761D01*
X166127619Y-149717142D01*
X166222857Y-149669523D01*
X166318095Y-149669523D01*
X166460952Y-149717142D01*
X167032380Y-150288571D01*
X167032380Y-149669523D01*
X166032380Y-148764761D02*
X166032380Y-149240952D01*
X166508571Y-149288571D01*
X166460952Y-149240952D01*
X166413333Y-149145714D01*
X166413333Y-148907619D01*
X166460952Y-148812380D01*
X166508571Y-148764761D01*
X166603809Y-148717142D01*
X166841904Y-148717142D01*
X166937142Y-148764761D01*
X166984761Y-148812380D01*
X167032380Y-148907619D01*
X167032380Y-149145714D01*
X166984761Y-149240952D01*
X166937142Y-149288571D01*
%TO.C,J1*%
X178736666Y-157992380D02*
X178736666Y-158706666D01*
X178689047Y-158849523D01*
X178593809Y-158944761D01*
X178450952Y-158992380D01*
X178355714Y-158992380D01*
X179736666Y-158992380D02*
X179165238Y-158992380D01*
X179450952Y-158992380D02*
X179450952Y-157992380D01*
X179355714Y-158135238D01*
X179260476Y-158230476D01*
X179165238Y-158278095D01*
%TD*%
M02*
