%TF.GenerationSoftware,KiCad,Pcbnew,(5.1.6)-1*%
%TF.CreationDate,2020-09-23T12:19:09+02:00*%
%TF.ProjectId,ExtendedBoardCopy,45787465-6e64-4656-9442-6f617264436f,rev?*%
%TF.SameCoordinates,Original*%
%TF.FileFunction,Copper,L2,Bot*%
%TF.FilePolarity,Positive*%
%FSLAX46Y46*%
G04 Gerber Fmt 4.6, Leading zero omitted, Abs format (unit mm)*
G04 Created by KiCad (PCBNEW (5.1.6)-1) date 2020-09-23 12:19:09*
%MOMM*%
%LPD*%
G01*
G04 APERTURE LIST*
%TA.AperFunction,ComponentPad*%
%ADD10O,2.000000X1.905000*%
%TD*%
%TA.AperFunction,ComponentPad*%
%ADD11R,2.000000X1.905000*%
%TD*%
%TA.AperFunction,ComponentPad*%
%ADD12O,1.600000X1.600000*%
%TD*%
%TA.AperFunction,ComponentPad*%
%ADD13C,1.600000*%
%TD*%
%TA.AperFunction,ComponentPad*%
%ADD14O,1.700000X1.700000*%
%TD*%
%TA.AperFunction,ComponentPad*%
%ADD15R,1.700000X1.700000*%
%TD*%
%TA.AperFunction,ComponentPad*%
%ADD16R,1.905000X2.000000*%
%TD*%
%TA.AperFunction,ComponentPad*%
%ADD17O,1.905000X2.000000*%
%TD*%
G04 APERTURE END LIST*
D10*
%TO.P,Q5,3*%
%TO.N,GND*%
X167640000Y-101600000D03*
%TO.P,Q5,2*%
%TO.N,LED05*%
X167640000Y-99060000D03*
D11*
%TO.P,Q5,1*%
%TO.N,Net-(C5-Pad1)*%
X167640000Y-96520000D03*
%TD*%
D12*
%TO.P,R4,2*%
%TO.N,Net-(C4-Pad1)*%
X157480000Y-88900000D03*
D13*
%TO.P,R4,1*%
%TO.N,D04*%
X167640000Y-88900000D03*
%TD*%
D12*
%TO.P,R6,2*%
%TO.N,Net-(C6-Pad1)*%
X162560000Y-109220000D03*
D13*
%TO.P,R6,1*%
%TO.N,D06*%
X152400000Y-109220000D03*
%TD*%
%TO.P,C1,1*%
%TO.N,Net-(C1-Pad1)*%
X96520000Y-101520000D03*
%TO.P,C1,2*%
%TO.N,GND*%
X96520000Y-96520000D03*
%TD*%
%TO.P,C2,2*%
%TO.N,GND*%
X111680000Y-91440000D03*
%TO.P,C2,1*%
%TO.N,Net-(C2-Pad1)*%
X106680000Y-91440000D03*
%TD*%
%TO.P,C3,2*%
%TO.N,GND*%
X137080000Y-91440000D03*
%TO.P,C3,1*%
%TO.N,Net-(C3-Pad1)*%
X132080000Y-91440000D03*
%TD*%
%TO.P,C4,1*%
%TO.N,Net-(C4-Pad1)*%
X157560000Y-91440000D03*
%TO.P,C4,2*%
%TO.N,GND*%
X162560000Y-91440000D03*
%TD*%
%TO.P,C5,1*%
%TO.N,Net-(C5-Pad1)*%
X172720000Y-96520000D03*
%TO.P,C5,2*%
%TO.N,GND*%
X172720000Y-101520000D03*
%TD*%
%TO.P,C6,1*%
%TO.N,Net-(C6-Pad1)*%
X162560000Y-106680000D03*
%TO.P,C6,2*%
%TO.N,GND*%
X157560000Y-106680000D03*
%TD*%
%TO.P,C7,2*%
%TO.N,GND*%
X132160000Y-106680000D03*
%TO.P,C7,1*%
%TO.N,Net-(C7-Pad1)*%
X137160000Y-106680000D03*
%TD*%
%TO.P,C8,2*%
%TO.N,GND*%
X106760000Y-106680000D03*
%TO.P,C8,1*%
%TO.N,Net-(C8-Pad1)*%
X111760000Y-106680000D03*
%TD*%
%TO.P,C9,2*%
%TO.N,GND*%
X96520000Y-127080000D03*
%TO.P,C9,1*%
%TO.N,Net-(C9-Pad1)*%
X96520000Y-132080000D03*
%TD*%
%TO.P,C10,1*%
%TO.N,Net-(C10-Pad1)*%
X106680000Y-121920000D03*
%TO.P,C10,2*%
%TO.N,GND*%
X111680000Y-121920000D03*
%TD*%
%TO.P,C11,1*%
%TO.N,Net-(C11-Pad1)*%
X111760000Y-137160000D03*
%TO.P,C11,2*%
%TO.N,GND*%
X106760000Y-137160000D03*
%TD*%
%TO.P,C12,2*%
%TO.N,GND*%
X137080000Y-121920000D03*
%TO.P,C12,1*%
%TO.N,Net-(C12-Pad1)*%
X132080000Y-121920000D03*
%TD*%
%TO.P,C13,2*%
%TO.N,GND*%
X132160000Y-137160000D03*
%TO.P,C13,1*%
%TO.N,Net-(C13-Pad1)*%
X137160000Y-137160000D03*
%TD*%
%TO.P,C14,2*%
%TO.N,GND*%
X162480000Y-121920000D03*
%TO.P,C14,1*%
%TO.N,Net-(C14-Pad1)*%
X157480000Y-121920000D03*
%TD*%
%TO.P,C15,1*%
%TO.N,Net-(C15-Pad1)*%
X172720000Y-127080000D03*
%TO.P,C15,2*%
%TO.N,GND*%
X172720000Y-132080000D03*
%TD*%
%TO.P,C16,1*%
%TO.N,Net-(C16-Pad1)*%
X162560000Y-137160000D03*
%TO.P,C16,2*%
%TO.N,GND*%
X157560000Y-137160000D03*
%TD*%
D14*
%TO.P,J5,10*%
%TO.N,DI8*%
X186690000Y-116840000D03*
%TO.P,J5,9*%
%TO.N,DI9*%
X186690000Y-114300000D03*
%TO.P,J5,8*%
%TO.N,DI10*%
X186690000Y-111760000D03*
%TO.P,J5,7*%
%TO.N,DI11*%
X186690000Y-109220000D03*
%TO.P,J5,6*%
%TO.N,DI12*%
X186690000Y-106680000D03*
%TO.P,J5,5*%
%TO.N,DI13*%
X186690000Y-104140000D03*
%TO.P,J5,4*%
%TO.N,GND*%
X186690000Y-101600000D03*
%TO.P,J5,3*%
%TO.N,AREF*%
X186690000Y-99060000D03*
%TO.P,J5,2*%
%TO.N,SDA1*%
X186690000Y-96520000D03*
D15*
%TO.P,J5,1*%
%TO.N,SCL1*%
X186690000Y-93980000D03*
%TD*%
D14*
%TO.P,J6,8*%
%TO.N,DI0*%
X181610000Y-139192000D03*
%TO.P,J6,7*%
%TO.N,DI1*%
X181610000Y-136652000D03*
%TO.P,J6,6*%
%TO.N,DI2*%
X181610000Y-134112000D03*
%TO.P,J6,5*%
%TO.N,DI3*%
X181610000Y-131572000D03*
%TO.P,J6,4*%
%TO.N,DI4*%
X181610000Y-129032000D03*
%TO.P,J6,3*%
%TO.N,DI5*%
X181610000Y-126492000D03*
%TO.P,J6,2*%
%TO.N,DI6*%
X181610000Y-123952000D03*
D15*
%TO.P,J6,1*%
%TO.N,DI7*%
X181610000Y-121412000D03*
%TD*%
%TO.P,J7,1*%
%TO.N,SCL1*%
X181610000Y-93980000D03*
D14*
%TO.P,J7,2*%
%TO.N,SDA1*%
X181610000Y-96520000D03*
%TO.P,J7,3*%
%TO.N,AREF*%
X181610000Y-99060000D03*
%TO.P,J7,4*%
%TO.N,GND*%
X181610000Y-101600000D03*
%TO.P,J7,5*%
%TO.N,DI13*%
X181610000Y-104140000D03*
%TO.P,J7,6*%
%TO.N,DI12*%
X181610000Y-106680000D03*
%TO.P,J7,7*%
%TO.N,DI11*%
X181610000Y-109220000D03*
%TO.P,J7,8*%
%TO.N,DI10*%
X181610000Y-111760000D03*
%TO.P,J7,9*%
%TO.N,DI9*%
X181610000Y-114300000D03*
%TO.P,J7,10*%
%TO.N,DI8*%
X181610000Y-116840000D03*
%TD*%
D15*
%TO.P,J8,1*%
%TO.N,DI7*%
X186690000Y-121412000D03*
D14*
%TO.P,J8,2*%
%TO.N,DI6*%
X186690000Y-123952000D03*
%TO.P,J8,3*%
%TO.N,DI5*%
X186690000Y-126492000D03*
%TO.P,J8,4*%
%TO.N,DI4*%
X186690000Y-129032000D03*
%TO.P,J8,5*%
%TO.N,DI3*%
X186690000Y-131572000D03*
%TO.P,J8,6*%
%TO.N,DI2*%
X186690000Y-134112000D03*
%TO.P,J8,7*%
%TO.N,DI1*%
X186690000Y-136652000D03*
%TO.P,J8,8*%
%TO.N,DI0*%
X186690000Y-139192000D03*
%TD*%
D15*
%TO.P,J9,1*%
%TO.N,Vcc*%
X186690000Y-68580000D03*
D14*
%TO.P,J9,2*%
%TO.N,SDA1*%
X186690000Y-71120000D03*
%TO.P,J9,3*%
%TO.N,SCL1*%
X186690000Y-73660000D03*
%TO.P,J9,4*%
%TO.N,DI11*%
X186690000Y-76200000D03*
%TO.P,J9,5*%
%TO.N,GND*%
X186690000Y-78740000D03*
%TD*%
D15*
%TO.P,J11,1*%
%TO.N,GND*%
X160020000Y-148590000D03*
D14*
%TO.P,J11,2*%
%TO.N,Vcc*%
X160020000Y-151130000D03*
%TO.P,J11,3*%
%TO.N,DI10*%
X160020000Y-153670000D03*
%TD*%
D15*
%TO.P,J17,1*%
%TO.N,D01*%
X128270000Y-66040000D03*
D14*
%TO.P,J17,2*%
%TO.N,D02*%
X130810000Y-66040000D03*
%TO.P,J17,3*%
%TO.N,D03*%
X133350000Y-66040000D03*
%TO.P,J17,4*%
%TO.N,D04*%
X135890000Y-66040000D03*
%TD*%
%TO.P,J18,4*%
%TO.N,D08*%
X149860000Y-66040000D03*
%TO.P,J18,3*%
%TO.N,D07*%
X147320000Y-66040000D03*
%TO.P,J18,2*%
%TO.N,D06*%
X144780000Y-66040000D03*
D15*
%TO.P,J18,1*%
%TO.N,D05*%
X142240000Y-66040000D03*
%TD*%
D14*
%TO.P,J19,4*%
%TO.N,D12*%
X166370000Y-66040000D03*
%TO.P,J19,3*%
%TO.N,D11*%
X163830000Y-66040000D03*
%TO.P,J19,2*%
%TO.N,D10*%
X161290000Y-66040000D03*
D15*
%TO.P,J19,1*%
%TO.N,D09*%
X158750000Y-66040000D03*
%TD*%
%TO.P,J20,1*%
%TO.N,D13*%
X172720000Y-66040000D03*
D14*
%TO.P,J20,2*%
%TO.N,D14*%
X175260000Y-66040000D03*
%TO.P,J20,3*%
%TO.N,D15*%
X177800000Y-66040000D03*
%TO.P,J20,4*%
%TO.N,D16*%
X180340000Y-66040000D03*
%TD*%
D11*
%TO.P,Q1,1*%
%TO.N,Net-(C1-Pad1)*%
X101600000Y-101600000D03*
D10*
%TO.P,Q1,2*%
%TO.N,LED01*%
X101600000Y-99060000D03*
%TO.P,Q1,3*%
%TO.N,GND*%
X101600000Y-96520000D03*
%TD*%
D16*
%TO.P,Q2,1*%
%TO.N,Net-(C2-Pad1)*%
X106680000Y-96520000D03*
D17*
%TO.P,Q2,2*%
%TO.N,LED02*%
X109220000Y-96520000D03*
%TO.P,Q2,3*%
%TO.N,GND*%
X111760000Y-96520000D03*
%TD*%
%TO.P,Q3,3*%
%TO.N,GND*%
X137160000Y-96520000D03*
%TO.P,Q3,2*%
%TO.N,LED03*%
X134620000Y-96520000D03*
D16*
%TO.P,Q3,1*%
%TO.N,Net-(C3-Pad1)*%
X132080000Y-96520000D03*
%TD*%
D17*
%TO.P,Q4,3*%
%TO.N,GND*%
X162560000Y-96520000D03*
%TO.P,Q4,2*%
%TO.N,LED04*%
X160020000Y-96520000D03*
D16*
%TO.P,Q4,1*%
%TO.N,Net-(C4-Pad1)*%
X157480000Y-96520000D03*
%TD*%
%TO.P,Q6,1*%
%TO.N,Net-(C6-Pad1)*%
X162560000Y-101600000D03*
D17*
%TO.P,Q6,2*%
%TO.N,LED06*%
X160020000Y-101600000D03*
%TO.P,Q6,3*%
%TO.N,GND*%
X157480000Y-101600000D03*
%TD*%
D16*
%TO.P,Q7,1*%
%TO.N,Net-(C7-Pad1)*%
X137160000Y-101600000D03*
D17*
%TO.P,Q7,2*%
%TO.N,LED07*%
X134620000Y-101600000D03*
%TO.P,Q7,3*%
%TO.N,GND*%
X132080000Y-101600000D03*
%TD*%
%TO.P,Q8,3*%
%TO.N,GND*%
X106680000Y-101600000D03*
%TO.P,Q8,2*%
%TO.N,LED08*%
X109220000Y-101600000D03*
D16*
%TO.P,Q8,1*%
%TO.N,Net-(C8-Pad1)*%
X111760000Y-101600000D03*
%TD*%
D10*
%TO.P,Q9,3*%
%TO.N,GND*%
X101600000Y-127000000D03*
%TO.P,Q9,2*%
%TO.N,LED09*%
X101600000Y-129540000D03*
D11*
%TO.P,Q9,1*%
%TO.N,Net-(C9-Pad1)*%
X101600000Y-132080000D03*
%TD*%
D17*
%TO.P,Q10,3*%
%TO.N,GND*%
X111760000Y-127000000D03*
%TO.P,Q10,2*%
%TO.N,LED10*%
X109220000Y-127000000D03*
D16*
%TO.P,Q10,1*%
%TO.N,Net-(C10-Pad1)*%
X106680000Y-127000000D03*
%TD*%
%TO.P,Q11,1*%
%TO.N,Net-(C11-Pad1)*%
X111760000Y-132080000D03*
D17*
%TO.P,Q11,2*%
%TO.N,LED11*%
X109220000Y-132080000D03*
%TO.P,Q11,3*%
%TO.N,GND*%
X106680000Y-132080000D03*
%TD*%
%TO.P,Q12,3*%
%TO.N,GND*%
X137160000Y-127000000D03*
%TO.P,Q12,2*%
%TO.N,LED12*%
X134620000Y-127000000D03*
D16*
%TO.P,Q12,1*%
%TO.N,Net-(C12-Pad1)*%
X132080000Y-127000000D03*
%TD*%
%TO.P,Q13,1*%
%TO.N,Net-(C13-Pad1)*%
X137160000Y-132080000D03*
D17*
%TO.P,Q13,2*%
%TO.N,LED13*%
X134620000Y-132080000D03*
%TO.P,Q13,3*%
%TO.N,GND*%
X132080000Y-132080000D03*
%TD*%
D16*
%TO.P,Q14,1*%
%TO.N,Net-(C14-Pad1)*%
X157480000Y-127000000D03*
D17*
%TO.P,Q14,2*%
%TO.N,LED14*%
X160020000Y-127000000D03*
%TO.P,Q14,3*%
%TO.N,GND*%
X162560000Y-127000000D03*
%TD*%
D11*
%TO.P,Q15,1*%
%TO.N,Net-(C15-Pad1)*%
X167640000Y-127000000D03*
D10*
%TO.P,Q15,2*%
%TO.N,LED15*%
X167640000Y-129540000D03*
%TO.P,Q15,3*%
%TO.N,GND*%
X167640000Y-132080000D03*
%TD*%
D17*
%TO.P,Q16,3*%
%TO.N,GND*%
X157480000Y-132080000D03*
%TO.P,Q16,2*%
%TO.N,LED16*%
X160020000Y-132080000D03*
D16*
%TO.P,Q16,1*%
%TO.N,Net-(C16-Pad1)*%
X162560000Y-132080000D03*
%TD*%
D13*
%TO.P,R1,1*%
%TO.N,D01*%
X93980000Y-91440000D03*
D12*
%TO.P,R1,2*%
%TO.N,Net-(C1-Pad1)*%
X93980000Y-101600000D03*
%TD*%
%TO.P,R2,2*%
%TO.N,Net-(C2-Pad1)*%
X106680000Y-88900000D03*
D13*
%TO.P,R2,1*%
%TO.N,D02*%
X116840000Y-88900000D03*
%TD*%
%TO.P,R3,1*%
%TO.N,D03*%
X142240000Y-88900000D03*
D12*
%TO.P,R3,2*%
%TO.N,Net-(C3-Pad1)*%
X132080000Y-88900000D03*
%TD*%
D13*
%TO.P,R5,1*%
%TO.N,D05*%
X176530000Y-106680000D03*
D12*
%TO.P,R5,2*%
%TO.N,Net-(C5-Pad1)*%
X176530000Y-96520000D03*
%TD*%
D13*
%TO.P,R7,1*%
%TO.N,D07*%
X127000000Y-109220000D03*
D12*
%TO.P,R7,2*%
%TO.N,Net-(C7-Pad1)*%
X137160000Y-109220000D03*
%TD*%
%TO.P,R8,2*%
%TO.N,Net-(C8-Pad1)*%
X111760000Y-109220000D03*
D13*
%TO.P,R8,1*%
%TO.N,D08*%
X101600000Y-109220000D03*
%TD*%
D12*
%TO.P,R9,2*%
%TO.N,Net-(C9-Pad1)*%
X93980000Y-132080000D03*
D13*
%TO.P,R9,1*%
%TO.N,D09*%
X93980000Y-121920000D03*
%TD*%
D12*
%TO.P,R10,2*%
%TO.N,Net-(C10-Pad1)*%
X106680000Y-119380000D03*
D13*
%TO.P,R10,1*%
%TO.N,D10*%
X116840000Y-119380000D03*
%TD*%
%TO.P,R11,1*%
%TO.N,D11*%
X116840000Y-127000000D03*
D12*
%TO.P,R11,2*%
%TO.N,Net-(C11-Pad1)*%
X116840000Y-137160000D03*
%TD*%
%TO.P,R12,2*%
%TO.N,Net-(C12-Pad1)*%
X132080000Y-119380000D03*
D13*
%TO.P,R12,1*%
%TO.N,D12*%
X142240000Y-119380000D03*
%TD*%
%TO.P,R13,1*%
%TO.N,D13*%
X142240000Y-127000000D03*
D12*
%TO.P,R13,2*%
%TO.N,Net-(C13-Pad1)*%
X142240000Y-137160000D03*
%TD*%
D13*
%TO.P,R14,1*%
%TO.N,D14*%
X167640000Y-119380000D03*
D12*
%TO.P,R14,2*%
%TO.N,Net-(C14-Pad1)*%
X157480000Y-119380000D03*
%TD*%
D13*
%TO.P,R15,1*%
%TO.N,D15*%
X175260000Y-116840000D03*
D12*
%TO.P,R15,2*%
%TO.N,Net-(C15-Pad1)*%
X175260000Y-127000000D03*
%TD*%
%TO.P,R16,2*%
%TO.N,Net-(C16-Pad1)*%
X165100000Y-137160000D03*
D13*
%TO.P,R16,1*%
%TO.N,D16*%
X175260000Y-137160000D03*
%TD*%
D15*
%TO.P,J21,1*%
%TO.N,12V+*%
X121920000Y-71120000D03*
D14*
%TO.P,J21,2*%
%TO.N,GND*%
X121920000Y-73660000D03*
%TO.P,J21,3*%
%TO.N,SDA1*%
X121920000Y-76200000D03*
%TO.P,J21,4*%
%TO.N,SCL1*%
X121920000Y-78740000D03*
%TO.P,J21,5*%
%TO.N,Net-(J21-Pad5)*%
X121920000Y-81280000D03*
%TD*%
%TO.P,J22,2*%
%TO.N,GND*%
X116205000Y-73660000D03*
D15*
%TO.P,J22,1*%
%TO.N,12V+*%
X116205000Y-71120000D03*
%TD*%
D14*
%TO.P,J23,5*%
%TO.N,Net-(J23-Pad5)*%
X127000000Y-81280000D03*
%TO.P,J23,4*%
%TO.N,SCL1*%
X127000000Y-78740000D03*
%TO.P,J23,3*%
%TO.N,SDA1*%
X127000000Y-76200000D03*
%TO.P,J23,2*%
%TO.N,GND*%
X127000000Y-73660000D03*
D15*
%TO.P,J23,1*%
%TO.N,12V+*%
X127000000Y-71120000D03*
%TD*%
%TO.P,J24,1*%
%TO.N,5V+*%
X110490000Y-71120000D03*
D14*
%TO.P,J24,2*%
%TO.N,GND*%
X110490000Y-73660000D03*
%TD*%
D15*
%TO.P,J10,1*%
%TO.N,LED10*%
X121920000Y-154940000D03*
D14*
%TO.P,J10,2*%
%TO.N,LED11*%
X124460000Y-154940000D03*
%TO.P,J10,3*%
%TO.N,LED12*%
X127000000Y-154940000D03*
%TO.P,J10,4*%
%TO.N,LED13*%
X129540000Y-154940000D03*
%TO.P,J10,5*%
%TO.N,LED14*%
X132080000Y-154940000D03*
%TO.P,J10,6*%
%TO.N,LED15*%
X134620000Y-154940000D03*
%TO.P,J10,7*%
%TO.N,LED16*%
X137160000Y-154940000D03*
%TD*%
D15*
%TO.P,J16,1*%
%TO.N,LED01*%
X138430000Y-148590000D03*
D14*
%TO.P,J16,2*%
%TO.N,LED02*%
X135890000Y-148590000D03*
%TO.P,J16,3*%
%TO.N,LED03*%
X133350000Y-148590000D03*
%TO.P,J16,4*%
%TO.N,LED04*%
X130810000Y-148590000D03*
%TO.P,J16,5*%
%TO.N,LED05*%
X128270000Y-148590000D03*
%TO.P,J16,6*%
%TO.N,LED06*%
X125730000Y-148590000D03*
%TO.P,J16,7*%
%TO.N,LED07*%
X123190000Y-148590000D03*
%TO.P,J16,8*%
%TO.N,LED08*%
X120650000Y-148590000D03*
%TO.P,J16,9*%
%TO.N,LED09*%
X118110000Y-148590000D03*
%TO.P,J16,10*%
%TO.N,GND*%
X115570000Y-148590000D03*
%TD*%
D15*
%TO.P,J25,1*%
%TO.N,Vcc*%
X168910000Y-151130000D03*
D14*
%TO.P,J25,2*%
%TO.N,GND*%
X168910000Y-148590000D03*
%TO.P,J25,3*%
%TO.N,5V+*%
X171450000Y-151130000D03*
%TO.P,J25,4*%
%TO.N,N/C*%
X171450000Y-148590000D03*
%TO.P,J25,5*%
X173990000Y-151130000D03*
%TO.P,J25,6*%
X173990000Y-148590000D03*
%TD*%
D15*
%TO.P,J1,1*%
%TO.N,Vcc*%
X179070000Y-156210000D03*
D14*
%TO.P,J1,2*%
%TO.N,GND*%
X179070000Y-153670000D03*
%TD*%
M02*
