M48
; DRILL file {KiCad (5.1.6)-1} date 09/23/20 18:14:07
; FORMAT={-:-/ absolute / inch / decimal}
; #@! TF.CreationDate,2020-09-23T18:14:07+02:00
; #@! TF.GenerationSoftware,Kicad,Pcbnew,(5.1.6)-1
; #@! TF.FileFunction,Plated,1,2,PTH
FMAT,2
INCH
T1C0.0157
T2C0.0236
T3C0.0315
T4C0.0394
T5C0.0433
%
G90
G05
T1
X4.8Y-3.3
X4.8Y-3.75
X5.55Y-3.9
X5.65Y-3.05
X5.7Y-4.4
X5.75Y-4.4
X6.8Y-5.75
T2
X3.8Y-5.65
X4.7Y-5.85
X4.75Y-5.65
X4.8Y-4.55
X4.85Y-5.75
X4.9Y-4.45
X5.05Y-4.95
X5.2Y-5.4
X5.4Y-5.5
X5.6Y-5.75
X5.8Y-5.4
X6.4Y-5.65
T3
X5.2031Y-4.2
X5.4Y-4.2
X4.1Y-4.8
X4.2969Y-4.8
X4.2Y-4.2
X4.3969Y-4.2
X4.5Y-4.3
X4.9Y-4.3
X5.55Y-3.6
X5.95Y-3.6
X6.2031Y-4.2
X6.4Y-4.2
X6.6Y-3.65
X6.7969Y-3.65
X5.6Y-4.7
X5.6Y-5.1
X6.6Y-4.85
X6.7969Y-4.85
X6.2Y-4.8
X6.3969Y-4.8
X4.1Y-4.7
X4.5Y-4.7
X4.575Y-4.8
X4.575Y-5.2
X5.2Y-3.6
X5.3969Y-3.6
X5.0Y-4.3
X5.4Y-4.3
X6.2031Y-5.4
X6.4Y-5.4
X4.2031Y-5.4
X4.4Y-5.4
X6.1Y-4.4
X6.1Y-4.8
X6.6Y-5.4
X7.0Y-5.4
X4.2Y-3.5
X4.6Y-3.5
X4.7Y-3.5
X5.1Y-3.5
X5.6Y-5.2
X5.6Y-5.3969
X5.2Y-4.6
X5.6Y-4.6
X4.0Y-3.2
X4.0Y-3.6
X3.9Y-3.4031
X3.9Y-3.6
X6.2031Y-3.6
X6.4Y-3.6
X5.55Y-4.3
X5.95Y-4.3
X5.55Y-3.45
X5.95Y-3.45
X3.9031Y-5.4
X4.1Y-5.4
X5.2Y-4.75
X5.3969Y-4.75
X4.0Y-5.5
X4.4Y-5.5
X6.6Y-4.35
X6.6Y-4.75
X4.2Y-3.6
X4.3969Y-3.6
T4
X6.75Y-6.05
X6.85Y-6.05
X6.95Y-6.05
X7.3Y-5.95
X7.3Y-6.05
X7.4Y-5.95
X7.4Y-6.05
X5.95Y-6.2
X6.05Y-6.2
X6.15Y-6.2
X6.25Y-6.2
X6.35Y-6.2
X6.45Y-6.2
X6.55Y-6.2
X5.5Y-2.55
X5.6Y-2.55
X5.7Y-2.55
X5.8Y-2.55
X6.05Y-2.55
X6.15Y-2.55
X6.25Y-2.55
X6.35Y-2.55
X4.85Y-2.55
X4.95Y-2.55
X5.05Y-2.55
X5.15Y-2.55
X5.95Y-5.9
X6.05Y-5.9
X6.15Y-5.9
X6.25Y-5.9
X6.35Y-5.9
X6.45Y-5.9
X6.55Y-5.9
X7.255Y-3.7
X7.255Y-3.8
X7.255Y-3.9
X7.255Y-4.0
X7.255Y-4.1
X7.255Y-4.2
X7.255Y-4.3
X7.255Y-4.4
X7.255Y-4.5
X7.255Y-4.6
X6.6Y-2.65
X6.6Y-2.75
X6.6Y-2.85
X6.6Y-2.95
X6.6Y-3.05
X4.3Y-2.55
X4.4Y-2.55
X4.5Y-2.55
X4.6Y-2.55
X7.15Y-5.85
X7.15Y-5.95
X7.15Y-6.05
X7.1Y-2.55
X7.1Y-2.65
X7.1Y-2.75
X7.1Y-2.85
X7.1Y-2.95
X7.255Y-4.78
X7.255Y-4.88
X7.255Y-4.98
X7.255Y-5.08
X7.255Y-5.18
X7.255Y-5.28
X7.255Y-5.38
X7.255Y-5.48
X7.25Y-2.55
X7.25Y-2.65
X7.25Y-2.75
X7.25Y-2.85
X7.25Y-2.95
X7.4Y-3.7
X7.4Y-3.8
X7.4Y-3.9
X7.4Y-4.0
X7.4Y-4.1
X7.4Y-4.2
X7.4Y-4.3
X7.4Y-4.4
X7.4Y-4.5
X7.4Y-4.6
X6.75Y-5.9
X6.85Y-5.9
X6.95Y-5.9
X4.3Y-6.05
X4.4Y-6.05
X4.5Y-6.05
X4.6Y-6.05
X4.7Y-6.05
X4.8Y-6.05
X4.9Y-6.05
X5.0Y-6.05
X5.1Y-6.05
X5.2Y-6.05
X5.3Y-6.05
X5.4Y-6.05
X5.5Y-6.05
X5.6Y-6.05
X5.7Y-6.05
X5.8Y-6.05
X7.0Y-6.2
X7.1Y-6.2
X7.4Y-4.78
X7.4Y-4.88
X7.4Y-4.98
X7.4Y-5.08
X7.4Y-5.18
X7.4Y-5.28
X7.4Y-5.38
X7.4Y-5.48
X5.95Y-6.05
X6.05Y-6.05
X6.15Y-6.05
X6.25Y-6.05
X6.35Y-6.05
X6.45Y-6.05
X6.55Y-6.05
X6.85Y-2.55
X6.95Y-2.55
T5
X6.6Y-5.0
X6.6Y-5.1
X6.6Y-5.2
X4.2Y-5.2
X4.3Y-5.2
X4.4Y-5.2
X6.2Y-4.0
X6.3Y-4.0
X6.4Y-4.0
X6.6Y-3.8
X6.6Y-3.9
X6.6Y-4.0
X4.2Y-5.0
X4.3Y-5.0
X4.4Y-5.0
X4.2Y-4.0
X4.3Y-4.0
X4.4Y-4.0
X6.2Y-3.8
X6.3Y-3.8
X6.4Y-3.8
X4.0Y-5.0
X4.0Y-5.1
X4.0Y-5.2
X6.2Y-5.2
X6.3Y-5.2
X6.4Y-5.2
X6.2Y-5.0
X6.3Y-5.0
X6.4Y-5.0
X5.2Y-5.0
X5.3Y-5.0
X5.4Y-5.0
X5.2Y-3.8
X5.3Y-3.8
X5.4Y-3.8
X4.0Y-3.8
X4.0Y-3.9
X4.0Y-4.0
X4.2Y-3.8
X4.3Y-3.8
X4.4Y-3.8
X5.2Y-4.0
X5.3Y-4.0
X5.4Y-4.0
X5.2Y-5.2
X5.3Y-5.2
X5.4Y-5.2
T0
M30
