%TF.GenerationSoftware,KiCad,Pcbnew,(5.1.6)-1*%
%TF.CreationDate,2020-09-23T00:55:53+02:00*%
%TF.ProjectId,ExtendedBoard,45787465-6e64-4656-9442-6f6172642e6b,rev?*%
%TF.SameCoordinates,Original*%
%TF.FileFunction,Soldermask,Bot*%
%TF.FilePolarity,Negative*%
%FSLAX46Y46*%
G04 Gerber Fmt 4.6, Leading zero omitted, Abs format (unit mm)*
G04 Created by KiCad (PCBNEW (5.1.6)-1) date 2020-09-23 00:55:53*
%MOMM*%
%LPD*%
G01*
G04 APERTURE LIST*
%ADD10C,8.300000*%
%ADD11O,2.100000X2.005000*%
%ADD12R,2.100000X2.005000*%
%ADD13O,1.700000X1.700000*%
%ADD14C,1.700000*%
%ADD15O,1.800000X1.800000*%
%ADD16R,1.800000X1.800000*%
%ADD17R,2.005000X2.100000*%
%ADD18O,2.005000X2.100000*%
G04 APERTURE END LIST*
D10*
%TO.C,DH4*%
X251460000Y-154940000D03*
%TD*%
%TO.C,DH3*%
X99060000Y-154940000D03*
%TD*%
%TO.C,DH1*%
X99060000Y-55880000D03*
%TD*%
%TO.C,DH2*%
X251460000Y-55880000D03*
%TD*%
D11*
%TO.C,Q5*%
X172720000Y-91440000D03*
X172720000Y-88900000D03*
D12*
X172720000Y-86360000D03*
%TD*%
D13*
%TO.C,R4*%
X162560000Y-78740000D03*
D14*
X152400000Y-78740000D03*
%TD*%
D13*
%TO.C,R6*%
X158750000Y-99060000D03*
D14*
X148590000Y-99060000D03*
%TD*%
%TO.C,C1*%
X101600000Y-91360000D03*
X101600000Y-86360000D03*
%TD*%
%TO.C,C2*%
X116760000Y-81280000D03*
X111760000Y-81280000D03*
%TD*%
%TO.C,C3*%
X142160000Y-81280000D03*
X137160000Y-81280000D03*
%TD*%
%TO.C,C4*%
X162640000Y-81280000D03*
X167640000Y-81280000D03*
%TD*%
%TO.C,C5*%
X166370000Y-74930000D03*
X166370000Y-69930000D03*
%TD*%
%TO.C,C6*%
X167640000Y-96520000D03*
X162640000Y-96520000D03*
%TD*%
%TO.C,C7*%
X137240000Y-96520000D03*
X142240000Y-96520000D03*
%TD*%
%TO.C,C8*%
X111840000Y-96520000D03*
X116840000Y-96520000D03*
%TD*%
%TO.C,C9*%
X101600000Y-119460000D03*
X101600000Y-124460000D03*
%TD*%
%TO.C,C10*%
X111760000Y-114300000D03*
X116760000Y-114300000D03*
%TD*%
%TO.C,C11*%
X116840000Y-129540000D03*
X111840000Y-129540000D03*
%TD*%
%TO.C,C12*%
X142160000Y-114300000D03*
X137160000Y-114300000D03*
%TD*%
%TO.C,C13*%
X137240000Y-129540000D03*
X142240000Y-129540000D03*
%TD*%
%TO.C,C14*%
X167560000Y-114300000D03*
X162560000Y-114300000D03*
%TD*%
%TO.C,C15*%
X177800000Y-119460000D03*
X177800000Y-124460000D03*
%TD*%
%TO.C,C16*%
X167640000Y-129540000D03*
X162640000Y-129540000D03*
%TD*%
D15*
%TO.C,J1*%
X254000000Y-120904000D03*
X254000000Y-118364000D03*
X254000000Y-115824000D03*
X254000000Y-113284000D03*
X254000000Y-110744000D03*
X254000000Y-108204000D03*
X254000000Y-105664000D03*
D16*
X254000000Y-103124000D03*
%TD*%
D15*
%TO.C,J2*%
X254000000Y-139192000D03*
X254000000Y-136652000D03*
X254000000Y-134112000D03*
X254000000Y-131572000D03*
X254000000Y-129032000D03*
D16*
X254000000Y-126492000D03*
%TD*%
%TO.C,J3*%
X248920000Y-103124000D03*
D15*
X248920000Y-105664000D03*
X248920000Y-108204000D03*
X248920000Y-110744000D03*
X248920000Y-113284000D03*
X248920000Y-115824000D03*
X248920000Y-118364000D03*
X248920000Y-120904000D03*
%TD*%
D16*
%TO.C,J4*%
X248920000Y-126492000D03*
D15*
X248920000Y-129032000D03*
X248920000Y-131572000D03*
X248920000Y-134112000D03*
X248920000Y-136652000D03*
X248920000Y-139192000D03*
%TD*%
%TO.C,J5*%
X200660000Y-116840000D03*
X200660000Y-114300000D03*
X200660000Y-111760000D03*
X200660000Y-109220000D03*
X200660000Y-106680000D03*
X200660000Y-104140000D03*
X200660000Y-101600000D03*
X200660000Y-99060000D03*
X200660000Y-96520000D03*
D16*
X200660000Y-93980000D03*
%TD*%
D15*
%TO.C,J6*%
X195580000Y-139192000D03*
X195580000Y-136652000D03*
X195580000Y-134112000D03*
X195580000Y-131572000D03*
X195580000Y-129032000D03*
X195580000Y-126492000D03*
X195580000Y-123952000D03*
D16*
X195580000Y-121412000D03*
%TD*%
%TO.C,J7*%
X195580000Y-93980000D03*
D15*
X195580000Y-96520000D03*
X195580000Y-99060000D03*
X195580000Y-101600000D03*
X195580000Y-104140000D03*
X195580000Y-106680000D03*
X195580000Y-109220000D03*
X195580000Y-111760000D03*
X195580000Y-114300000D03*
X195580000Y-116840000D03*
%TD*%
D16*
%TO.C,J8*%
X200660000Y-121412000D03*
D15*
X200660000Y-123952000D03*
X200660000Y-126492000D03*
X200660000Y-129032000D03*
X200660000Y-131572000D03*
X200660000Y-134112000D03*
X200660000Y-136652000D03*
X200660000Y-139192000D03*
%TD*%
D16*
%TO.C,J9*%
X201930000Y-62230000D03*
D15*
X201930000Y-64770000D03*
X201930000Y-67310000D03*
X201930000Y-69850000D03*
X201930000Y-72390000D03*
%TD*%
D16*
%TO.C,J10*%
X116840000Y-147320000D03*
D15*
X119380000Y-147320000D03*
X121920000Y-147320000D03*
X124460000Y-147320000D03*
X127000000Y-147320000D03*
X129540000Y-147320000D03*
X132080000Y-147320000D03*
X134620000Y-147320000D03*
X137160000Y-147320000D03*
X139700000Y-147320000D03*
X142240000Y-147320000D03*
X144780000Y-147320000D03*
X147320000Y-147320000D03*
X149860000Y-147320000D03*
X152400000Y-147320000D03*
X154940000Y-147320000D03*
X157480000Y-147320000D03*
X160020000Y-147320000D03*
X162560000Y-147320000D03*
X165100000Y-147320000D03*
%TD*%
D16*
%TO.C,J11*%
X170180000Y-147320000D03*
D15*
X170180000Y-144780000D03*
X170180000Y-142240000D03*
%TD*%
%TO.C,J12*%
X151130000Y-52070000D03*
X148590000Y-52070000D03*
X146050000Y-52070000D03*
D16*
X143510000Y-52070000D03*
%TD*%
%TO.C,J13*%
X157480000Y-52070000D03*
D15*
X160020000Y-52070000D03*
X162560000Y-52070000D03*
X165100000Y-52070000D03*
%TD*%
%TO.C,J14*%
X181610000Y-52070000D03*
X179070000Y-52070000D03*
X176530000Y-52070000D03*
D16*
X173990000Y-52070000D03*
%TD*%
%TO.C,J15*%
X187960000Y-52070000D03*
D15*
X190500000Y-52070000D03*
X193040000Y-52070000D03*
X195580000Y-52070000D03*
%TD*%
%TO.C,J16*%
X165100000Y-143510000D03*
X162560000Y-143510000D03*
X160020000Y-143510000D03*
X157480000Y-143510000D03*
X154940000Y-143510000D03*
X152400000Y-143510000D03*
X149860000Y-143510000D03*
X147320000Y-143510000D03*
X144780000Y-143510000D03*
X142240000Y-143510000D03*
X139700000Y-143510000D03*
X137160000Y-143510000D03*
X134620000Y-143510000D03*
X132080000Y-143510000D03*
X129540000Y-143510000D03*
X127000000Y-143510000D03*
X124460000Y-143510000D03*
X121920000Y-143510000D03*
X119380000Y-143510000D03*
D16*
X116840000Y-143510000D03*
%TD*%
%TO.C,J17*%
X143510000Y-59690000D03*
D15*
X146050000Y-59690000D03*
X148590000Y-59690000D03*
X151130000Y-59690000D03*
%TD*%
%TO.C,J18*%
X165100000Y-59690000D03*
X162560000Y-59690000D03*
X160020000Y-59690000D03*
D16*
X157480000Y-59690000D03*
%TD*%
D15*
%TO.C,J19*%
X181610000Y-59690000D03*
X179070000Y-59690000D03*
X176530000Y-59690000D03*
D16*
X173990000Y-59690000D03*
%TD*%
%TO.C,J20*%
X187960000Y-59690000D03*
D15*
X190500000Y-59690000D03*
X193040000Y-59690000D03*
X195580000Y-59690000D03*
%TD*%
D12*
%TO.C,Q1*%
X106680000Y-91440000D03*
D11*
X106680000Y-88900000D03*
X106680000Y-86360000D03*
%TD*%
D17*
%TO.C,Q2*%
X111760000Y-86360000D03*
D18*
X114300000Y-86360000D03*
X116840000Y-86360000D03*
%TD*%
%TO.C,Q3*%
X142240000Y-86360000D03*
X139700000Y-86360000D03*
D17*
X137160000Y-86360000D03*
%TD*%
D18*
%TO.C,Q4*%
X167640000Y-86360000D03*
X165100000Y-86360000D03*
D17*
X162560000Y-86360000D03*
%TD*%
%TO.C,Q6*%
X167640000Y-91440000D03*
D18*
X165100000Y-91440000D03*
X162560000Y-91440000D03*
%TD*%
D17*
%TO.C,Q7*%
X142240000Y-91440000D03*
D18*
X139700000Y-91440000D03*
X137160000Y-91440000D03*
%TD*%
%TO.C,Q8*%
X111760000Y-91440000D03*
X114300000Y-91440000D03*
D17*
X116840000Y-91440000D03*
%TD*%
D11*
%TO.C,Q9*%
X106680000Y-119380000D03*
X106680000Y-121920000D03*
D12*
X106680000Y-124460000D03*
%TD*%
D18*
%TO.C,Q10*%
X116840000Y-119380000D03*
X114300000Y-119380000D03*
D17*
X111760000Y-119380000D03*
%TD*%
%TO.C,Q11*%
X116840000Y-124460000D03*
D18*
X114300000Y-124460000D03*
X111760000Y-124460000D03*
%TD*%
%TO.C,Q12*%
X142240000Y-119380000D03*
X139700000Y-119380000D03*
D17*
X137160000Y-119380000D03*
%TD*%
%TO.C,Q13*%
X142240000Y-124460000D03*
D18*
X139700000Y-124460000D03*
X137160000Y-124460000D03*
%TD*%
D17*
%TO.C,Q14*%
X162560000Y-119380000D03*
D18*
X165100000Y-119380000D03*
X167640000Y-119380000D03*
%TD*%
D12*
%TO.C,Q15*%
X172720000Y-119380000D03*
D11*
X172720000Y-121920000D03*
X172720000Y-124460000D03*
%TD*%
D18*
%TO.C,Q16*%
X162560000Y-124460000D03*
X165100000Y-124460000D03*
D17*
X167640000Y-124460000D03*
%TD*%
D14*
%TO.C,R1*%
X99060000Y-81280000D03*
D13*
X99060000Y-91440000D03*
%TD*%
%TO.C,R2*%
X111760000Y-78740000D03*
D14*
X111760000Y-68580000D03*
%TD*%
%TO.C,R3*%
X137160000Y-68580000D03*
D13*
X137160000Y-78740000D03*
%TD*%
D14*
%TO.C,R5*%
X152400000Y-74930000D03*
D13*
X162560000Y-74930000D03*
%TD*%
D14*
%TO.C,R7*%
X132080000Y-99060000D03*
D13*
X142240000Y-99060000D03*
%TD*%
%TO.C,R8*%
X116840000Y-99060000D03*
D14*
X106680000Y-99060000D03*
%TD*%
D13*
%TO.C,R9*%
X99060000Y-124460000D03*
D14*
X99060000Y-114300000D03*
%TD*%
D13*
%TO.C,R10*%
X111760000Y-111760000D03*
D14*
X121920000Y-111760000D03*
%TD*%
%TO.C,R11*%
X121920000Y-119380000D03*
D13*
X121920000Y-129540000D03*
%TD*%
%TO.C,R12*%
X137160000Y-111760000D03*
D14*
X147320000Y-111760000D03*
%TD*%
%TO.C,R13*%
X147320000Y-119380000D03*
D13*
X147320000Y-129540000D03*
%TD*%
D14*
%TO.C,R14*%
X172720000Y-111760000D03*
D13*
X162560000Y-111760000D03*
%TD*%
D14*
%TO.C,R15*%
X180340000Y-109220000D03*
D13*
X180340000Y-119380000D03*
%TD*%
%TO.C,R16*%
X170180000Y-129540000D03*
D14*
X180340000Y-129540000D03*
%TD*%
D16*
%TO.C,J21*%
X236220000Y-52070000D03*
D15*
X236220000Y-54610000D03*
X236220000Y-57150000D03*
X236220000Y-59690000D03*
X236220000Y-62230000D03*
%TD*%
%TO.C,J22*%
X230505000Y-54610000D03*
D16*
X230505000Y-52070000D03*
%TD*%
D15*
%TO.C,J23*%
X241300000Y-62230000D03*
X241300000Y-59690000D03*
X241300000Y-57150000D03*
X241300000Y-54610000D03*
D16*
X241300000Y-52070000D03*
%TD*%
%TO.C,J24*%
X224790000Y-52070000D03*
D15*
X224790000Y-54610000D03*
%TD*%
M02*
