%TF.GenerationSoftware,KiCad,Pcbnew,(5.1.6)-1*%
%TF.CreationDate,2020-09-23T00:55:53+02:00*%
%TF.ProjectId,ExtendedBoard,45787465-6e64-4656-9442-6f6172642e6b,rev?*%
%TF.SameCoordinates,Original*%
%TF.FileFunction,Legend,Top*%
%TF.FilePolarity,Positive*%
%FSLAX46Y46*%
G04 Gerber Fmt 4.6, Leading zero omitted, Abs format (unit mm)*
G04 Created by KiCad (PCBNEW (5.1.6)-1) date 2020-09-23 00:55:53*
%MOMM*%
%LPD*%
G01*
G04 APERTURE LIST*
%ADD10C,0.120000*%
%ADD11C,0.150000*%
G04 APERTURE END LIST*
D10*
%TO.C,Q5*%
X175990000Y-83780000D02*
X175990000Y-94020000D01*
X171349000Y-83780000D02*
X171349000Y-94020000D01*
X175990000Y-83780000D02*
X171349000Y-83780000D01*
X175990000Y-94020000D02*
X171349000Y-94020000D01*
X174480000Y-83780000D02*
X174480000Y-94020000D01*
X175990000Y-87050000D02*
X174480000Y-87050000D01*
X175990000Y-90751000D02*
X174480000Y-90751000D01*
%TO.C,R4*%
X154210000Y-77370000D02*
X154210000Y-80110000D01*
X154210000Y-80110000D02*
X160750000Y-80110000D01*
X160750000Y-80110000D02*
X160750000Y-77370000D01*
X160750000Y-77370000D02*
X154210000Y-77370000D01*
X153440000Y-78740000D02*
X154210000Y-78740000D01*
X161520000Y-78740000D02*
X160750000Y-78740000D01*
%TO.C,R6*%
X150400000Y-97690000D02*
X150400000Y-100430000D01*
X150400000Y-100430000D02*
X156940000Y-100430000D01*
X156940000Y-100430000D02*
X156940000Y-97690000D01*
X156940000Y-97690000D02*
X150400000Y-97690000D01*
X149630000Y-99060000D02*
X150400000Y-99060000D01*
X157710000Y-99060000D02*
X156940000Y-99060000D01*
%TO.C,C1*%
X102655000Y-86590000D02*
X102670000Y-86590000D01*
X100530000Y-86590000D02*
X100545000Y-86590000D01*
X102655000Y-91130000D02*
X102670000Y-91130000D01*
X100530000Y-91130000D02*
X100545000Y-91130000D01*
X102670000Y-91130000D02*
X102670000Y-86590000D01*
X100530000Y-91130000D02*
X100530000Y-86590000D01*
%TO.C,C2*%
X111990000Y-80210000D02*
X116530000Y-80210000D01*
X111990000Y-82350000D02*
X116530000Y-82350000D01*
X111990000Y-80210000D02*
X111990000Y-80225000D01*
X111990000Y-82335000D02*
X111990000Y-82350000D01*
X116530000Y-80210000D02*
X116530000Y-80225000D01*
X116530000Y-82335000D02*
X116530000Y-82350000D01*
%TO.C,C3*%
X137390000Y-80210000D02*
X141930000Y-80210000D01*
X137390000Y-82350000D02*
X141930000Y-82350000D01*
X137390000Y-80210000D02*
X137390000Y-80225000D01*
X137390000Y-82335000D02*
X137390000Y-82350000D01*
X141930000Y-80210000D02*
X141930000Y-80225000D01*
X141930000Y-82335000D02*
X141930000Y-82350000D01*
%TO.C,C4*%
X167410000Y-82335000D02*
X167410000Y-82350000D01*
X167410000Y-80210000D02*
X167410000Y-80225000D01*
X162870000Y-82335000D02*
X162870000Y-82350000D01*
X162870000Y-80210000D02*
X162870000Y-80225000D01*
X162870000Y-82350000D02*
X167410000Y-82350000D01*
X162870000Y-80210000D02*
X167410000Y-80210000D01*
%TO.C,C5*%
X167425000Y-70160000D02*
X167440000Y-70160000D01*
X165300000Y-70160000D02*
X165315000Y-70160000D01*
X167425000Y-74700000D02*
X167440000Y-74700000D01*
X165300000Y-74700000D02*
X165315000Y-74700000D01*
X167440000Y-74700000D02*
X167440000Y-70160000D01*
X165300000Y-74700000D02*
X165300000Y-70160000D01*
%TO.C,C6*%
X162870000Y-95465000D02*
X162870000Y-95450000D01*
X162870000Y-97590000D02*
X162870000Y-97575000D01*
X167410000Y-95465000D02*
X167410000Y-95450000D01*
X167410000Y-97590000D02*
X167410000Y-97575000D01*
X167410000Y-95450000D02*
X162870000Y-95450000D01*
X167410000Y-97590000D02*
X162870000Y-97590000D01*
%TO.C,C7*%
X142010000Y-97590000D02*
X137470000Y-97590000D01*
X142010000Y-95450000D02*
X137470000Y-95450000D01*
X142010000Y-97590000D02*
X142010000Y-97575000D01*
X142010000Y-95465000D02*
X142010000Y-95450000D01*
X137470000Y-97590000D02*
X137470000Y-97575000D01*
X137470000Y-95465000D02*
X137470000Y-95450000D01*
%TO.C,C8*%
X116610000Y-97590000D02*
X112070000Y-97590000D01*
X116610000Y-95450000D02*
X112070000Y-95450000D01*
X116610000Y-97590000D02*
X116610000Y-97575000D01*
X116610000Y-95465000D02*
X116610000Y-95450000D01*
X112070000Y-97590000D02*
X112070000Y-97575000D01*
X112070000Y-95465000D02*
X112070000Y-95450000D01*
%TO.C,C9*%
X100530000Y-124230000D02*
X100530000Y-119690000D01*
X102670000Y-124230000D02*
X102670000Y-119690000D01*
X100530000Y-124230000D02*
X100545000Y-124230000D01*
X102655000Y-124230000D02*
X102670000Y-124230000D01*
X100530000Y-119690000D02*
X100545000Y-119690000D01*
X102655000Y-119690000D02*
X102670000Y-119690000D01*
%TO.C,C10*%
X116530000Y-115355000D02*
X116530000Y-115370000D01*
X116530000Y-113230000D02*
X116530000Y-113245000D01*
X111990000Y-115355000D02*
X111990000Y-115370000D01*
X111990000Y-113230000D02*
X111990000Y-113245000D01*
X111990000Y-115370000D02*
X116530000Y-115370000D01*
X111990000Y-113230000D02*
X116530000Y-113230000D01*
%TO.C,C11*%
X112070000Y-128485000D02*
X112070000Y-128470000D01*
X112070000Y-130610000D02*
X112070000Y-130595000D01*
X116610000Y-128485000D02*
X116610000Y-128470000D01*
X116610000Y-130610000D02*
X116610000Y-130595000D01*
X116610000Y-128470000D02*
X112070000Y-128470000D01*
X116610000Y-130610000D02*
X112070000Y-130610000D01*
%TO.C,C12*%
X137390000Y-113230000D02*
X141930000Y-113230000D01*
X137390000Y-115370000D02*
X141930000Y-115370000D01*
X137390000Y-113230000D02*
X137390000Y-113245000D01*
X137390000Y-115355000D02*
X137390000Y-115370000D01*
X141930000Y-113230000D02*
X141930000Y-113245000D01*
X141930000Y-115355000D02*
X141930000Y-115370000D01*
%TO.C,C13*%
X142010000Y-130610000D02*
X137470000Y-130610000D01*
X142010000Y-128470000D02*
X137470000Y-128470000D01*
X142010000Y-130610000D02*
X142010000Y-130595000D01*
X142010000Y-128485000D02*
X142010000Y-128470000D01*
X137470000Y-130610000D02*
X137470000Y-130595000D01*
X137470000Y-128485000D02*
X137470000Y-128470000D01*
%TO.C,C14*%
X162790000Y-113230000D02*
X167330000Y-113230000D01*
X162790000Y-115370000D02*
X167330000Y-115370000D01*
X162790000Y-113230000D02*
X162790000Y-113245000D01*
X162790000Y-115355000D02*
X162790000Y-115370000D01*
X167330000Y-113230000D02*
X167330000Y-113245000D01*
X167330000Y-115355000D02*
X167330000Y-115370000D01*
%TO.C,C15*%
X176745000Y-124230000D02*
X176730000Y-124230000D01*
X178870000Y-124230000D02*
X178855000Y-124230000D01*
X176745000Y-119690000D02*
X176730000Y-119690000D01*
X178870000Y-119690000D02*
X178855000Y-119690000D01*
X176730000Y-119690000D02*
X176730000Y-124230000D01*
X178870000Y-119690000D02*
X178870000Y-124230000D01*
%TO.C,C16*%
X162870000Y-128485000D02*
X162870000Y-128470000D01*
X162870000Y-130610000D02*
X162870000Y-130595000D01*
X167410000Y-128485000D02*
X167410000Y-128470000D01*
X167410000Y-130610000D02*
X167410000Y-130595000D01*
X167410000Y-128470000D02*
X162870000Y-128470000D01*
X167410000Y-130610000D02*
X162870000Y-130610000D01*
%TO.C,J1*%
X252670000Y-122234000D02*
X255330000Y-122234000D01*
X252670000Y-104394000D02*
X252670000Y-122234000D01*
X255330000Y-104394000D02*
X255330000Y-122234000D01*
X252670000Y-104394000D02*
X255330000Y-104394000D01*
X252670000Y-103124000D02*
X252670000Y-101794000D01*
X252670000Y-101794000D02*
X254000000Y-101794000D01*
%TO.C,J2*%
X252670000Y-140522000D02*
X255330000Y-140522000D01*
X252670000Y-127762000D02*
X252670000Y-140522000D01*
X255330000Y-127762000D02*
X255330000Y-140522000D01*
X252670000Y-127762000D02*
X255330000Y-127762000D01*
X252670000Y-126492000D02*
X252670000Y-125162000D01*
X252670000Y-125162000D02*
X254000000Y-125162000D01*
%TO.C,J3*%
X247590000Y-101794000D02*
X248920000Y-101794000D01*
X247590000Y-103124000D02*
X247590000Y-101794000D01*
X247590000Y-104394000D02*
X250250000Y-104394000D01*
X250250000Y-104394000D02*
X250250000Y-122234000D01*
X247590000Y-104394000D02*
X247590000Y-122234000D01*
X247590000Y-122234000D02*
X250250000Y-122234000D01*
%TO.C,J4*%
X247590000Y-125162000D02*
X248920000Y-125162000D01*
X247590000Y-126492000D02*
X247590000Y-125162000D01*
X247590000Y-127762000D02*
X250250000Y-127762000D01*
X250250000Y-127762000D02*
X250250000Y-140522000D01*
X247590000Y-127762000D02*
X247590000Y-140522000D01*
X247590000Y-140522000D02*
X250250000Y-140522000D01*
%TO.C,J5*%
X199330000Y-118170000D02*
X201990000Y-118170000D01*
X199330000Y-95250000D02*
X199330000Y-118170000D01*
X201990000Y-95250000D02*
X201990000Y-118170000D01*
X199330000Y-95250000D02*
X201990000Y-95250000D01*
X199330000Y-93980000D02*
X199330000Y-92650000D01*
X199330000Y-92650000D02*
X200660000Y-92650000D01*
%TO.C,J6*%
X194250000Y-140522000D02*
X196910000Y-140522000D01*
X194250000Y-122682000D02*
X194250000Y-140522000D01*
X196910000Y-122682000D02*
X196910000Y-140522000D01*
X194250000Y-122682000D02*
X196910000Y-122682000D01*
X194250000Y-121412000D02*
X194250000Y-120082000D01*
X194250000Y-120082000D02*
X195580000Y-120082000D01*
%TO.C,J7*%
X194250000Y-92650000D02*
X195580000Y-92650000D01*
X194250000Y-93980000D02*
X194250000Y-92650000D01*
X194250000Y-95250000D02*
X196910000Y-95250000D01*
X196910000Y-95250000D02*
X196910000Y-118170000D01*
X194250000Y-95250000D02*
X194250000Y-118170000D01*
X194250000Y-118170000D02*
X196910000Y-118170000D01*
%TO.C,J8*%
X199330000Y-120082000D02*
X200660000Y-120082000D01*
X199330000Y-121412000D02*
X199330000Y-120082000D01*
X199330000Y-122682000D02*
X201990000Y-122682000D01*
X201990000Y-122682000D02*
X201990000Y-140522000D01*
X199330000Y-122682000D02*
X199330000Y-140522000D01*
X199330000Y-140522000D02*
X201990000Y-140522000D01*
%TO.C,J9*%
X200600000Y-60900000D02*
X201930000Y-60900000D01*
X200600000Y-62230000D02*
X200600000Y-60900000D01*
X200600000Y-63500000D02*
X203260000Y-63500000D01*
X203260000Y-63500000D02*
X203260000Y-73720000D01*
X200600000Y-63500000D02*
X200600000Y-73720000D01*
X200600000Y-73720000D02*
X203260000Y-73720000D01*
%TO.C,J10*%
X115510000Y-148650000D02*
X115510000Y-147320000D01*
X116840000Y-148650000D02*
X115510000Y-148650000D01*
X118110000Y-148650000D02*
X118110000Y-145990000D01*
X118110000Y-145990000D02*
X166430000Y-145990000D01*
X118110000Y-148650000D02*
X166430000Y-148650000D01*
X166430000Y-148650000D02*
X166430000Y-145990000D01*
%TO.C,J11*%
X171510000Y-148650000D02*
X170180000Y-148650000D01*
X171510000Y-147320000D02*
X171510000Y-148650000D01*
X171510000Y-146050000D02*
X168850000Y-146050000D01*
X168850000Y-146050000D02*
X168850000Y-140910000D01*
X171510000Y-146050000D02*
X171510000Y-140910000D01*
X171510000Y-140910000D02*
X168850000Y-140910000D01*
%TO.C,J12*%
X152460000Y-53400000D02*
X152460000Y-50740000D01*
X144780000Y-53400000D02*
X152460000Y-53400000D01*
X144780000Y-50740000D02*
X152460000Y-50740000D01*
X144780000Y-53400000D02*
X144780000Y-50740000D01*
X143510000Y-53400000D02*
X142180000Y-53400000D01*
X142180000Y-53400000D02*
X142180000Y-52070000D01*
%TO.C,J13*%
X156150000Y-53400000D02*
X156150000Y-52070000D01*
X157480000Y-53400000D02*
X156150000Y-53400000D01*
X158750000Y-53400000D02*
X158750000Y-50740000D01*
X158750000Y-50740000D02*
X166430000Y-50740000D01*
X158750000Y-53400000D02*
X166430000Y-53400000D01*
X166430000Y-53400000D02*
X166430000Y-50740000D01*
%TO.C,J14*%
X182940000Y-53400000D02*
X182940000Y-50740000D01*
X175260000Y-53400000D02*
X182940000Y-53400000D01*
X175260000Y-50740000D02*
X182940000Y-50740000D01*
X175260000Y-53400000D02*
X175260000Y-50740000D01*
X173990000Y-53400000D02*
X172660000Y-53400000D01*
X172660000Y-53400000D02*
X172660000Y-52070000D01*
%TO.C,J15*%
X186630000Y-53400000D02*
X186630000Y-52070000D01*
X187960000Y-53400000D02*
X186630000Y-53400000D01*
X189230000Y-53400000D02*
X189230000Y-50740000D01*
X189230000Y-50740000D02*
X196910000Y-50740000D01*
X189230000Y-53400000D02*
X196910000Y-53400000D01*
X196910000Y-53400000D02*
X196910000Y-50740000D01*
%TO.C,J16*%
X166430000Y-144840000D02*
X166430000Y-142180000D01*
X118110000Y-144840000D02*
X166430000Y-144840000D01*
X118110000Y-142180000D02*
X166430000Y-142180000D01*
X118110000Y-144840000D02*
X118110000Y-142180000D01*
X116840000Y-144840000D02*
X115510000Y-144840000D01*
X115510000Y-144840000D02*
X115510000Y-143510000D01*
%TO.C,J17*%
X142180000Y-61020000D02*
X142180000Y-59690000D01*
X143510000Y-61020000D02*
X142180000Y-61020000D01*
X144780000Y-61020000D02*
X144780000Y-58360000D01*
X144780000Y-58360000D02*
X152460000Y-58360000D01*
X144780000Y-61020000D02*
X152460000Y-61020000D01*
X152460000Y-61020000D02*
X152460000Y-58360000D01*
%TO.C,J18*%
X166430000Y-61020000D02*
X166430000Y-58360000D01*
X158750000Y-61020000D02*
X166430000Y-61020000D01*
X158750000Y-58360000D02*
X166430000Y-58360000D01*
X158750000Y-61020000D02*
X158750000Y-58360000D01*
X157480000Y-61020000D02*
X156150000Y-61020000D01*
X156150000Y-61020000D02*
X156150000Y-59690000D01*
%TO.C,J19*%
X182940000Y-61020000D02*
X182940000Y-58360000D01*
X175260000Y-61020000D02*
X182940000Y-61020000D01*
X175260000Y-58360000D02*
X182940000Y-58360000D01*
X175260000Y-61020000D02*
X175260000Y-58360000D01*
X173990000Y-61020000D02*
X172660000Y-61020000D01*
X172660000Y-61020000D02*
X172660000Y-59690000D01*
%TO.C,J20*%
X186630000Y-61020000D02*
X186630000Y-59690000D01*
X187960000Y-61020000D02*
X186630000Y-61020000D01*
X189230000Y-61020000D02*
X189230000Y-58360000D01*
X189230000Y-58360000D02*
X196910000Y-58360000D01*
X189230000Y-61020000D02*
X196910000Y-61020000D01*
X196910000Y-61020000D02*
X196910000Y-58360000D01*
%TO.C,Q1*%
X103410000Y-87049000D02*
X104920000Y-87049000D01*
X103410000Y-90750000D02*
X104920000Y-90750000D01*
X104920000Y-94020000D02*
X104920000Y-83780000D01*
X103410000Y-83780000D02*
X108051000Y-83780000D01*
X103410000Y-94020000D02*
X108051000Y-94020000D01*
X108051000Y-94020000D02*
X108051000Y-83780000D01*
X103410000Y-94020000D02*
X103410000Y-83780000D01*
%TO.C,Q2*%
X116151000Y-83090000D02*
X116151000Y-84600000D01*
X112450000Y-83090000D02*
X112450000Y-84600000D01*
X109180000Y-84600000D02*
X119420000Y-84600000D01*
X119420000Y-83090000D02*
X119420000Y-87731000D01*
X109180000Y-83090000D02*
X109180000Y-87731000D01*
X109180000Y-87731000D02*
X119420000Y-87731000D01*
X109180000Y-83090000D02*
X119420000Y-83090000D01*
%TO.C,Q3*%
X134580000Y-83090000D02*
X144820000Y-83090000D01*
X134580000Y-87731000D02*
X144820000Y-87731000D01*
X134580000Y-83090000D02*
X134580000Y-87731000D01*
X144820000Y-83090000D02*
X144820000Y-87731000D01*
X134580000Y-84600000D02*
X144820000Y-84600000D01*
X137850000Y-83090000D02*
X137850000Y-84600000D01*
X141551000Y-83090000D02*
X141551000Y-84600000D01*
%TO.C,Q4*%
X159980000Y-83090000D02*
X170220000Y-83090000D01*
X159980000Y-87731000D02*
X170220000Y-87731000D01*
X159980000Y-83090000D02*
X159980000Y-87731000D01*
X170220000Y-83090000D02*
X170220000Y-87731000D01*
X159980000Y-84600000D02*
X170220000Y-84600000D01*
X163250000Y-83090000D02*
X163250000Y-84600000D01*
X166951000Y-83090000D02*
X166951000Y-84600000D01*
%TO.C,Q6*%
X163249000Y-94710000D02*
X163249000Y-93200000D01*
X166950000Y-94710000D02*
X166950000Y-93200000D01*
X170220000Y-93200000D02*
X159980000Y-93200000D01*
X159980000Y-94710000D02*
X159980000Y-90069000D01*
X170220000Y-94710000D02*
X170220000Y-90069000D01*
X170220000Y-90069000D02*
X159980000Y-90069000D01*
X170220000Y-94710000D02*
X159980000Y-94710000D01*
%TO.C,Q7*%
X137849000Y-94710000D02*
X137849000Y-93200000D01*
X141550000Y-94710000D02*
X141550000Y-93200000D01*
X144820000Y-93200000D02*
X134580000Y-93200000D01*
X134580000Y-94710000D02*
X134580000Y-90069000D01*
X144820000Y-94710000D02*
X144820000Y-90069000D01*
X144820000Y-90069000D02*
X134580000Y-90069000D01*
X144820000Y-94710000D02*
X134580000Y-94710000D01*
%TO.C,Q8*%
X119420000Y-94710000D02*
X109180000Y-94710000D01*
X119420000Y-90069000D02*
X109180000Y-90069000D01*
X119420000Y-94710000D02*
X119420000Y-90069000D01*
X109180000Y-94710000D02*
X109180000Y-90069000D01*
X119420000Y-93200000D02*
X109180000Y-93200000D01*
X116150000Y-94710000D02*
X116150000Y-93200000D01*
X112449000Y-94710000D02*
X112449000Y-93200000D01*
%TO.C,Q9*%
X103410000Y-127040000D02*
X103410000Y-116800000D01*
X108051000Y-127040000D02*
X108051000Y-116800000D01*
X103410000Y-127040000D02*
X108051000Y-127040000D01*
X103410000Y-116800000D02*
X108051000Y-116800000D01*
X104920000Y-127040000D02*
X104920000Y-116800000D01*
X103410000Y-123770000D02*
X104920000Y-123770000D01*
X103410000Y-120069000D02*
X104920000Y-120069000D01*
%TO.C,Q10*%
X109180000Y-116110000D02*
X119420000Y-116110000D01*
X109180000Y-120751000D02*
X119420000Y-120751000D01*
X109180000Y-116110000D02*
X109180000Y-120751000D01*
X119420000Y-116110000D02*
X119420000Y-120751000D01*
X109180000Y-117620000D02*
X119420000Y-117620000D01*
X112450000Y-116110000D02*
X112450000Y-117620000D01*
X116151000Y-116110000D02*
X116151000Y-117620000D01*
%TO.C,Q11*%
X112449000Y-127730000D02*
X112449000Y-126220000D01*
X116150000Y-127730000D02*
X116150000Y-126220000D01*
X119420000Y-126220000D02*
X109180000Y-126220000D01*
X109180000Y-127730000D02*
X109180000Y-123089000D01*
X119420000Y-127730000D02*
X119420000Y-123089000D01*
X119420000Y-123089000D02*
X109180000Y-123089000D01*
X119420000Y-127730000D02*
X109180000Y-127730000D01*
%TO.C,Q12*%
X134580000Y-116110000D02*
X144820000Y-116110000D01*
X134580000Y-120751000D02*
X144820000Y-120751000D01*
X134580000Y-116110000D02*
X134580000Y-120751000D01*
X144820000Y-116110000D02*
X144820000Y-120751000D01*
X134580000Y-117620000D02*
X144820000Y-117620000D01*
X137850000Y-116110000D02*
X137850000Y-117620000D01*
X141551000Y-116110000D02*
X141551000Y-117620000D01*
%TO.C,Q13*%
X137849000Y-127730000D02*
X137849000Y-126220000D01*
X141550000Y-127730000D02*
X141550000Y-126220000D01*
X144820000Y-126220000D02*
X134580000Y-126220000D01*
X134580000Y-127730000D02*
X134580000Y-123089000D01*
X144820000Y-127730000D02*
X144820000Y-123089000D01*
X144820000Y-123089000D02*
X134580000Y-123089000D01*
X144820000Y-127730000D02*
X134580000Y-127730000D01*
%TO.C,Q14*%
X166951000Y-116110000D02*
X166951000Y-117620000D01*
X163250000Y-116110000D02*
X163250000Y-117620000D01*
X159980000Y-117620000D02*
X170220000Y-117620000D01*
X170220000Y-116110000D02*
X170220000Y-120751000D01*
X159980000Y-116110000D02*
X159980000Y-120751000D01*
X159980000Y-120751000D02*
X170220000Y-120751000D01*
X159980000Y-116110000D02*
X170220000Y-116110000D01*
%TO.C,Q15*%
X175990000Y-123771000D02*
X174480000Y-123771000D01*
X175990000Y-120070000D02*
X174480000Y-120070000D01*
X174480000Y-116800000D02*
X174480000Y-127040000D01*
X175990000Y-127040000D02*
X171349000Y-127040000D01*
X175990000Y-116800000D02*
X171349000Y-116800000D01*
X171349000Y-116800000D02*
X171349000Y-127040000D01*
X175990000Y-116800000D02*
X175990000Y-127040000D01*
%TO.C,Q16*%
X170220000Y-127730000D02*
X159980000Y-127730000D01*
X170220000Y-123089000D02*
X159980000Y-123089000D01*
X170220000Y-127730000D02*
X170220000Y-123089000D01*
X159980000Y-127730000D02*
X159980000Y-123089000D01*
X170220000Y-126220000D02*
X159980000Y-126220000D01*
X166950000Y-127730000D02*
X166950000Y-126220000D01*
X163249000Y-127730000D02*
X163249000Y-126220000D01*
%TO.C,R1*%
X99060000Y-90400000D02*
X99060000Y-89630000D01*
X99060000Y-82320000D02*
X99060000Y-83090000D01*
X100430000Y-89630000D02*
X100430000Y-83090000D01*
X97690000Y-89630000D02*
X100430000Y-89630000D01*
X97690000Y-83090000D02*
X97690000Y-89630000D01*
X100430000Y-83090000D02*
X97690000Y-83090000D01*
%TO.C,R2*%
X113130000Y-70390000D02*
X110390000Y-70390000D01*
X110390000Y-70390000D02*
X110390000Y-76930000D01*
X110390000Y-76930000D02*
X113130000Y-76930000D01*
X113130000Y-76930000D02*
X113130000Y-70390000D01*
X111760000Y-69620000D02*
X111760000Y-70390000D01*
X111760000Y-77700000D02*
X111760000Y-76930000D01*
%TO.C,R3*%
X137160000Y-77700000D02*
X137160000Y-76930000D01*
X137160000Y-69620000D02*
X137160000Y-70390000D01*
X138530000Y-76930000D02*
X138530000Y-70390000D01*
X135790000Y-76930000D02*
X138530000Y-76930000D01*
X135790000Y-70390000D02*
X135790000Y-76930000D01*
X138530000Y-70390000D02*
X135790000Y-70390000D01*
%TO.C,R5*%
X161520000Y-74930000D02*
X160750000Y-74930000D01*
X153440000Y-74930000D02*
X154210000Y-74930000D01*
X160750000Y-73560000D02*
X154210000Y-73560000D01*
X160750000Y-76300000D02*
X160750000Y-73560000D01*
X154210000Y-76300000D02*
X160750000Y-76300000D01*
X154210000Y-73560000D02*
X154210000Y-76300000D01*
%TO.C,R7*%
X141200000Y-99060000D02*
X140430000Y-99060000D01*
X133120000Y-99060000D02*
X133890000Y-99060000D01*
X140430000Y-97690000D02*
X133890000Y-97690000D01*
X140430000Y-100430000D02*
X140430000Y-97690000D01*
X133890000Y-100430000D02*
X140430000Y-100430000D01*
X133890000Y-97690000D02*
X133890000Y-100430000D01*
%TO.C,R8*%
X108490000Y-97690000D02*
X108490000Y-100430000D01*
X108490000Y-100430000D02*
X115030000Y-100430000D01*
X115030000Y-100430000D02*
X115030000Y-97690000D01*
X115030000Y-97690000D02*
X108490000Y-97690000D01*
X107720000Y-99060000D02*
X108490000Y-99060000D01*
X115800000Y-99060000D02*
X115030000Y-99060000D01*
%TO.C,R9*%
X100430000Y-116110000D02*
X97690000Y-116110000D01*
X97690000Y-116110000D02*
X97690000Y-122650000D01*
X97690000Y-122650000D02*
X100430000Y-122650000D01*
X100430000Y-122650000D02*
X100430000Y-116110000D01*
X99060000Y-115340000D02*
X99060000Y-116110000D01*
X99060000Y-123420000D02*
X99060000Y-122650000D01*
%TO.C,R10*%
X120110000Y-113130000D02*
X120110000Y-110390000D01*
X120110000Y-110390000D02*
X113570000Y-110390000D01*
X113570000Y-110390000D02*
X113570000Y-113130000D01*
X113570000Y-113130000D02*
X120110000Y-113130000D01*
X120880000Y-111760000D02*
X120110000Y-111760000D01*
X112800000Y-111760000D02*
X113570000Y-111760000D01*
%TO.C,R11*%
X121920000Y-128500000D02*
X121920000Y-127730000D01*
X121920000Y-120420000D02*
X121920000Y-121190000D01*
X123290000Y-127730000D02*
X123290000Y-121190000D01*
X120550000Y-127730000D02*
X123290000Y-127730000D01*
X120550000Y-121190000D02*
X120550000Y-127730000D01*
X123290000Y-121190000D02*
X120550000Y-121190000D01*
%TO.C,R12*%
X145510000Y-113130000D02*
X145510000Y-110390000D01*
X145510000Y-110390000D02*
X138970000Y-110390000D01*
X138970000Y-110390000D02*
X138970000Y-113130000D01*
X138970000Y-113130000D02*
X145510000Y-113130000D01*
X146280000Y-111760000D02*
X145510000Y-111760000D01*
X138200000Y-111760000D02*
X138970000Y-111760000D01*
%TO.C,R13*%
X147320000Y-128500000D02*
X147320000Y-127730000D01*
X147320000Y-120420000D02*
X147320000Y-121190000D01*
X148690000Y-127730000D02*
X148690000Y-121190000D01*
X145950000Y-127730000D02*
X148690000Y-127730000D01*
X145950000Y-121190000D02*
X145950000Y-127730000D01*
X148690000Y-121190000D02*
X145950000Y-121190000D01*
%TO.C,R14*%
X163600000Y-111760000D02*
X164370000Y-111760000D01*
X171680000Y-111760000D02*
X170910000Y-111760000D01*
X164370000Y-113130000D02*
X170910000Y-113130000D01*
X164370000Y-110390000D02*
X164370000Y-113130000D01*
X170910000Y-110390000D02*
X164370000Y-110390000D01*
X170910000Y-113130000D02*
X170910000Y-110390000D01*
%TO.C,R15*%
X180340000Y-118340000D02*
X180340000Y-117570000D01*
X180340000Y-110260000D02*
X180340000Y-111030000D01*
X181710000Y-117570000D02*
X181710000Y-111030000D01*
X178970000Y-117570000D02*
X181710000Y-117570000D01*
X178970000Y-111030000D02*
X178970000Y-117570000D01*
X181710000Y-111030000D02*
X178970000Y-111030000D01*
%TO.C,R16*%
X178530000Y-130910000D02*
X178530000Y-128170000D01*
X178530000Y-128170000D02*
X171990000Y-128170000D01*
X171990000Y-128170000D02*
X171990000Y-130910000D01*
X171990000Y-130910000D02*
X178530000Y-130910000D01*
X179300000Y-129540000D02*
X178530000Y-129540000D01*
X171220000Y-129540000D02*
X171990000Y-129540000D01*
%TO.C,J21*%
X234890000Y-50740000D02*
X236220000Y-50740000D01*
X234890000Y-52070000D02*
X234890000Y-50740000D01*
X234890000Y-53340000D02*
X237550000Y-53340000D01*
X237550000Y-53340000D02*
X237550000Y-63560000D01*
X234890000Y-53340000D02*
X234890000Y-63560000D01*
X234890000Y-63560000D02*
X237550000Y-63560000D01*
%TO.C,J22*%
X229175000Y-55940000D02*
X231835000Y-55940000D01*
X229175000Y-53340000D02*
X229175000Y-55940000D01*
X231835000Y-53340000D02*
X231835000Y-55940000D01*
X229175000Y-53340000D02*
X231835000Y-53340000D01*
X229175000Y-52070000D02*
X229175000Y-50740000D01*
X229175000Y-50740000D02*
X230505000Y-50740000D01*
%TO.C,J23*%
X239970000Y-63560000D02*
X242630000Y-63560000D01*
X239970000Y-53340000D02*
X239970000Y-63560000D01*
X242630000Y-53340000D02*
X242630000Y-63560000D01*
X239970000Y-53340000D02*
X242630000Y-53340000D01*
X239970000Y-52070000D02*
X239970000Y-50740000D01*
X239970000Y-50740000D02*
X241300000Y-50740000D01*
%TO.C,J24*%
X223460000Y-50740000D02*
X224790000Y-50740000D01*
X223460000Y-52070000D02*
X223460000Y-50740000D01*
X223460000Y-53340000D02*
X226120000Y-53340000D01*
X226120000Y-53340000D02*
X226120000Y-55940000D01*
X223460000Y-53340000D02*
X223460000Y-55940000D01*
X223460000Y-55940000D02*
X226120000Y-55940000D01*
%TO.C,DH4*%
D11*
X250198095Y-150092380D02*
X250198095Y-149092380D01*
X250436190Y-149092380D01*
X250579047Y-149140000D01*
X250674285Y-149235238D01*
X250721904Y-149330476D01*
X250769523Y-149520952D01*
X250769523Y-149663809D01*
X250721904Y-149854285D01*
X250674285Y-149949523D01*
X250579047Y-150044761D01*
X250436190Y-150092380D01*
X250198095Y-150092380D01*
X251198095Y-150092380D02*
X251198095Y-149092380D01*
X251198095Y-149568571D02*
X251769523Y-149568571D01*
X251769523Y-150092380D02*
X251769523Y-149092380D01*
X252674285Y-149425714D02*
X252674285Y-150092380D01*
X252436190Y-149044761D02*
X252198095Y-149759047D01*
X252817142Y-149759047D01*
%TO.C,DH3*%
X97798095Y-150092380D02*
X97798095Y-149092380D01*
X98036190Y-149092380D01*
X98179047Y-149140000D01*
X98274285Y-149235238D01*
X98321904Y-149330476D01*
X98369523Y-149520952D01*
X98369523Y-149663809D01*
X98321904Y-149854285D01*
X98274285Y-149949523D01*
X98179047Y-150044761D01*
X98036190Y-150092380D01*
X97798095Y-150092380D01*
X98798095Y-150092380D02*
X98798095Y-149092380D01*
X98798095Y-149568571D02*
X99369523Y-149568571D01*
X99369523Y-150092380D02*
X99369523Y-149092380D01*
X99750476Y-149092380D02*
X100369523Y-149092380D01*
X100036190Y-149473333D01*
X100179047Y-149473333D01*
X100274285Y-149520952D01*
X100321904Y-149568571D01*
X100369523Y-149663809D01*
X100369523Y-149901904D01*
X100321904Y-149997142D01*
X100274285Y-150044761D01*
X100179047Y-150092380D01*
X99893333Y-150092380D01*
X99798095Y-150044761D01*
X99750476Y-149997142D01*
%TO.C,DH1*%
X97798095Y-51032380D02*
X97798095Y-50032380D01*
X98036190Y-50032380D01*
X98179047Y-50080000D01*
X98274285Y-50175238D01*
X98321904Y-50270476D01*
X98369523Y-50460952D01*
X98369523Y-50603809D01*
X98321904Y-50794285D01*
X98274285Y-50889523D01*
X98179047Y-50984761D01*
X98036190Y-51032380D01*
X97798095Y-51032380D01*
X98798095Y-51032380D02*
X98798095Y-50032380D01*
X98798095Y-50508571D02*
X99369523Y-50508571D01*
X99369523Y-51032380D02*
X99369523Y-50032380D01*
X100369523Y-51032380D02*
X99798095Y-51032380D01*
X100083809Y-51032380D02*
X100083809Y-50032380D01*
X99988571Y-50175238D01*
X99893333Y-50270476D01*
X99798095Y-50318095D01*
%TO.C,DH2*%
X250198095Y-51032380D02*
X250198095Y-50032380D01*
X250436190Y-50032380D01*
X250579047Y-50080000D01*
X250674285Y-50175238D01*
X250721904Y-50270476D01*
X250769523Y-50460952D01*
X250769523Y-50603809D01*
X250721904Y-50794285D01*
X250674285Y-50889523D01*
X250579047Y-50984761D01*
X250436190Y-51032380D01*
X250198095Y-51032380D01*
X251198095Y-51032380D02*
X251198095Y-50032380D01*
X251198095Y-50508571D02*
X251769523Y-50508571D01*
X251769523Y-51032380D02*
X251769523Y-50032380D01*
X252198095Y-50127619D02*
X252245714Y-50080000D01*
X252340952Y-50032380D01*
X252579047Y-50032380D01*
X252674285Y-50080000D01*
X252721904Y-50127619D01*
X252769523Y-50222857D01*
X252769523Y-50318095D01*
X252721904Y-50460952D01*
X252150476Y-51032380D01*
X252769523Y-51032380D01*
%TO.C,Q5*%
X175807619Y-96615238D02*
X175760000Y-96710476D01*
X175664761Y-96805714D01*
X175521904Y-96948571D01*
X175474285Y-97043809D01*
X175474285Y-97139047D01*
X175712380Y-97091428D02*
X175664761Y-97186666D01*
X175569523Y-97281904D01*
X175379047Y-97329523D01*
X175045714Y-97329523D01*
X174855238Y-97281904D01*
X174760000Y-97186666D01*
X174712380Y-97091428D01*
X174712380Y-96900952D01*
X174760000Y-96805714D01*
X174855238Y-96710476D01*
X175045714Y-96662857D01*
X175379047Y-96662857D01*
X175569523Y-96710476D01*
X175664761Y-96805714D01*
X175712380Y-96900952D01*
X175712380Y-97091428D01*
X174712380Y-95758095D02*
X174712380Y-96234285D01*
X175188571Y-96281904D01*
X175140952Y-96234285D01*
X175093333Y-96139047D01*
X175093333Y-95900952D01*
X175140952Y-95805714D01*
X175188571Y-95758095D01*
X175283809Y-95710476D01*
X175521904Y-95710476D01*
X175617142Y-95758095D01*
X175664761Y-95805714D01*
X175712380Y-95900952D01*
X175712380Y-96139047D01*
X175664761Y-96234285D01*
X175617142Y-96281904D01*
%TO.C,R4*%
X154773333Y-81732380D02*
X154440000Y-81256190D01*
X154201904Y-81732380D02*
X154201904Y-80732380D01*
X154582857Y-80732380D01*
X154678095Y-80780000D01*
X154725714Y-80827619D01*
X154773333Y-80922857D01*
X154773333Y-81065714D01*
X154725714Y-81160952D01*
X154678095Y-81208571D01*
X154582857Y-81256190D01*
X154201904Y-81256190D01*
X155630476Y-81065714D02*
X155630476Y-81732380D01*
X155392380Y-80684761D02*
X155154285Y-81399047D01*
X155773333Y-81399047D01*
%TO.C,R6*%
X150963333Y-102052380D02*
X150630000Y-101576190D01*
X150391904Y-102052380D02*
X150391904Y-101052380D01*
X150772857Y-101052380D01*
X150868095Y-101100000D01*
X150915714Y-101147619D01*
X150963333Y-101242857D01*
X150963333Y-101385714D01*
X150915714Y-101480952D01*
X150868095Y-101528571D01*
X150772857Y-101576190D01*
X150391904Y-101576190D01*
X151820476Y-101052380D02*
X151630000Y-101052380D01*
X151534761Y-101100000D01*
X151487142Y-101147619D01*
X151391904Y-101290476D01*
X151344285Y-101480952D01*
X151344285Y-101861904D01*
X151391904Y-101957142D01*
X151439523Y-102004761D01*
X151534761Y-102052380D01*
X151725238Y-102052380D01*
X151820476Y-102004761D01*
X151868095Y-101957142D01*
X151915714Y-101861904D01*
X151915714Y-101623809D01*
X151868095Y-101528571D01*
X151820476Y-101480952D01*
X151725238Y-101433333D01*
X151534761Y-101433333D01*
X151439523Y-101480952D01*
X151391904Y-101528571D01*
X151344285Y-101623809D01*
%TO.C,C1*%
X101957142Y-81446666D02*
X102004761Y-81494285D01*
X102052380Y-81637142D01*
X102052380Y-81732380D01*
X102004761Y-81875238D01*
X101909523Y-81970476D01*
X101814285Y-82018095D01*
X101623809Y-82065714D01*
X101480952Y-82065714D01*
X101290476Y-82018095D01*
X101195238Y-81970476D01*
X101100000Y-81875238D01*
X101052380Y-81732380D01*
X101052380Y-81637142D01*
X101100000Y-81494285D01*
X101147619Y-81446666D01*
X102052380Y-80494285D02*
X102052380Y-81065714D01*
X102052380Y-80780000D02*
X101052380Y-80780000D01*
X101195238Y-80875238D01*
X101290476Y-80970476D01*
X101338095Y-81065714D01*
%TO.C,C2*%
X121753333Y-81637142D02*
X121705714Y-81684761D01*
X121562857Y-81732380D01*
X121467619Y-81732380D01*
X121324761Y-81684761D01*
X121229523Y-81589523D01*
X121181904Y-81494285D01*
X121134285Y-81303809D01*
X121134285Y-81160952D01*
X121181904Y-80970476D01*
X121229523Y-80875238D01*
X121324761Y-80780000D01*
X121467619Y-80732380D01*
X121562857Y-80732380D01*
X121705714Y-80780000D01*
X121753333Y-80827619D01*
X122134285Y-80827619D02*
X122181904Y-80780000D01*
X122277142Y-80732380D01*
X122515238Y-80732380D01*
X122610476Y-80780000D01*
X122658095Y-80827619D01*
X122705714Y-80922857D01*
X122705714Y-81018095D01*
X122658095Y-81160952D01*
X122086666Y-81732380D01*
X122705714Y-81732380D01*
%TO.C,C3*%
X131913333Y-81637142D02*
X131865714Y-81684761D01*
X131722857Y-81732380D01*
X131627619Y-81732380D01*
X131484761Y-81684761D01*
X131389523Y-81589523D01*
X131341904Y-81494285D01*
X131294285Y-81303809D01*
X131294285Y-81160952D01*
X131341904Y-80970476D01*
X131389523Y-80875238D01*
X131484761Y-80780000D01*
X131627619Y-80732380D01*
X131722857Y-80732380D01*
X131865714Y-80780000D01*
X131913333Y-80827619D01*
X132246666Y-80732380D02*
X132865714Y-80732380D01*
X132532380Y-81113333D01*
X132675238Y-81113333D01*
X132770476Y-81160952D01*
X132818095Y-81208571D01*
X132865714Y-81303809D01*
X132865714Y-81541904D01*
X132818095Y-81637142D01*
X132770476Y-81684761D01*
X132675238Y-81732380D01*
X132389523Y-81732380D01*
X132294285Y-81684761D01*
X132246666Y-81637142D01*
%TO.C,C4*%
X158583333Y-81637142D02*
X158535714Y-81684761D01*
X158392857Y-81732380D01*
X158297619Y-81732380D01*
X158154761Y-81684761D01*
X158059523Y-81589523D01*
X158011904Y-81494285D01*
X157964285Y-81303809D01*
X157964285Y-81160952D01*
X158011904Y-80970476D01*
X158059523Y-80875238D01*
X158154761Y-80780000D01*
X158297619Y-80732380D01*
X158392857Y-80732380D01*
X158535714Y-80780000D01*
X158583333Y-80827619D01*
X159440476Y-81065714D02*
X159440476Y-81732380D01*
X159202380Y-80684761D02*
X158964285Y-81399047D01*
X159583333Y-81399047D01*
%TO.C,C5*%
X169013142Y-72556666D02*
X169060761Y-72604285D01*
X169108380Y-72747142D01*
X169108380Y-72842380D01*
X169060761Y-72985238D01*
X168965523Y-73080476D01*
X168870285Y-73128095D01*
X168679809Y-73175714D01*
X168536952Y-73175714D01*
X168346476Y-73128095D01*
X168251238Y-73080476D01*
X168156000Y-72985238D01*
X168108380Y-72842380D01*
X168108380Y-72747142D01*
X168156000Y-72604285D01*
X168203619Y-72556666D01*
X168108380Y-71651904D02*
X168108380Y-72128095D01*
X168584571Y-72175714D01*
X168536952Y-72128095D01*
X168489333Y-72032857D01*
X168489333Y-71794761D01*
X168536952Y-71699523D01*
X168584571Y-71651904D01*
X168679809Y-71604285D01*
X168917904Y-71604285D01*
X169013142Y-71651904D01*
X169060761Y-71699523D01*
X169108380Y-71794761D01*
X169108380Y-72032857D01*
X169060761Y-72128095D01*
X169013142Y-72175714D01*
%TO.C,C6*%
X158583333Y-96877142D02*
X158535714Y-96924761D01*
X158392857Y-96972380D01*
X158297619Y-96972380D01*
X158154761Y-96924761D01*
X158059523Y-96829523D01*
X158011904Y-96734285D01*
X157964285Y-96543809D01*
X157964285Y-96400952D01*
X158011904Y-96210476D01*
X158059523Y-96115238D01*
X158154761Y-96020000D01*
X158297619Y-95972380D01*
X158392857Y-95972380D01*
X158535714Y-96020000D01*
X158583333Y-96067619D01*
X159440476Y-95972380D02*
X159250000Y-95972380D01*
X159154761Y-96020000D01*
X159107142Y-96067619D01*
X159011904Y-96210476D01*
X158964285Y-96400952D01*
X158964285Y-96781904D01*
X159011904Y-96877142D01*
X159059523Y-96924761D01*
X159154761Y-96972380D01*
X159345238Y-96972380D01*
X159440476Y-96924761D01*
X159488095Y-96877142D01*
X159535714Y-96781904D01*
X159535714Y-96543809D01*
X159488095Y-96448571D01*
X159440476Y-96400952D01*
X159345238Y-96353333D01*
X159154761Y-96353333D01*
X159059523Y-96400952D01*
X159011904Y-96448571D01*
X158964285Y-96543809D01*
%TO.C,C7*%
X131913333Y-96877142D02*
X131865714Y-96924761D01*
X131722857Y-96972380D01*
X131627619Y-96972380D01*
X131484761Y-96924761D01*
X131389523Y-96829523D01*
X131341904Y-96734285D01*
X131294285Y-96543809D01*
X131294285Y-96400952D01*
X131341904Y-96210476D01*
X131389523Y-96115238D01*
X131484761Y-96020000D01*
X131627619Y-95972380D01*
X131722857Y-95972380D01*
X131865714Y-96020000D01*
X131913333Y-96067619D01*
X132246666Y-95972380D02*
X132913333Y-95972380D01*
X132484761Y-96972380D01*
%TO.C,C8*%
X121753333Y-96877142D02*
X121705714Y-96924761D01*
X121562857Y-96972380D01*
X121467619Y-96972380D01*
X121324761Y-96924761D01*
X121229523Y-96829523D01*
X121181904Y-96734285D01*
X121134285Y-96543809D01*
X121134285Y-96400952D01*
X121181904Y-96210476D01*
X121229523Y-96115238D01*
X121324761Y-96020000D01*
X121467619Y-95972380D01*
X121562857Y-95972380D01*
X121705714Y-96020000D01*
X121753333Y-96067619D01*
X122324761Y-96400952D02*
X122229523Y-96353333D01*
X122181904Y-96305714D01*
X122134285Y-96210476D01*
X122134285Y-96162857D01*
X122181904Y-96067619D01*
X122229523Y-96020000D01*
X122324761Y-95972380D01*
X122515238Y-95972380D01*
X122610476Y-96020000D01*
X122658095Y-96067619D01*
X122705714Y-96162857D01*
X122705714Y-96210476D01*
X122658095Y-96305714D01*
X122610476Y-96353333D01*
X122515238Y-96400952D01*
X122324761Y-96400952D01*
X122229523Y-96448571D01*
X122181904Y-96496190D01*
X122134285Y-96591428D01*
X122134285Y-96781904D01*
X122181904Y-96877142D01*
X122229523Y-96924761D01*
X122324761Y-96972380D01*
X122515238Y-96972380D01*
X122610476Y-96924761D01*
X122658095Y-96877142D01*
X122705714Y-96781904D01*
X122705714Y-96591428D01*
X122658095Y-96496190D01*
X122610476Y-96448571D01*
X122515238Y-96400952D01*
%TO.C,C9*%
X101957142Y-114466666D02*
X102004761Y-114514285D01*
X102052380Y-114657142D01*
X102052380Y-114752380D01*
X102004761Y-114895238D01*
X101909523Y-114990476D01*
X101814285Y-115038095D01*
X101623809Y-115085714D01*
X101480952Y-115085714D01*
X101290476Y-115038095D01*
X101195238Y-114990476D01*
X101100000Y-114895238D01*
X101052380Y-114752380D01*
X101052380Y-114657142D01*
X101100000Y-114514285D01*
X101147619Y-114466666D01*
X102052380Y-113990476D02*
X102052380Y-113800000D01*
X102004761Y-113704761D01*
X101957142Y-113657142D01*
X101814285Y-113561904D01*
X101623809Y-113514285D01*
X101242857Y-113514285D01*
X101147619Y-113561904D01*
X101100000Y-113609523D01*
X101052380Y-113704761D01*
X101052380Y-113895238D01*
X101100000Y-113990476D01*
X101147619Y-114038095D01*
X101242857Y-114085714D01*
X101480952Y-114085714D01*
X101576190Y-114038095D01*
X101623809Y-113990476D01*
X101671428Y-113895238D01*
X101671428Y-113704761D01*
X101623809Y-113609523D01*
X101576190Y-113561904D01*
X101480952Y-113514285D01*
%TO.C,C10*%
X121277142Y-114657142D02*
X121229523Y-114704761D01*
X121086666Y-114752380D01*
X120991428Y-114752380D01*
X120848571Y-114704761D01*
X120753333Y-114609523D01*
X120705714Y-114514285D01*
X120658095Y-114323809D01*
X120658095Y-114180952D01*
X120705714Y-113990476D01*
X120753333Y-113895238D01*
X120848571Y-113800000D01*
X120991428Y-113752380D01*
X121086666Y-113752380D01*
X121229523Y-113800000D01*
X121277142Y-113847619D01*
X122229523Y-114752380D02*
X121658095Y-114752380D01*
X121943809Y-114752380D02*
X121943809Y-113752380D01*
X121848571Y-113895238D01*
X121753333Y-113990476D01*
X121658095Y-114038095D01*
X122848571Y-113752380D02*
X122943809Y-113752380D01*
X123039047Y-113800000D01*
X123086666Y-113847619D01*
X123134285Y-113942857D01*
X123181904Y-114133333D01*
X123181904Y-114371428D01*
X123134285Y-114561904D01*
X123086666Y-114657142D01*
X123039047Y-114704761D01*
X122943809Y-114752380D01*
X122848571Y-114752380D01*
X122753333Y-114704761D01*
X122705714Y-114657142D01*
X122658095Y-114561904D01*
X122610476Y-114371428D01*
X122610476Y-114133333D01*
X122658095Y-113942857D01*
X122705714Y-113847619D01*
X122753333Y-113800000D01*
X122848571Y-113752380D01*
%TO.C,C11*%
X121277142Y-129897142D02*
X121229523Y-129944761D01*
X121086666Y-129992380D01*
X120991428Y-129992380D01*
X120848571Y-129944761D01*
X120753333Y-129849523D01*
X120705714Y-129754285D01*
X120658095Y-129563809D01*
X120658095Y-129420952D01*
X120705714Y-129230476D01*
X120753333Y-129135238D01*
X120848571Y-129040000D01*
X120991428Y-128992380D01*
X121086666Y-128992380D01*
X121229523Y-129040000D01*
X121277142Y-129087619D01*
X122229523Y-129992380D02*
X121658095Y-129992380D01*
X121943809Y-129992380D02*
X121943809Y-128992380D01*
X121848571Y-129135238D01*
X121753333Y-129230476D01*
X121658095Y-129278095D01*
X123181904Y-129992380D02*
X122610476Y-129992380D01*
X122896190Y-129992380D02*
X122896190Y-128992380D01*
X122800952Y-129135238D01*
X122705714Y-129230476D01*
X122610476Y-129278095D01*
%TO.C,C12*%
X146677142Y-114657142D02*
X146629523Y-114704761D01*
X146486666Y-114752380D01*
X146391428Y-114752380D01*
X146248571Y-114704761D01*
X146153333Y-114609523D01*
X146105714Y-114514285D01*
X146058095Y-114323809D01*
X146058095Y-114180952D01*
X146105714Y-113990476D01*
X146153333Y-113895238D01*
X146248571Y-113800000D01*
X146391428Y-113752380D01*
X146486666Y-113752380D01*
X146629523Y-113800000D01*
X146677142Y-113847619D01*
X147629523Y-114752380D02*
X147058095Y-114752380D01*
X147343809Y-114752380D02*
X147343809Y-113752380D01*
X147248571Y-113895238D01*
X147153333Y-113990476D01*
X147058095Y-114038095D01*
X148010476Y-113847619D02*
X148058095Y-113800000D01*
X148153333Y-113752380D01*
X148391428Y-113752380D01*
X148486666Y-113800000D01*
X148534285Y-113847619D01*
X148581904Y-113942857D01*
X148581904Y-114038095D01*
X148534285Y-114180952D01*
X147962857Y-114752380D01*
X148581904Y-114752380D01*
%TO.C,C13*%
X131437142Y-129897142D02*
X131389523Y-129944761D01*
X131246666Y-129992380D01*
X131151428Y-129992380D01*
X131008571Y-129944761D01*
X130913333Y-129849523D01*
X130865714Y-129754285D01*
X130818095Y-129563809D01*
X130818095Y-129420952D01*
X130865714Y-129230476D01*
X130913333Y-129135238D01*
X131008571Y-129040000D01*
X131151428Y-128992380D01*
X131246666Y-128992380D01*
X131389523Y-129040000D01*
X131437142Y-129087619D01*
X132389523Y-129992380D02*
X131818095Y-129992380D01*
X132103809Y-129992380D02*
X132103809Y-128992380D01*
X132008571Y-129135238D01*
X131913333Y-129230476D01*
X131818095Y-129278095D01*
X132722857Y-128992380D02*
X133341904Y-128992380D01*
X133008571Y-129373333D01*
X133151428Y-129373333D01*
X133246666Y-129420952D01*
X133294285Y-129468571D01*
X133341904Y-129563809D01*
X133341904Y-129801904D01*
X133294285Y-129897142D01*
X133246666Y-129944761D01*
X133151428Y-129992380D01*
X132865714Y-129992380D01*
X132770476Y-129944761D01*
X132722857Y-129897142D01*
%TO.C,C14*%
X156837142Y-114657142D02*
X156789523Y-114704761D01*
X156646666Y-114752380D01*
X156551428Y-114752380D01*
X156408571Y-114704761D01*
X156313333Y-114609523D01*
X156265714Y-114514285D01*
X156218095Y-114323809D01*
X156218095Y-114180952D01*
X156265714Y-113990476D01*
X156313333Y-113895238D01*
X156408571Y-113800000D01*
X156551428Y-113752380D01*
X156646666Y-113752380D01*
X156789523Y-113800000D01*
X156837142Y-113847619D01*
X157789523Y-114752380D02*
X157218095Y-114752380D01*
X157503809Y-114752380D02*
X157503809Y-113752380D01*
X157408571Y-113895238D01*
X157313333Y-113990476D01*
X157218095Y-114038095D01*
X158646666Y-114085714D02*
X158646666Y-114752380D01*
X158408571Y-113704761D02*
X158170476Y-114419047D01*
X158789523Y-114419047D01*
%TO.C,C15*%
X178157142Y-114942857D02*
X178204761Y-114990476D01*
X178252380Y-115133333D01*
X178252380Y-115228571D01*
X178204761Y-115371428D01*
X178109523Y-115466666D01*
X178014285Y-115514285D01*
X177823809Y-115561904D01*
X177680952Y-115561904D01*
X177490476Y-115514285D01*
X177395238Y-115466666D01*
X177300000Y-115371428D01*
X177252380Y-115228571D01*
X177252380Y-115133333D01*
X177300000Y-114990476D01*
X177347619Y-114942857D01*
X178252380Y-113990476D02*
X178252380Y-114561904D01*
X178252380Y-114276190D02*
X177252380Y-114276190D01*
X177395238Y-114371428D01*
X177490476Y-114466666D01*
X177538095Y-114561904D01*
X177252380Y-113085714D02*
X177252380Y-113561904D01*
X177728571Y-113609523D01*
X177680952Y-113561904D01*
X177633333Y-113466666D01*
X177633333Y-113228571D01*
X177680952Y-113133333D01*
X177728571Y-113085714D01*
X177823809Y-113038095D01*
X178061904Y-113038095D01*
X178157142Y-113085714D01*
X178204761Y-113133333D01*
X178252380Y-113228571D01*
X178252380Y-113466666D01*
X178204761Y-113561904D01*
X178157142Y-113609523D01*
%TO.C,C16*%
X156837142Y-129897142D02*
X156789523Y-129944761D01*
X156646666Y-129992380D01*
X156551428Y-129992380D01*
X156408571Y-129944761D01*
X156313333Y-129849523D01*
X156265714Y-129754285D01*
X156218095Y-129563809D01*
X156218095Y-129420952D01*
X156265714Y-129230476D01*
X156313333Y-129135238D01*
X156408571Y-129040000D01*
X156551428Y-128992380D01*
X156646666Y-128992380D01*
X156789523Y-129040000D01*
X156837142Y-129087619D01*
X157789523Y-129992380D02*
X157218095Y-129992380D01*
X157503809Y-129992380D02*
X157503809Y-128992380D01*
X157408571Y-129135238D01*
X157313333Y-129230476D01*
X157218095Y-129278095D01*
X158646666Y-128992380D02*
X158456190Y-128992380D01*
X158360952Y-129040000D01*
X158313333Y-129087619D01*
X158218095Y-129230476D01*
X158170476Y-129420952D01*
X158170476Y-129801904D01*
X158218095Y-129897142D01*
X158265714Y-129944761D01*
X158360952Y-129992380D01*
X158551428Y-129992380D01*
X158646666Y-129944761D01*
X158694285Y-129897142D01*
X158741904Y-129801904D01*
X158741904Y-129563809D01*
X158694285Y-129468571D01*
X158646666Y-129420952D01*
X158551428Y-129373333D01*
X158360952Y-129373333D01*
X158265714Y-129420952D01*
X158218095Y-129468571D01*
X158170476Y-129563809D01*
%TO.C,J1*%
X253666666Y-98512380D02*
X253666666Y-99226666D01*
X253619047Y-99369523D01*
X253523809Y-99464761D01*
X253380952Y-99512380D01*
X253285714Y-99512380D01*
X254666666Y-99512380D02*
X254095238Y-99512380D01*
X254380952Y-99512380D02*
X254380952Y-98512380D01*
X254285714Y-98655238D01*
X254190476Y-98750476D01*
X254095238Y-98798095D01*
%TO.C,J2*%
X253666666Y-123340880D02*
X253666666Y-124055166D01*
X253619047Y-124198023D01*
X253523809Y-124293261D01*
X253380952Y-124340880D01*
X253285714Y-124340880D01*
X254095238Y-123436119D02*
X254142857Y-123388500D01*
X254238095Y-123340880D01*
X254476190Y-123340880D01*
X254571428Y-123388500D01*
X254619047Y-123436119D01*
X254666666Y-123531357D01*
X254666666Y-123626595D01*
X254619047Y-123769452D01*
X254047619Y-124340880D01*
X254666666Y-124340880D01*
%TO.C,J3*%
X248586666Y-98512380D02*
X248586666Y-99226666D01*
X248539047Y-99369523D01*
X248443809Y-99464761D01*
X248300952Y-99512380D01*
X248205714Y-99512380D01*
X248967619Y-98512380D02*
X249586666Y-98512380D01*
X249253333Y-98893333D01*
X249396190Y-98893333D01*
X249491428Y-98940952D01*
X249539047Y-98988571D01*
X249586666Y-99083809D01*
X249586666Y-99321904D01*
X249539047Y-99417142D01*
X249491428Y-99464761D01*
X249396190Y-99512380D01*
X249110476Y-99512380D01*
X249015238Y-99464761D01*
X248967619Y-99417142D01*
%TO.C,J4*%
X248650166Y-123340880D02*
X248650166Y-124055166D01*
X248602547Y-124198023D01*
X248507309Y-124293261D01*
X248364452Y-124340880D01*
X248269214Y-124340880D01*
X249554928Y-123674214D02*
X249554928Y-124340880D01*
X249316833Y-123293261D02*
X249078738Y-124007547D01*
X249697785Y-124007547D01*
%TO.C,J5*%
X200326666Y-90892380D02*
X200326666Y-91606666D01*
X200279047Y-91749523D01*
X200183809Y-91844761D01*
X200040952Y-91892380D01*
X199945714Y-91892380D01*
X201279047Y-90892380D02*
X200802857Y-90892380D01*
X200755238Y-91368571D01*
X200802857Y-91320952D01*
X200898095Y-91273333D01*
X201136190Y-91273333D01*
X201231428Y-91320952D01*
X201279047Y-91368571D01*
X201326666Y-91463809D01*
X201326666Y-91701904D01*
X201279047Y-91797142D01*
X201231428Y-91844761D01*
X201136190Y-91892380D01*
X200898095Y-91892380D01*
X200802857Y-91844761D01*
X200755238Y-91797142D01*
%TO.C,J6*%
X195246666Y-118832380D02*
X195246666Y-119546666D01*
X195199047Y-119689523D01*
X195103809Y-119784761D01*
X194960952Y-119832380D01*
X194865714Y-119832380D01*
X196151428Y-118832380D02*
X195960952Y-118832380D01*
X195865714Y-118880000D01*
X195818095Y-118927619D01*
X195722857Y-119070476D01*
X195675238Y-119260952D01*
X195675238Y-119641904D01*
X195722857Y-119737142D01*
X195770476Y-119784761D01*
X195865714Y-119832380D01*
X196056190Y-119832380D01*
X196151428Y-119784761D01*
X196199047Y-119737142D01*
X196246666Y-119641904D01*
X196246666Y-119403809D01*
X196199047Y-119308571D01*
X196151428Y-119260952D01*
X196056190Y-119213333D01*
X195865714Y-119213333D01*
X195770476Y-119260952D01*
X195722857Y-119308571D01*
X195675238Y-119403809D01*
%TO.C,J7*%
X195246666Y-90892380D02*
X195246666Y-91606666D01*
X195199047Y-91749523D01*
X195103809Y-91844761D01*
X194960952Y-91892380D01*
X194865714Y-91892380D01*
X195627619Y-90892380D02*
X196294285Y-90892380D01*
X195865714Y-91892380D01*
%TO.C,J8*%
X200326666Y-118832380D02*
X200326666Y-119546666D01*
X200279047Y-119689523D01*
X200183809Y-119784761D01*
X200040952Y-119832380D01*
X199945714Y-119832380D01*
X200945714Y-119260952D02*
X200850476Y-119213333D01*
X200802857Y-119165714D01*
X200755238Y-119070476D01*
X200755238Y-119022857D01*
X200802857Y-118927619D01*
X200850476Y-118880000D01*
X200945714Y-118832380D01*
X201136190Y-118832380D01*
X201231428Y-118880000D01*
X201279047Y-118927619D01*
X201326666Y-119022857D01*
X201326666Y-119070476D01*
X201279047Y-119165714D01*
X201231428Y-119213333D01*
X201136190Y-119260952D01*
X200945714Y-119260952D01*
X200850476Y-119308571D01*
X200802857Y-119356190D01*
X200755238Y-119451428D01*
X200755238Y-119641904D01*
X200802857Y-119737142D01*
X200850476Y-119784761D01*
X200945714Y-119832380D01*
X201136190Y-119832380D01*
X201231428Y-119784761D01*
X201279047Y-119737142D01*
X201326666Y-119641904D01*
X201326666Y-119451428D01*
X201279047Y-119356190D01*
X201231428Y-119308571D01*
X201136190Y-119260952D01*
%TO.C,J9*%
X201596666Y-59352380D02*
X201596666Y-60066666D01*
X201549047Y-60209523D01*
X201453809Y-60304761D01*
X201310952Y-60352380D01*
X201215714Y-60352380D01*
X202120476Y-60352380D02*
X202310952Y-60352380D01*
X202406190Y-60304761D01*
X202453809Y-60257142D01*
X202549047Y-60114285D01*
X202596666Y-59923809D01*
X202596666Y-59542857D01*
X202549047Y-59447619D01*
X202501428Y-59400000D01*
X202406190Y-59352380D01*
X202215714Y-59352380D01*
X202120476Y-59400000D01*
X202072857Y-59447619D01*
X202025238Y-59542857D01*
X202025238Y-59780952D01*
X202072857Y-59876190D01*
X202120476Y-59923809D01*
X202215714Y-59971428D01*
X202406190Y-59971428D01*
X202501428Y-59923809D01*
X202549047Y-59876190D01*
X202596666Y-59780952D01*
%TO.C,J10*%
X113962380Y-148129523D02*
X114676666Y-148129523D01*
X114819523Y-148177142D01*
X114914761Y-148272380D01*
X114962380Y-148415238D01*
X114962380Y-148510476D01*
X114962380Y-147129523D02*
X114962380Y-147700952D01*
X114962380Y-147415238D02*
X113962380Y-147415238D01*
X114105238Y-147510476D01*
X114200476Y-147605714D01*
X114248095Y-147700952D01*
X113962380Y-146510476D02*
X113962380Y-146415238D01*
X114010000Y-146320000D01*
X114057619Y-146272380D01*
X114152857Y-146224761D01*
X114343333Y-146177142D01*
X114581428Y-146177142D01*
X114771904Y-146224761D01*
X114867142Y-146272380D01*
X114914761Y-146320000D01*
X114962380Y-146415238D01*
X114962380Y-146510476D01*
X114914761Y-146605714D01*
X114867142Y-146653333D01*
X114771904Y-146700952D01*
X114581428Y-146748571D01*
X114343333Y-146748571D01*
X114152857Y-146700952D01*
X114057619Y-146653333D01*
X114010000Y-146605714D01*
X113962380Y-146510476D01*
%TO.C,J11*%
X169370476Y-149102380D02*
X169370476Y-149816666D01*
X169322857Y-149959523D01*
X169227619Y-150054761D01*
X169084761Y-150102380D01*
X168989523Y-150102380D01*
X170370476Y-150102380D02*
X169799047Y-150102380D01*
X170084761Y-150102380D02*
X170084761Y-149102380D01*
X169989523Y-149245238D01*
X169894285Y-149340476D01*
X169799047Y-149388095D01*
X171322857Y-150102380D02*
X170751428Y-150102380D01*
X171037142Y-150102380D02*
X171037142Y-149102380D01*
X170941904Y-149245238D01*
X170846666Y-149340476D01*
X170751428Y-149388095D01*
%TO.C,J12*%
X140632380Y-52879523D02*
X141346666Y-52879523D01*
X141489523Y-52927142D01*
X141584761Y-53022380D01*
X141632380Y-53165238D01*
X141632380Y-53260476D01*
X141632380Y-51879523D02*
X141632380Y-52450952D01*
X141632380Y-52165238D02*
X140632380Y-52165238D01*
X140775238Y-52260476D01*
X140870476Y-52355714D01*
X140918095Y-52450952D01*
X140727619Y-51498571D02*
X140680000Y-51450952D01*
X140632380Y-51355714D01*
X140632380Y-51117619D01*
X140680000Y-51022380D01*
X140727619Y-50974761D01*
X140822857Y-50927142D01*
X140918095Y-50927142D01*
X141060952Y-50974761D01*
X141632380Y-51546190D01*
X141632380Y-50927142D01*
%TO.C,J13*%
X154602380Y-52879523D02*
X155316666Y-52879523D01*
X155459523Y-52927142D01*
X155554761Y-53022380D01*
X155602380Y-53165238D01*
X155602380Y-53260476D01*
X155602380Y-51879523D02*
X155602380Y-52450952D01*
X155602380Y-52165238D02*
X154602380Y-52165238D01*
X154745238Y-52260476D01*
X154840476Y-52355714D01*
X154888095Y-52450952D01*
X154602380Y-51546190D02*
X154602380Y-50927142D01*
X154983333Y-51260476D01*
X154983333Y-51117619D01*
X155030952Y-51022380D01*
X155078571Y-50974761D01*
X155173809Y-50927142D01*
X155411904Y-50927142D01*
X155507142Y-50974761D01*
X155554761Y-51022380D01*
X155602380Y-51117619D01*
X155602380Y-51403333D01*
X155554761Y-51498571D01*
X155507142Y-51546190D01*
%TO.C,J14*%
X171112380Y-52879523D02*
X171826666Y-52879523D01*
X171969523Y-52927142D01*
X172064761Y-53022380D01*
X172112380Y-53165238D01*
X172112380Y-53260476D01*
X172112380Y-51879523D02*
X172112380Y-52450952D01*
X172112380Y-52165238D02*
X171112380Y-52165238D01*
X171255238Y-52260476D01*
X171350476Y-52355714D01*
X171398095Y-52450952D01*
X171445714Y-51022380D02*
X172112380Y-51022380D01*
X171064761Y-51260476D02*
X171779047Y-51498571D01*
X171779047Y-50879523D01*
%TO.C,J15*%
X185082380Y-52879523D02*
X185796666Y-52879523D01*
X185939523Y-52927142D01*
X186034761Y-53022380D01*
X186082380Y-53165238D01*
X186082380Y-53260476D01*
X186082380Y-51879523D02*
X186082380Y-52450952D01*
X186082380Y-52165238D02*
X185082380Y-52165238D01*
X185225238Y-52260476D01*
X185320476Y-52355714D01*
X185368095Y-52450952D01*
X185082380Y-50974761D02*
X185082380Y-51450952D01*
X185558571Y-51498571D01*
X185510952Y-51450952D01*
X185463333Y-51355714D01*
X185463333Y-51117619D01*
X185510952Y-51022380D01*
X185558571Y-50974761D01*
X185653809Y-50927142D01*
X185891904Y-50927142D01*
X185987142Y-50974761D01*
X186034761Y-51022380D01*
X186082380Y-51117619D01*
X186082380Y-51355714D01*
X186034761Y-51450952D01*
X185987142Y-51498571D01*
%TO.C,J16*%
X113962380Y-144319523D02*
X114676666Y-144319523D01*
X114819523Y-144367142D01*
X114914761Y-144462380D01*
X114962380Y-144605238D01*
X114962380Y-144700476D01*
X114962380Y-143319523D02*
X114962380Y-143890952D01*
X114962380Y-143605238D02*
X113962380Y-143605238D01*
X114105238Y-143700476D01*
X114200476Y-143795714D01*
X114248095Y-143890952D01*
X113962380Y-142462380D02*
X113962380Y-142652857D01*
X114010000Y-142748095D01*
X114057619Y-142795714D01*
X114200476Y-142890952D01*
X114390952Y-142938571D01*
X114771904Y-142938571D01*
X114867142Y-142890952D01*
X114914761Y-142843333D01*
X114962380Y-142748095D01*
X114962380Y-142557619D01*
X114914761Y-142462380D01*
X114867142Y-142414761D01*
X114771904Y-142367142D01*
X114533809Y-142367142D01*
X114438571Y-142414761D01*
X114390952Y-142462380D01*
X114343333Y-142557619D01*
X114343333Y-142748095D01*
X114390952Y-142843333D01*
X114438571Y-142890952D01*
X114533809Y-142938571D01*
%TO.C,J17*%
X140632380Y-60499523D02*
X141346666Y-60499523D01*
X141489523Y-60547142D01*
X141584761Y-60642380D01*
X141632380Y-60785238D01*
X141632380Y-60880476D01*
X141632380Y-59499523D02*
X141632380Y-60070952D01*
X141632380Y-59785238D02*
X140632380Y-59785238D01*
X140775238Y-59880476D01*
X140870476Y-59975714D01*
X140918095Y-60070952D01*
X140632380Y-59166190D02*
X140632380Y-58499523D01*
X141632380Y-58928095D01*
%TO.C,J18*%
X154602380Y-60499523D02*
X155316666Y-60499523D01*
X155459523Y-60547142D01*
X155554761Y-60642380D01*
X155602380Y-60785238D01*
X155602380Y-60880476D01*
X155602380Y-59499523D02*
X155602380Y-60070952D01*
X155602380Y-59785238D02*
X154602380Y-59785238D01*
X154745238Y-59880476D01*
X154840476Y-59975714D01*
X154888095Y-60070952D01*
X155030952Y-58928095D02*
X154983333Y-59023333D01*
X154935714Y-59070952D01*
X154840476Y-59118571D01*
X154792857Y-59118571D01*
X154697619Y-59070952D01*
X154650000Y-59023333D01*
X154602380Y-58928095D01*
X154602380Y-58737619D01*
X154650000Y-58642380D01*
X154697619Y-58594761D01*
X154792857Y-58547142D01*
X154840476Y-58547142D01*
X154935714Y-58594761D01*
X154983333Y-58642380D01*
X155030952Y-58737619D01*
X155030952Y-58928095D01*
X155078571Y-59023333D01*
X155126190Y-59070952D01*
X155221428Y-59118571D01*
X155411904Y-59118571D01*
X155507142Y-59070952D01*
X155554761Y-59023333D01*
X155602380Y-58928095D01*
X155602380Y-58737619D01*
X155554761Y-58642380D01*
X155507142Y-58594761D01*
X155411904Y-58547142D01*
X155221428Y-58547142D01*
X155126190Y-58594761D01*
X155078571Y-58642380D01*
X155030952Y-58737619D01*
%TO.C,J19*%
X171112380Y-60499523D02*
X171826666Y-60499523D01*
X171969523Y-60547142D01*
X172064761Y-60642380D01*
X172112380Y-60785238D01*
X172112380Y-60880476D01*
X172112380Y-59499523D02*
X172112380Y-60070952D01*
X172112380Y-59785238D02*
X171112380Y-59785238D01*
X171255238Y-59880476D01*
X171350476Y-59975714D01*
X171398095Y-60070952D01*
X172112380Y-59023333D02*
X172112380Y-58832857D01*
X172064761Y-58737619D01*
X172017142Y-58690000D01*
X171874285Y-58594761D01*
X171683809Y-58547142D01*
X171302857Y-58547142D01*
X171207619Y-58594761D01*
X171160000Y-58642380D01*
X171112380Y-58737619D01*
X171112380Y-58928095D01*
X171160000Y-59023333D01*
X171207619Y-59070952D01*
X171302857Y-59118571D01*
X171540952Y-59118571D01*
X171636190Y-59070952D01*
X171683809Y-59023333D01*
X171731428Y-58928095D01*
X171731428Y-58737619D01*
X171683809Y-58642380D01*
X171636190Y-58594761D01*
X171540952Y-58547142D01*
%TO.C,J20*%
X185082380Y-60499523D02*
X185796666Y-60499523D01*
X185939523Y-60547142D01*
X186034761Y-60642380D01*
X186082380Y-60785238D01*
X186082380Y-60880476D01*
X185177619Y-60070952D02*
X185130000Y-60023333D01*
X185082380Y-59928095D01*
X185082380Y-59690000D01*
X185130000Y-59594761D01*
X185177619Y-59547142D01*
X185272857Y-59499523D01*
X185368095Y-59499523D01*
X185510952Y-59547142D01*
X186082380Y-60118571D01*
X186082380Y-59499523D01*
X185082380Y-58880476D02*
X185082380Y-58785238D01*
X185130000Y-58690000D01*
X185177619Y-58642380D01*
X185272857Y-58594761D01*
X185463333Y-58547142D01*
X185701428Y-58547142D01*
X185891904Y-58594761D01*
X185987142Y-58642380D01*
X186034761Y-58690000D01*
X186082380Y-58785238D01*
X186082380Y-58880476D01*
X186034761Y-58975714D01*
X185987142Y-59023333D01*
X185891904Y-59070952D01*
X185701428Y-59118571D01*
X185463333Y-59118571D01*
X185272857Y-59070952D01*
X185177619Y-59023333D01*
X185130000Y-58975714D01*
X185082380Y-58880476D01*
%TO.C,Q1*%
X104687619Y-81375238D02*
X104640000Y-81470476D01*
X104544761Y-81565714D01*
X104401904Y-81708571D01*
X104354285Y-81803809D01*
X104354285Y-81899047D01*
X104592380Y-81851428D02*
X104544761Y-81946666D01*
X104449523Y-82041904D01*
X104259047Y-82089523D01*
X103925714Y-82089523D01*
X103735238Y-82041904D01*
X103640000Y-81946666D01*
X103592380Y-81851428D01*
X103592380Y-81660952D01*
X103640000Y-81565714D01*
X103735238Y-81470476D01*
X103925714Y-81422857D01*
X104259047Y-81422857D01*
X104449523Y-81470476D01*
X104544761Y-81565714D01*
X104592380Y-81660952D01*
X104592380Y-81851428D01*
X104592380Y-80470476D02*
X104592380Y-81041904D01*
X104592380Y-80756190D02*
X103592380Y-80756190D01*
X103735238Y-80851428D01*
X103830476Y-80946666D01*
X103878095Y-81041904D01*
%TO.C,Q2*%
X121824761Y-84367619D02*
X121729523Y-84320000D01*
X121634285Y-84224761D01*
X121491428Y-84081904D01*
X121396190Y-84034285D01*
X121300952Y-84034285D01*
X121348571Y-84272380D02*
X121253333Y-84224761D01*
X121158095Y-84129523D01*
X121110476Y-83939047D01*
X121110476Y-83605714D01*
X121158095Y-83415238D01*
X121253333Y-83320000D01*
X121348571Y-83272380D01*
X121539047Y-83272380D01*
X121634285Y-83320000D01*
X121729523Y-83415238D01*
X121777142Y-83605714D01*
X121777142Y-83939047D01*
X121729523Y-84129523D01*
X121634285Y-84224761D01*
X121539047Y-84272380D01*
X121348571Y-84272380D01*
X122158095Y-83367619D02*
X122205714Y-83320000D01*
X122300952Y-83272380D01*
X122539047Y-83272380D01*
X122634285Y-83320000D01*
X122681904Y-83367619D01*
X122729523Y-83462857D01*
X122729523Y-83558095D01*
X122681904Y-83700952D01*
X122110476Y-84272380D01*
X122729523Y-84272380D01*
%TO.C,Q3*%
X131984761Y-84367619D02*
X131889523Y-84320000D01*
X131794285Y-84224761D01*
X131651428Y-84081904D01*
X131556190Y-84034285D01*
X131460952Y-84034285D01*
X131508571Y-84272380D02*
X131413333Y-84224761D01*
X131318095Y-84129523D01*
X131270476Y-83939047D01*
X131270476Y-83605714D01*
X131318095Y-83415238D01*
X131413333Y-83320000D01*
X131508571Y-83272380D01*
X131699047Y-83272380D01*
X131794285Y-83320000D01*
X131889523Y-83415238D01*
X131937142Y-83605714D01*
X131937142Y-83939047D01*
X131889523Y-84129523D01*
X131794285Y-84224761D01*
X131699047Y-84272380D01*
X131508571Y-84272380D01*
X132270476Y-83272380D02*
X132889523Y-83272380D01*
X132556190Y-83653333D01*
X132699047Y-83653333D01*
X132794285Y-83700952D01*
X132841904Y-83748571D01*
X132889523Y-83843809D01*
X132889523Y-84081904D01*
X132841904Y-84177142D01*
X132794285Y-84224761D01*
X132699047Y-84272380D01*
X132413333Y-84272380D01*
X132318095Y-84224761D01*
X132270476Y-84177142D01*
%TO.C,Q4*%
X158654761Y-84367619D02*
X158559523Y-84320000D01*
X158464285Y-84224761D01*
X158321428Y-84081904D01*
X158226190Y-84034285D01*
X158130952Y-84034285D01*
X158178571Y-84272380D02*
X158083333Y-84224761D01*
X157988095Y-84129523D01*
X157940476Y-83939047D01*
X157940476Y-83605714D01*
X157988095Y-83415238D01*
X158083333Y-83320000D01*
X158178571Y-83272380D01*
X158369047Y-83272380D01*
X158464285Y-83320000D01*
X158559523Y-83415238D01*
X158607142Y-83605714D01*
X158607142Y-83939047D01*
X158559523Y-84129523D01*
X158464285Y-84224761D01*
X158369047Y-84272380D01*
X158178571Y-84272380D01*
X159464285Y-83605714D02*
X159464285Y-84272380D01*
X159226190Y-83224761D02*
X158988095Y-83939047D01*
X159607142Y-83939047D01*
%TO.C,Q6*%
X158654761Y-94527619D02*
X158559523Y-94480000D01*
X158464285Y-94384761D01*
X158321428Y-94241904D01*
X158226190Y-94194285D01*
X158130952Y-94194285D01*
X158178571Y-94432380D02*
X158083333Y-94384761D01*
X157988095Y-94289523D01*
X157940476Y-94099047D01*
X157940476Y-93765714D01*
X157988095Y-93575238D01*
X158083333Y-93480000D01*
X158178571Y-93432380D01*
X158369047Y-93432380D01*
X158464285Y-93480000D01*
X158559523Y-93575238D01*
X158607142Y-93765714D01*
X158607142Y-94099047D01*
X158559523Y-94289523D01*
X158464285Y-94384761D01*
X158369047Y-94432380D01*
X158178571Y-94432380D01*
X159464285Y-93432380D02*
X159273809Y-93432380D01*
X159178571Y-93480000D01*
X159130952Y-93527619D01*
X159035714Y-93670476D01*
X158988095Y-93860952D01*
X158988095Y-94241904D01*
X159035714Y-94337142D01*
X159083333Y-94384761D01*
X159178571Y-94432380D01*
X159369047Y-94432380D01*
X159464285Y-94384761D01*
X159511904Y-94337142D01*
X159559523Y-94241904D01*
X159559523Y-94003809D01*
X159511904Y-93908571D01*
X159464285Y-93860952D01*
X159369047Y-93813333D01*
X159178571Y-93813333D01*
X159083333Y-93860952D01*
X159035714Y-93908571D01*
X158988095Y-94003809D01*
%TO.C,Q7*%
X131984761Y-94527619D02*
X131889523Y-94480000D01*
X131794285Y-94384761D01*
X131651428Y-94241904D01*
X131556190Y-94194285D01*
X131460952Y-94194285D01*
X131508571Y-94432380D02*
X131413333Y-94384761D01*
X131318095Y-94289523D01*
X131270476Y-94099047D01*
X131270476Y-93765714D01*
X131318095Y-93575238D01*
X131413333Y-93480000D01*
X131508571Y-93432380D01*
X131699047Y-93432380D01*
X131794285Y-93480000D01*
X131889523Y-93575238D01*
X131937142Y-93765714D01*
X131937142Y-94099047D01*
X131889523Y-94289523D01*
X131794285Y-94384761D01*
X131699047Y-94432380D01*
X131508571Y-94432380D01*
X132270476Y-93432380D02*
X132937142Y-93432380D01*
X132508571Y-94432380D01*
%TO.C,Q8*%
X121824761Y-94527619D02*
X121729523Y-94480000D01*
X121634285Y-94384761D01*
X121491428Y-94241904D01*
X121396190Y-94194285D01*
X121300952Y-94194285D01*
X121348571Y-94432380D02*
X121253333Y-94384761D01*
X121158095Y-94289523D01*
X121110476Y-94099047D01*
X121110476Y-93765714D01*
X121158095Y-93575238D01*
X121253333Y-93480000D01*
X121348571Y-93432380D01*
X121539047Y-93432380D01*
X121634285Y-93480000D01*
X121729523Y-93575238D01*
X121777142Y-93765714D01*
X121777142Y-94099047D01*
X121729523Y-94289523D01*
X121634285Y-94384761D01*
X121539047Y-94432380D01*
X121348571Y-94432380D01*
X122348571Y-93860952D02*
X122253333Y-93813333D01*
X122205714Y-93765714D01*
X122158095Y-93670476D01*
X122158095Y-93622857D01*
X122205714Y-93527619D01*
X122253333Y-93480000D01*
X122348571Y-93432380D01*
X122539047Y-93432380D01*
X122634285Y-93480000D01*
X122681904Y-93527619D01*
X122729523Y-93622857D01*
X122729523Y-93670476D01*
X122681904Y-93765714D01*
X122634285Y-93813333D01*
X122539047Y-93860952D01*
X122348571Y-93860952D01*
X122253333Y-93908571D01*
X122205714Y-93956190D01*
X122158095Y-94051428D01*
X122158095Y-94241904D01*
X122205714Y-94337142D01*
X122253333Y-94384761D01*
X122348571Y-94432380D01*
X122539047Y-94432380D01*
X122634285Y-94384761D01*
X122681904Y-94337142D01*
X122729523Y-94241904D01*
X122729523Y-94051428D01*
X122681904Y-93956190D01*
X122634285Y-93908571D01*
X122539047Y-93860952D01*
%TO.C,Q9*%
X104687619Y-114395238D02*
X104640000Y-114490476D01*
X104544761Y-114585714D01*
X104401904Y-114728571D01*
X104354285Y-114823809D01*
X104354285Y-114919047D01*
X104592380Y-114871428D02*
X104544761Y-114966666D01*
X104449523Y-115061904D01*
X104259047Y-115109523D01*
X103925714Y-115109523D01*
X103735238Y-115061904D01*
X103640000Y-114966666D01*
X103592380Y-114871428D01*
X103592380Y-114680952D01*
X103640000Y-114585714D01*
X103735238Y-114490476D01*
X103925714Y-114442857D01*
X104259047Y-114442857D01*
X104449523Y-114490476D01*
X104544761Y-114585714D01*
X104592380Y-114680952D01*
X104592380Y-114871428D01*
X104592380Y-113966666D02*
X104592380Y-113776190D01*
X104544761Y-113680952D01*
X104497142Y-113633333D01*
X104354285Y-113538095D01*
X104163809Y-113490476D01*
X103782857Y-113490476D01*
X103687619Y-113538095D01*
X103640000Y-113585714D01*
X103592380Y-113680952D01*
X103592380Y-113871428D01*
X103640000Y-113966666D01*
X103687619Y-114014285D01*
X103782857Y-114061904D01*
X104020952Y-114061904D01*
X104116190Y-114014285D01*
X104163809Y-113966666D01*
X104211428Y-113871428D01*
X104211428Y-113680952D01*
X104163809Y-113585714D01*
X104116190Y-113538095D01*
X104020952Y-113490476D01*
%TO.C,Q10*%
X121348571Y-117387619D02*
X121253333Y-117340000D01*
X121158095Y-117244761D01*
X121015238Y-117101904D01*
X120920000Y-117054285D01*
X120824761Y-117054285D01*
X120872380Y-117292380D02*
X120777142Y-117244761D01*
X120681904Y-117149523D01*
X120634285Y-116959047D01*
X120634285Y-116625714D01*
X120681904Y-116435238D01*
X120777142Y-116340000D01*
X120872380Y-116292380D01*
X121062857Y-116292380D01*
X121158095Y-116340000D01*
X121253333Y-116435238D01*
X121300952Y-116625714D01*
X121300952Y-116959047D01*
X121253333Y-117149523D01*
X121158095Y-117244761D01*
X121062857Y-117292380D01*
X120872380Y-117292380D01*
X122253333Y-117292380D02*
X121681904Y-117292380D01*
X121967619Y-117292380D02*
X121967619Y-116292380D01*
X121872380Y-116435238D01*
X121777142Y-116530476D01*
X121681904Y-116578095D01*
X122872380Y-116292380D02*
X122967619Y-116292380D01*
X123062857Y-116340000D01*
X123110476Y-116387619D01*
X123158095Y-116482857D01*
X123205714Y-116673333D01*
X123205714Y-116911428D01*
X123158095Y-117101904D01*
X123110476Y-117197142D01*
X123062857Y-117244761D01*
X122967619Y-117292380D01*
X122872380Y-117292380D01*
X122777142Y-117244761D01*
X122729523Y-117197142D01*
X122681904Y-117101904D01*
X122634285Y-116911428D01*
X122634285Y-116673333D01*
X122681904Y-116482857D01*
X122729523Y-116387619D01*
X122777142Y-116340000D01*
X122872380Y-116292380D01*
%TO.C,Q11*%
X121348571Y-127547619D02*
X121253333Y-127500000D01*
X121158095Y-127404761D01*
X121015238Y-127261904D01*
X120920000Y-127214285D01*
X120824761Y-127214285D01*
X120872380Y-127452380D02*
X120777142Y-127404761D01*
X120681904Y-127309523D01*
X120634285Y-127119047D01*
X120634285Y-126785714D01*
X120681904Y-126595238D01*
X120777142Y-126500000D01*
X120872380Y-126452380D01*
X121062857Y-126452380D01*
X121158095Y-126500000D01*
X121253333Y-126595238D01*
X121300952Y-126785714D01*
X121300952Y-127119047D01*
X121253333Y-127309523D01*
X121158095Y-127404761D01*
X121062857Y-127452380D01*
X120872380Y-127452380D01*
X122253333Y-127452380D02*
X121681904Y-127452380D01*
X121967619Y-127452380D02*
X121967619Y-126452380D01*
X121872380Y-126595238D01*
X121777142Y-126690476D01*
X121681904Y-126738095D01*
X123205714Y-127452380D02*
X122634285Y-127452380D01*
X122920000Y-127452380D02*
X122920000Y-126452380D01*
X122824761Y-126595238D01*
X122729523Y-126690476D01*
X122634285Y-126738095D01*
%TO.C,Q12*%
X146748571Y-117387619D02*
X146653333Y-117340000D01*
X146558095Y-117244761D01*
X146415238Y-117101904D01*
X146320000Y-117054285D01*
X146224761Y-117054285D01*
X146272380Y-117292380D02*
X146177142Y-117244761D01*
X146081904Y-117149523D01*
X146034285Y-116959047D01*
X146034285Y-116625714D01*
X146081904Y-116435238D01*
X146177142Y-116340000D01*
X146272380Y-116292380D01*
X146462857Y-116292380D01*
X146558095Y-116340000D01*
X146653333Y-116435238D01*
X146700952Y-116625714D01*
X146700952Y-116959047D01*
X146653333Y-117149523D01*
X146558095Y-117244761D01*
X146462857Y-117292380D01*
X146272380Y-117292380D01*
X147653333Y-117292380D02*
X147081904Y-117292380D01*
X147367619Y-117292380D02*
X147367619Y-116292380D01*
X147272380Y-116435238D01*
X147177142Y-116530476D01*
X147081904Y-116578095D01*
X148034285Y-116387619D02*
X148081904Y-116340000D01*
X148177142Y-116292380D01*
X148415238Y-116292380D01*
X148510476Y-116340000D01*
X148558095Y-116387619D01*
X148605714Y-116482857D01*
X148605714Y-116578095D01*
X148558095Y-116720952D01*
X147986666Y-117292380D01*
X148605714Y-117292380D01*
%TO.C,Q13*%
X131508571Y-127547619D02*
X131413333Y-127500000D01*
X131318095Y-127404761D01*
X131175238Y-127261904D01*
X131080000Y-127214285D01*
X130984761Y-127214285D01*
X131032380Y-127452380D02*
X130937142Y-127404761D01*
X130841904Y-127309523D01*
X130794285Y-127119047D01*
X130794285Y-126785714D01*
X130841904Y-126595238D01*
X130937142Y-126500000D01*
X131032380Y-126452380D01*
X131222857Y-126452380D01*
X131318095Y-126500000D01*
X131413333Y-126595238D01*
X131460952Y-126785714D01*
X131460952Y-127119047D01*
X131413333Y-127309523D01*
X131318095Y-127404761D01*
X131222857Y-127452380D01*
X131032380Y-127452380D01*
X132413333Y-127452380D02*
X131841904Y-127452380D01*
X132127619Y-127452380D02*
X132127619Y-126452380D01*
X132032380Y-126595238D01*
X131937142Y-126690476D01*
X131841904Y-126738095D01*
X132746666Y-126452380D02*
X133365714Y-126452380D01*
X133032380Y-126833333D01*
X133175238Y-126833333D01*
X133270476Y-126880952D01*
X133318095Y-126928571D01*
X133365714Y-127023809D01*
X133365714Y-127261904D01*
X133318095Y-127357142D01*
X133270476Y-127404761D01*
X133175238Y-127452380D01*
X132889523Y-127452380D01*
X132794285Y-127404761D01*
X132746666Y-127357142D01*
%TO.C,Q14*%
X156908571Y-117387619D02*
X156813333Y-117340000D01*
X156718095Y-117244761D01*
X156575238Y-117101904D01*
X156480000Y-117054285D01*
X156384761Y-117054285D01*
X156432380Y-117292380D02*
X156337142Y-117244761D01*
X156241904Y-117149523D01*
X156194285Y-116959047D01*
X156194285Y-116625714D01*
X156241904Y-116435238D01*
X156337142Y-116340000D01*
X156432380Y-116292380D01*
X156622857Y-116292380D01*
X156718095Y-116340000D01*
X156813333Y-116435238D01*
X156860952Y-116625714D01*
X156860952Y-116959047D01*
X156813333Y-117149523D01*
X156718095Y-117244761D01*
X156622857Y-117292380D01*
X156432380Y-117292380D01*
X157813333Y-117292380D02*
X157241904Y-117292380D01*
X157527619Y-117292380D02*
X157527619Y-116292380D01*
X157432380Y-116435238D01*
X157337142Y-116530476D01*
X157241904Y-116578095D01*
X158670476Y-116625714D02*
X158670476Y-117292380D01*
X158432380Y-116244761D02*
X158194285Y-116959047D01*
X158813333Y-116959047D01*
%TO.C,Q15*%
X175807619Y-114871428D02*
X175760000Y-114966666D01*
X175664761Y-115061904D01*
X175521904Y-115204761D01*
X175474285Y-115300000D01*
X175474285Y-115395238D01*
X175712380Y-115347619D02*
X175664761Y-115442857D01*
X175569523Y-115538095D01*
X175379047Y-115585714D01*
X175045714Y-115585714D01*
X174855238Y-115538095D01*
X174760000Y-115442857D01*
X174712380Y-115347619D01*
X174712380Y-115157142D01*
X174760000Y-115061904D01*
X174855238Y-114966666D01*
X175045714Y-114919047D01*
X175379047Y-114919047D01*
X175569523Y-114966666D01*
X175664761Y-115061904D01*
X175712380Y-115157142D01*
X175712380Y-115347619D01*
X175712380Y-113966666D02*
X175712380Y-114538095D01*
X175712380Y-114252380D02*
X174712380Y-114252380D01*
X174855238Y-114347619D01*
X174950476Y-114442857D01*
X174998095Y-114538095D01*
X174712380Y-113061904D02*
X174712380Y-113538095D01*
X175188571Y-113585714D01*
X175140952Y-113538095D01*
X175093333Y-113442857D01*
X175093333Y-113204761D01*
X175140952Y-113109523D01*
X175188571Y-113061904D01*
X175283809Y-113014285D01*
X175521904Y-113014285D01*
X175617142Y-113061904D01*
X175664761Y-113109523D01*
X175712380Y-113204761D01*
X175712380Y-113442857D01*
X175664761Y-113538095D01*
X175617142Y-113585714D01*
%TO.C,Q16*%
X156908571Y-127547619D02*
X156813333Y-127500000D01*
X156718095Y-127404761D01*
X156575238Y-127261904D01*
X156480000Y-127214285D01*
X156384761Y-127214285D01*
X156432380Y-127452380D02*
X156337142Y-127404761D01*
X156241904Y-127309523D01*
X156194285Y-127119047D01*
X156194285Y-126785714D01*
X156241904Y-126595238D01*
X156337142Y-126500000D01*
X156432380Y-126452380D01*
X156622857Y-126452380D01*
X156718095Y-126500000D01*
X156813333Y-126595238D01*
X156860952Y-126785714D01*
X156860952Y-127119047D01*
X156813333Y-127309523D01*
X156718095Y-127404761D01*
X156622857Y-127452380D01*
X156432380Y-127452380D01*
X157813333Y-127452380D02*
X157241904Y-127452380D01*
X157527619Y-127452380D02*
X157527619Y-126452380D01*
X157432380Y-126595238D01*
X157337142Y-126690476D01*
X157241904Y-126738095D01*
X158670476Y-126452380D02*
X158480000Y-126452380D01*
X158384761Y-126500000D01*
X158337142Y-126547619D01*
X158241904Y-126690476D01*
X158194285Y-126880952D01*
X158194285Y-127261904D01*
X158241904Y-127357142D01*
X158289523Y-127404761D01*
X158384761Y-127452380D01*
X158575238Y-127452380D01*
X158670476Y-127404761D01*
X158718095Y-127357142D01*
X158765714Y-127261904D01*
X158765714Y-127023809D01*
X158718095Y-126928571D01*
X158670476Y-126880952D01*
X158575238Y-126833333D01*
X158384761Y-126833333D01*
X158289523Y-126880952D01*
X158241904Y-126928571D01*
X158194285Y-127023809D01*
%TO.C,R1*%
X96972380Y-89066666D02*
X96496190Y-89400000D01*
X96972380Y-89638095D02*
X95972380Y-89638095D01*
X95972380Y-89257142D01*
X96020000Y-89161904D01*
X96067619Y-89114285D01*
X96162857Y-89066666D01*
X96305714Y-89066666D01*
X96400952Y-89114285D01*
X96448571Y-89161904D01*
X96496190Y-89257142D01*
X96496190Y-89638095D01*
X96972380Y-88114285D02*
X96972380Y-88685714D01*
X96972380Y-88400000D02*
X95972380Y-88400000D01*
X96115238Y-88495238D01*
X96210476Y-88590476D01*
X96258095Y-88685714D01*
%TO.C,R2*%
X114582380Y-73826666D02*
X114106190Y-74160000D01*
X114582380Y-74398095D02*
X113582380Y-74398095D01*
X113582380Y-74017142D01*
X113630000Y-73921904D01*
X113677619Y-73874285D01*
X113772857Y-73826666D01*
X113915714Y-73826666D01*
X114010952Y-73874285D01*
X114058571Y-73921904D01*
X114106190Y-74017142D01*
X114106190Y-74398095D01*
X113677619Y-73445714D02*
X113630000Y-73398095D01*
X113582380Y-73302857D01*
X113582380Y-73064761D01*
X113630000Y-72969523D01*
X113677619Y-72921904D01*
X113772857Y-72874285D01*
X113868095Y-72874285D01*
X114010952Y-72921904D01*
X114582380Y-73493333D01*
X114582380Y-72874285D01*
%TO.C,R3*%
X139982380Y-73826666D02*
X139506190Y-74160000D01*
X139982380Y-74398095D02*
X138982380Y-74398095D01*
X138982380Y-74017142D01*
X139030000Y-73921904D01*
X139077619Y-73874285D01*
X139172857Y-73826666D01*
X139315714Y-73826666D01*
X139410952Y-73874285D01*
X139458571Y-73921904D01*
X139506190Y-74017142D01*
X139506190Y-74398095D01*
X138982380Y-73493333D02*
X138982380Y-72874285D01*
X139363333Y-73207619D01*
X139363333Y-73064761D01*
X139410952Y-72969523D01*
X139458571Y-72921904D01*
X139553809Y-72874285D01*
X139791904Y-72874285D01*
X139887142Y-72921904D01*
X139934761Y-72969523D01*
X139982380Y-73064761D01*
X139982380Y-73350476D01*
X139934761Y-73445714D01*
X139887142Y-73493333D01*
%TO.C,R5*%
X154773333Y-73012380D02*
X154440000Y-72536190D01*
X154201904Y-73012380D02*
X154201904Y-72012380D01*
X154582857Y-72012380D01*
X154678095Y-72060000D01*
X154725714Y-72107619D01*
X154773333Y-72202857D01*
X154773333Y-72345714D01*
X154725714Y-72440952D01*
X154678095Y-72488571D01*
X154582857Y-72536190D01*
X154201904Y-72536190D01*
X155678095Y-72012380D02*
X155201904Y-72012380D01*
X155154285Y-72488571D01*
X155201904Y-72440952D01*
X155297142Y-72393333D01*
X155535238Y-72393333D01*
X155630476Y-72440952D01*
X155678095Y-72488571D01*
X155725714Y-72583809D01*
X155725714Y-72821904D01*
X155678095Y-72917142D01*
X155630476Y-72964761D01*
X155535238Y-73012380D01*
X155297142Y-73012380D01*
X155201904Y-72964761D01*
X155154285Y-72917142D01*
%TO.C,R7*%
X134453333Y-102052380D02*
X134120000Y-101576190D01*
X133881904Y-102052380D02*
X133881904Y-101052380D01*
X134262857Y-101052380D01*
X134358095Y-101100000D01*
X134405714Y-101147619D01*
X134453333Y-101242857D01*
X134453333Y-101385714D01*
X134405714Y-101480952D01*
X134358095Y-101528571D01*
X134262857Y-101576190D01*
X133881904Y-101576190D01*
X134786666Y-101052380D02*
X135453333Y-101052380D01*
X135024761Y-102052380D01*
%TO.C,R8*%
X109053333Y-102052380D02*
X108720000Y-101576190D01*
X108481904Y-102052380D02*
X108481904Y-101052380D01*
X108862857Y-101052380D01*
X108958095Y-101100000D01*
X109005714Y-101147619D01*
X109053333Y-101242857D01*
X109053333Y-101385714D01*
X109005714Y-101480952D01*
X108958095Y-101528571D01*
X108862857Y-101576190D01*
X108481904Y-101576190D01*
X109624761Y-101480952D02*
X109529523Y-101433333D01*
X109481904Y-101385714D01*
X109434285Y-101290476D01*
X109434285Y-101242857D01*
X109481904Y-101147619D01*
X109529523Y-101100000D01*
X109624761Y-101052380D01*
X109815238Y-101052380D01*
X109910476Y-101100000D01*
X109958095Y-101147619D01*
X110005714Y-101242857D01*
X110005714Y-101290476D01*
X109958095Y-101385714D01*
X109910476Y-101433333D01*
X109815238Y-101480952D01*
X109624761Y-101480952D01*
X109529523Y-101528571D01*
X109481904Y-101576190D01*
X109434285Y-101671428D01*
X109434285Y-101861904D01*
X109481904Y-101957142D01*
X109529523Y-102004761D01*
X109624761Y-102052380D01*
X109815238Y-102052380D01*
X109910476Y-102004761D01*
X109958095Y-101957142D01*
X110005714Y-101861904D01*
X110005714Y-101671428D01*
X109958095Y-101576190D01*
X109910476Y-101528571D01*
X109815238Y-101480952D01*
%TO.C,R9*%
X96972380Y-122086666D02*
X96496190Y-122420000D01*
X96972380Y-122658095D02*
X95972380Y-122658095D01*
X95972380Y-122277142D01*
X96020000Y-122181904D01*
X96067619Y-122134285D01*
X96162857Y-122086666D01*
X96305714Y-122086666D01*
X96400952Y-122134285D01*
X96448571Y-122181904D01*
X96496190Y-122277142D01*
X96496190Y-122658095D01*
X96972380Y-121610476D02*
X96972380Y-121420000D01*
X96924761Y-121324761D01*
X96877142Y-121277142D01*
X96734285Y-121181904D01*
X96543809Y-121134285D01*
X96162857Y-121134285D01*
X96067619Y-121181904D01*
X96020000Y-121229523D01*
X95972380Y-121324761D01*
X95972380Y-121515238D01*
X96020000Y-121610476D01*
X96067619Y-121658095D01*
X96162857Y-121705714D01*
X96400952Y-121705714D01*
X96496190Y-121658095D01*
X96543809Y-121610476D01*
X96591428Y-121515238D01*
X96591428Y-121324761D01*
X96543809Y-121229523D01*
X96496190Y-121181904D01*
X96400952Y-121134285D01*
%TO.C,R10*%
X113657142Y-109672380D02*
X113323809Y-109196190D01*
X113085714Y-109672380D02*
X113085714Y-108672380D01*
X113466666Y-108672380D01*
X113561904Y-108720000D01*
X113609523Y-108767619D01*
X113657142Y-108862857D01*
X113657142Y-109005714D01*
X113609523Y-109100952D01*
X113561904Y-109148571D01*
X113466666Y-109196190D01*
X113085714Y-109196190D01*
X114609523Y-109672380D02*
X114038095Y-109672380D01*
X114323809Y-109672380D02*
X114323809Y-108672380D01*
X114228571Y-108815238D01*
X114133333Y-108910476D01*
X114038095Y-108958095D01*
X115228571Y-108672380D02*
X115323809Y-108672380D01*
X115419047Y-108720000D01*
X115466666Y-108767619D01*
X115514285Y-108862857D01*
X115561904Y-109053333D01*
X115561904Y-109291428D01*
X115514285Y-109481904D01*
X115466666Y-109577142D01*
X115419047Y-109624761D01*
X115323809Y-109672380D01*
X115228571Y-109672380D01*
X115133333Y-109624761D01*
X115085714Y-109577142D01*
X115038095Y-109481904D01*
X114990476Y-109291428D01*
X114990476Y-109053333D01*
X115038095Y-108862857D01*
X115085714Y-108767619D01*
X115133333Y-108720000D01*
X115228571Y-108672380D01*
%TO.C,R11*%
X124742380Y-125102857D02*
X124266190Y-125436190D01*
X124742380Y-125674285D02*
X123742380Y-125674285D01*
X123742380Y-125293333D01*
X123790000Y-125198095D01*
X123837619Y-125150476D01*
X123932857Y-125102857D01*
X124075714Y-125102857D01*
X124170952Y-125150476D01*
X124218571Y-125198095D01*
X124266190Y-125293333D01*
X124266190Y-125674285D01*
X124742380Y-124150476D02*
X124742380Y-124721904D01*
X124742380Y-124436190D02*
X123742380Y-124436190D01*
X123885238Y-124531428D01*
X123980476Y-124626666D01*
X124028095Y-124721904D01*
X124742380Y-123198095D02*
X124742380Y-123769523D01*
X124742380Y-123483809D02*
X123742380Y-123483809D01*
X123885238Y-123579047D01*
X123980476Y-123674285D01*
X124028095Y-123769523D01*
%TO.C,R12*%
X139057142Y-109672380D02*
X138723809Y-109196190D01*
X138485714Y-109672380D02*
X138485714Y-108672380D01*
X138866666Y-108672380D01*
X138961904Y-108720000D01*
X139009523Y-108767619D01*
X139057142Y-108862857D01*
X139057142Y-109005714D01*
X139009523Y-109100952D01*
X138961904Y-109148571D01*
X138866666Y-109196190D01*
X138485714Y-109196190D01*
X140009523Y-109672380D02*
X139438095Y-109672380D01*
X139723809Y-109672380D02*
X139723809Y-108672380D01*
X139628571Y-108815238D01*
X139533333Y-108910476D01*
X139438095Y-108958095D01*
X140390476Y-108767619D02*
X140438095Y-108720000D01*
X140533333Y-108672380D01*
X140771428Y-108672380D01*
X140866666Y-108720000D01*
X140914285Y-108767619D01*
X140961904Y-108862857D01*
X140961904Y-108958095D01*
X140914285Y-109100952D01*
X140342857Y-109672380D01*
X140961904Y-109672380D01*
%TO.C,R13*%
X150142380Y-125102857D02*
X149666190Y-125436190D01*
X150142380Y-125674285D02*
X149142380Y-125674285D01*
X149142380Y-125293333D01*
X149190000Y-125198095D01*
X149237619Y-125150476D01*
X149332857Y-125102857D01*
X149475714Y-125102857D01*
X149570952Y-125150476D01*
X149618571Y-125198095D01*
X149666190Y-125293333D01*
X149666190Y-125674285D01*
X150142380Y-124150476D02*
X150142380Y-124721904D01*
X150142380Y-124436190D02*
X149142380Y-124436190D01*
X149285238Y-124531428D01*
X149380476Y-124626666D01*
X149428095Y-124721904D01*
X149142380Y-123817142D02*
X149142380Y-123198095D01*
X149523333Y-123531428D01*
X149523333Y-123388571D01*
X149570952Y-123293333D01*
X149618571Y-123245714D01*
X149713809Y-123198095D01*
X149951904Y-123198095D01*
X150047142Y-123245714D01*
X150094761Y-123293333D01*
X150142380Y-123388571D01*
X150142380Y-123674285D01*
X150094761Y-123769523D01*
X150047142Y-123817142D01*
%TO.C,R14*%
X164457142Y-109672380D02*
X164123809Y-109196190D01*
X163885714Y-109672380D02*
X163885714Y-108672380D01*
X164266666Y-108672380D01*
X164361904Y-108720000D01*
X164409523Y-108767619D01*
X164457142Y-108862857D01*
X164457142Y-109005714D01*
X164409523Y-109100952D01*
X164361904Y-109148571D01*
X164266666Y-109196190D01*
X163885714Y-109196190D01*
X165409523Y-109672380D02*
X164838095Y-109672380D01*
X165123809Y-109672380D02*
X165123809Y-108672380D01*
X165028571Y-108815238D01*
X164933333Y-108910476D01*
X164838095Y-108958095D01*
X166266666Y-109005714D02*
X166266666Y-109672380D01*
X166028571Y-108624761D02*
X165790476Y-109339047D01*
X166409523Y-109339047D01*
%TO.C,R15*%
X183162380Y-114942857D02*
X182686190Y-115276190D01*
X183162380Y-115514285D02*
X182162380Y-115514285D01*
X182162380Y-115133333D01*
X182210000Y-115038095D01*
X182257619Y-114990476D01*
X182352857Y-114942857D01*
X182495714Y-114942857D01*
X182590952Y-114990476D01*
X182638571Y-115038095D01*
X182686190Y-115133333D01*
X182686190Y-115514285D01*
X183162380Y-113990476D02*
X183162380Y-114561904D01*
X183162380Y-114276190D02*
X182162380Y-114276190D01*
X182305238Y-114371428D01*
X182400476Y-114466666D01*
X182448095Y-114561904D01*
X182162380Y-113085714D02*
X182162380Y-113561904D01*
X182638571Y-113609523D01*
X182590952Y-113561904D01*
X182543333Y-113466666D01*
X182543333Y-113228571D01*
X182590952Y-113133333D01*
X182638571Y-113085714D01*
X182733809Y-113038095D01*
X182971904Y-113038095D01*
X183067142Y-113085714D01*
X183114761Y-113133333D01*
X183162380Y-113228571D01*
X183162380Y-113466666D01*
X183114761Y-113561904D01*
X183067142Y-113609523D01*
%TO.C,R16*%
X174617142Y-132362380D02*
X174283809Y-131886190D01*
X174045714Y-132362380D02*
X174045714Y-131362380D01*
X174426666Y-131362380D01*
X174521904Y-131410000D01*
X174569523Y-131457619D01*
X174617142Y-131552857D01*
X174617142Y-131695714D01*
X174569523Y-131790952D01*
X174521904Y-131838571D01*
X174426666Y-131886190D01*
X174045714Y-131886190D01*
X175569523Y-132362380D02*
X174998095Y-132362380D01*
X175283809Y-132362380D02*
X175283809Y-131362380D01*
X175188571Y-131505238D01*
X175093333Y-131600476D01*
X174998095Y-131648095D01*
X176426666Y-131362380D02*
X176236190Y-131362380D01*
X176140952Y-131410000D01*
X176093333Y-131457619D01*
X175998095Y-131600476D01*
X175950476Y-131790952D01*
X175950476Y-132171904D01*
X175998095Y-132267142D01*
X176045714Y-132314761D01*
X176140952Y-132362380D01*
X176331428Y-132362380D01*
X176426666Y-132314761D01*
X176474285Y-132267142D01*
X176521904Y-132171904D01*
X176521904Y-131933809D01*
X176474285Y-131838571D01*
X176426666Y-131790952D01*
X176331428Y-131743333D01*
X176140952Y-131743333D01*
X176045714Y-131790952D01*
X175998095Y-131838571D01*
X175950476Y-131933809D01*
%TO.C,J21*%
X235410476Y-49192380D02*
X235410476Y-49906666D01*
X235362857Y-50049523D01*
X235267619Y-50144761D01*
X235124761Y-50192380D01*
X235029523Y-50192380D01*
X235839047Y-49287619D02*
X235886666Y-49240000D01*
X235981904Y-49192380D01*
X236220000Y-49192380D01*
X236315238Y-49240000D01*
X236362857Y-49287619D01*
X236410476Y-49382857D01*
X236410476Y-49478095D01*
X236362857Y-49620952D01*
X235791428Y-50192380D01*
X236410476Y-50192380D01*
X237362857Y-50192380D02*
X236791428Y-50192380D01*
X237077142Y-50192380D02*
X237077142Y-49192380D01*
X236981904Y-49335238D01*
X236886666Y-49430476D01*
X236791428Y-49478095D01*
%TO.C,J22*%
X229695476Y-49192380D02*
X229695476Y-49906666D01*
X229647857Y-50049523D01*
X229552619Y-50144761D01*
X229409761Y-50192380D01*
X229314523Y-50192380D01*
X230124047Y-49287619D02*
X230171666Y-49240000D01*
X230266904Y-49192380D01*
X230505000Y-49192380D01*
X230600238Y-49240000D01*
X230647857Y-49287619D01*
X230695476Y-49382857D01*
X230695476Y-49478095D01*
X230647857Y-49620952D01*
X230076428Y-50192380D01*
X230695476Y-50192380D01*
X231076428Y-49287619D02*
X231124047Y-49240000D01*
X231219285Y-49192380D01*
X231457380Y-49192380D01*
X231552619Y-49240000D01*
X231600238Y-49287619D01*
X231647857Y-49382857D01*
X231647857Y-49478095D01*
X231600238Y-49620952D01*
X231028809Y-50192380D01*
X231647857Y-50192380D01*
%TO.C,J23*%
X240490476Y-49192380D02*
X240490476Y-49906666D01*
X240442857Y-50049523D01*
X240347619Y-50144761D01*
X240204761Y-50192380D01*
X240109523Y-50192380D01*
X240919047Y-49287619D02*
X240966666Y-49240000D01*
X241061904Y-49192380D01*
X241300000Y-49192380D01*
X241395238Y-49240000D01*
X241442857Y-49287619D01*
X241490476Y-49382857D01*
X241490476Y-49478095D01*
X241442857Y-49620952D01*
X240871428Y-50192380D01*
X241490476Y-50192380D01*
X241823809Y-49192380D02*
X242442857Y-49192380D01*
X242109523Y-49573333D01*
X242252380Y-49573333D01*
X242347619Y-49620952D01*
X242395238Y-49668571D01*
X242442857Y-49763809D01*
X242442857Y-50001904D01*
X242395238Y-50097142D01*
X242347619Y-50144761D01*
X242252380Y-50192380D01*
X241966666Y-50192380D01*
X241871428Y-50144761D01*
X241823809Y-50097142D01*
%TO.C,J24*%
X223980476Y-49192380D02*
X223980476Y-49906666D01*
X223932857Y-50049523D01*
X223837619Y-50144761D01*
X223694761Y-50192380D01*
X223599523Y-50192380D01*
X224409047Y-49287619D02*
X224456666Y-49240000D01*
X224551904Y-49192380D01*
X224790000Y-49192380D01*
X224885238Y-49240000D01*
X224932857Y-49287619D01*
X224980476Y-49382857D01*
X224980476Y-49478095D01*
X224932857Y-49620952D01*
X224361428Y-50192380D01*
X224980476Y-50192380D01*
X225837619Y-49525714D02*
X225837619Y-50192380D01*
X225599523Y-49144761D02*
X225361428Y-49859047D01*
X225980476Y-49859047D01*
%TD*%
M02*
